<svg width="17" height="17" viewBox="0 0 17 17" fill="none" xmlns="http://www.w3.org/2000/svg">
<g clip-path="url(#clip0_355_646)">
<path d="M17 8.5C17 13.2 13.2 17 8.5 17C3.8 17 0 13.2 0 8.5C0 3.8 3.8 0 8.5 0C13.2 0 17 3.8 17 8.5ZM1 8.5C1 12.65 4.35 16 8.5 16C12.65 16 16 12.65 16 8.5C16 4.35 12.65 1 8.5 1C4.35 1 1 4.35 1 8.5Z" fill="#45B3C2"/>
<path d="M9.3498 4.3501L5.1998 8.5001L9.3498 12.6501L8.6498 13.3501L3.7998 8.5001L8.6498 3.6501L9.3498 4.3501Z" fill="#45B3C2"/>
<path d="M4.5 9V8H13V9H4.5Z" fill="#45B3C2"/>
</g>
<defs>
<clipPath id="clip0_355_646">
<rect width="17" height="17" fill="white" transform="matrix(0 -1 1 0 0 17)"/>
</clipPath>
</defs>
</svg>
