<svg width="44" height="29" viewBox="0 0 44 29" fill="none" xmlns="http://www.w3.org/2000/svg">
<g clip-path="url(#clip0_333_856)">
<path d="M25.3923 19.9181C25.4633 20.2743 25.4989 20.8975 25.4989 21.788V28.7655H23.5801V21.8628C23.5801 21.0791 23.5055 20.4936 23.3563 20.1051C23.2071 19.7168 22.9424 19.4069 22.5622 19.1754C22.182 18.9443 21.7361 18.8281 21.2244 18.8281C20.4071 18.8281 19.7019 19.0882 19.1085 19.6082C18.5151 20.1282 18.2184 21.1149 18.2184 22.5681V28.7655H16.2997V17.4177H18.0265V19.0312C18.858 17.7845 20.0589 17.1612 21.6294 17.1612C22.3116 17.1612 22.9388 17.2841 23.5109 17.5298C24.083 17.7756 24.5112 18.098 24.7954 18.4969C25.0796 18.8959 25.2785 19.3696 25.3923 19.9181ZM43.957 28.8354C43.417 28.9494 42.9337 29.0063 42.5074 29.0063C41.8109 29.0063 41.2708 28.896 40.8871 28.6751C40.5034 28.4543 40.2334 28.1639 40.077 27.8042C39.9206 27.4448 39.8424 26.6876 39.8424 25.5336V18.6814H35.6766C35.6861 18.6918 35.6968 18.7003 35.7064 18.7106C36.6658 19.7435 37.1455 21.1967 37.1455 23.0703C37.1455 23.1842 37.1419 23.3553 37.1349 23.5831H28.6925C28.7635 24.8298 29.1153 25.7844 29.7477 26.4468C30.3802 27.1093 31.169 27.4405 32.1142 27.4405C32.8177 27.4405 33.4182 27.2554 33.9157 26.8849C34.4131 26.5145 34.8075 25.9233 35.0989 25.1112L37.0816 25.3569C36.7689 26.5181 36.1897 27.4192 35.344 28.0603C34.4983 28.7015 33.4182 29.0221 32.1035 29.0221C30.4477 29.0221 29.1348 28.5109 28.1648 27.4887C27.1947 26.4668 26.7097 25.0328 26.7097 23.1878C26.7097 21.2786 27.2001 19.7969 28.1807 18.7426C29.1614 17.6884 30.4335 17.1612 31.9969 17.1612C32.1858 17.1612 32.371 17.1694 32.5515 17.1854H39.8423V14.7235H41.7504V17.1854H43.6798V18.6813H41.7504V25.6404C41.7504 26.1888 41.7842 26.5415 41.8517 26.6982C41.9192 26.8549 42.0293 26.9797 42.1822 27.0722C42.3349 27.1648 42.5534 27.2111 42.8377 27.2111C43.0509 27.2111 43.3316 27.1861 43.6799 27.1363L43.957 28.8354ZM35.1203 22.0017C35.0349 21.0472 34.7933 20.3312 34.3954 19.854C33.7842 19.113 32.9918 18.7427 32.0182 18.7427C31.137 18.7427 30.3962 19.0383 29.7957 19.6296C29.1953 20.2209 28.863 21.0116 28.799 22.0017H35.1203ZM13.5679 26.455C13.2211 26.455 12.9269 26.5786 12.6845 26.8301C12.4422 27.0798 12.3221 27.3819 12.3221 27.7388C12.3221 28.0864 12.4422 28.3874 12.6845 28.641C12.9269 28.8946 13.2211 29.0222 13.5679 29.0222C13.9236 29.0222 14.2264 28.8947 14.4754 28.641C14.7251 28.3874 14.8492 28.0864 14.8492 27.7388C14.8492 27.3904 14.7252 27.0884 14.4754 26.8352C14.2263 26.5804 13.9236 26.455 13.5679 26.455ZM25.8712 15.4091C24.8763 15.8473 23.6221 16.0663 22.1085 16.0663C19.4506 16.0663 17.6101 15.5534 16.5867 14.5276C16.5824 14.5233 16.5785 14.5187 16.5742 14.5145L17.0558 15.7992H11.9992L11.2171 13.2133H5.73521L4.97338 15.7992H0.0429688L5.91645 0.134411H11.1837L15.107 10.6006L19.4435 10.3283C19.543 11.0763 19.7455 11.6463 20.0511 12.038C20.5486 12.6721 21.2592 12.9889 22.183 12.9889C22.8724 12.9889 23.4036 12.8271 23.7767 12.5027C24.1498 12.1786 24.3364 11.8028 24.3364 11.3754C24.3364 10.9694 24.1587 10.606 23.8034 10.2855C23.448 9.9649 22.6236 9.66227 21.3304 9.37721C19.2127 8.90014 17.7026 8.26602 16.8001 7.47529C15.8904 6.68448 15.4357 5.67658 15.4357 4.45124C15.4357 3.6463 15.6684 2.88581 16.1339 2.16994C16.5993 1.45399 17.2994 0.891457 18.2339 0.481663C19.1684 0.0720416 20.4493 -0.132812 22.0767 -0.132812C24.0736 -0.132812 25.5961 0.239594 26.6443 0.983804C27.6925 1.72827 28.3161 2.9126 28.5151 4.5367L23.9634 4.80392C23.8427 4.09865 23.5886 3.58574 23.2012 3.26519C22.814 2.94465 22.2792 2.78442 21.597 2.78442C21.0356 2.78442 20.6128 2.90373 20.3285 3.14235C20.0442 3.38106 19.9022 3.67128 19.9022 4.01311C19.9022 4.26259 20.0194 4.48708 20.2539 4.68625C20.4813 4.893 21.0214 5.08536 21.8742 5.26325C23.9848 5.71922 25.4966 6.18061 26.4098 6.64701C27.323 7.11357 27.9874 7.69255 28.4031 8.38335C28.6162 8.73732 28.7737 9.11318 28.8776 9.51005V0.134411H36.9042C38.6524 0.134411 39.9617 0.551096 40.8323 1.38455C41.7028 2.2181 42.1381 3.40406 42.1381 4.94288C42.1381 6.52425 41.6636 7.76026 40.715 8.65066C39.7662 9.54132 38.3182 9.98635 36.3712 9.98635H33.7275V15.7993H28.8774V11.9341C28.7421 12.4756 28.5151 12.9912 28.1951 13.4806C27.6408 14.3282 26.8661 14.9711 25.8712 15.4091ZM33.7274 6.81275H34.9106C35.8415 6.81275 36.4953 6.65079 36.872 6.32646C37.2487 6.00238 37.4369 5.58759 37.4369 5.08166C37.4369 4.59011 37.2735 4.17343 36.9466 3.83143C36.6197 3.48952 36.005 3.31852 35.1025 3.31852H33.7274V6.81275ZM10.2155 9.82603L8.49071 4.19488L6.78373 9.82603H10.2155Z" fill="black"/>
</g>
<defs>
<clipPath id="clip0_333_856">
<rect width="44" height="29" fill="white"/>
</clipPath>
</defs>
</svg>
