<svg width="43" height="29" viewBox="0 0 43 29" fill="none" xmlns="http://www.w3.org/2000/svg">
<path d="M35.1783 19.8155C36.6919 19.6224 40.0298 19.2068 40.6241 20.0086C41.2181 20.7956 39.9593 24.1072 39.3934 25.5771C39.2237 26.0227 39.5915 26.2007 39.9734 25.8593C42.4628 23.6616 43.1135 19.0729 42.6044 18.4048C42.095 17.7517 37.7245 17.1871 35.0651 19.1474C34.6548 19.4591 34.7256 19.875 35.1783 19.8155Z" fill="#FF9900"/>
<path d="M21.4574 27.85C27.271 27.85 34.0321 25.9342 38.6858 22.326C39.4495 21.7321 38.7847 20.8264 38.0067 21.1976C32.7874 23.5139 27.1154 24.6427 21.9525 24.6427C14.3002 24.6427 6.90254 22.4302 0.905474 18.7773C0.381735 18.4506 -0.0141517 19.0148 0.424161 19.4307C5.96915 24.6872 13.3101 27.85 21.4574 27.85Z" fill="#FF9900"/>
<path d="M12.221 10.8469C12.221 11.3964 12.2774 11.8417 12.3763 12.1684C12.5021 12.5359 12.6535 12.8932 12.8293 13.2374C12.8998 13.3563 12.9282 13.4752 12.9282 13.5791C12.9282 13.7278 12.8433 13.8764 12.6593 14.0248L11.7683 14.6484C11.641 14.7373 11.5135 14.7821 11.4005 14.7821C11.2589 14.7821 11.1176 14.7076 10.9763 14.574C10.7856 14.3589 10.615 14.1253 10.4669 13.8761C10.3087 13.5908 10.1624 13.2984 10.0283 12.9999C8.92517 14.3662 7.53885 15.0493 5.86987 15.0493C4.68164 15.0493 3.73421 14.6929 3.04105 13.9803C2.34789 13.2674 1.99414 12.3167 1.99414 11.1291C1.99414 9.86673 2.41841 8.84216 3.28127 8.07013C4.14414 7.2978 5.28995 6.91193 6.74707 6.91193C7.22781 6.91193 7.72289 6.95638 8.24634 7.03055C8.76951 7.10502 9.30701 7.22363 9.87289 7.35725V6.27323C9.87289 5.14476 9.64642 4.35772 9.20782 3.89739C8.75546 3.43705 7.99149 3.21454 6.90245 3.21454C6.40737 3.21454 5.89825 3.2737 5.3748 3.40732C4.85477 3.53745 4.34427 3.70623 3.84715 3.9124C3.68631 3.98797 3.52094 4.05247 3.35208 4.10548C3.25318 4.13491 3.18237 4.14992 3.12561 4.14992C2.92781 4.14992 2.82863 4.00158 2.82863 3.68959V2.962C2.82863 2.72448 2.85729 2.54611 2.92781 2.44251C2.99833 2.33831 3.12561 2.23441 3.3237 2.13022C3.81877 1.86296 4.41303 1.64045 5.10591 1.46209C5.79907 1.2693 6.53494 1.17982 7.31267 1.17982C8.99597 1.17982 10.2263 1.581 11.0184 2.38275C11.7964 3.18451 12.1926 4.40246 12.1926 6.03571V10.8469H12.221ZM6.47818 13.1041C6.94487 13.1041 7.4259 13.0149 7.93502 12.8368C8.44414 12.6585 8.89679 12.3318 9.27863 11.8864C9.50509 11.6042 9.6748 11.2925 9.75965 10.936C9.84451 10.5796 9.90098 10.149 9.90098 9.64421V9.02053C9.4721 8.911 9.03769 8.82679 8.5998 8.76829C8.15883 8.70938 7.71478 8.67949 7.27024 8.6788C6.32252 8.6788 5.62936 8.87188 5.16267 9.27276C4.69597 9.67394 4.46951 10.2382 4.46951 10.9805C4.46951 11.6783 4.63921 12.1981 4.99296 12.5546C5.33237 12.9257 5.82745 13.1041 6.47789 13.1041H6.47818ZM17.8362 14.7076C17.5816 14.7076 17.4119 14.6632 17.2987 14.5593C17.1858 14.4701 17.0866 14.262 17.0017 13.98L13.6778 2.50167C13.593 2.20439 13.5505 2.0116 13.5505 1.90771C13.5505 1.67018 13.6635 1.53656 13.8899 1.53656H15.276C15.5449 1.53656 15.7289 1.581 15.8278 1.6849C15.941 1.77408 16.0256 1.98218 16.1108 2.26414L18.4872 12.0942L20.6937 2.26414C20.7642 1.96686 20.8491 1.77408 20.9623 1.6849C21.0755 1.59571 21.2733 1.53656 21.5282 1.53656H22.6596C22.9285 1.53656 23.1123 1.581 23.2255 1.6849C23.3388 1.77408 23.4377 1.98218 23.4941 2.26414L25.729 12.2131L28.1763 2.26414C28.2608 1.96686 28.3597 1.77408 28.4589 1.6849C28.5721 1.59571 28.7559 1.53656 29.0107 1.53656H30.326C30.5524 1.53656 30.6797 1.65517 30.6797 1.90771C30.6797 1.98188 30.6657 2.05605 30.6513 2.14523C30.6292 2.27184 30.5961 2.39608 30.5524 2.51638L27.1437 13.9953C27.0585 14.2923 26.9596 14.4851 26.8464 14.5743C26.7335 14.6635 26.5494 14.7229 26.3089 14.7229H25.0926C24.8237 14.7229 24.6397 14.6782 24.5267 14.5743C24.4138 14.4704 24.3146 14.2773 24.2581 13.9803L22.0657 4.40276L19.8873 13.9656C19.8165 14.2626 19.7316 14.4557 19.6184 14.5596C19.5055 14.6635 19.3074 14.7079 19.0528 14.7079L17.8362 14.7076ZM36.0123 15.1088C35.2767 15.1088 34.5411 15.0196 33.8339 14.8415C33.1267 14.6632 32.5752 14.4701 32.2074 14.2473C31.9809 14.1136 31.8255 13.965 31.7688 13.8317C31.7137 13.7005 31.6849 13.559 31.6839 13.4158V12.6585C31.6839 12.3468 31.7971 12.1981 32.0093 12.1981C32.0941 12.1981 32.179 12.2131 32.2638 12.2426C32.3487 12.2726 32.476 12.3318 32.6176 12.3912C33.1172 12.6218 33.6388 12.796 34.1736 12.9107C34.7392 13.0296 35.291 13.0891 35.8566 13.0891C36.7479 13.0891 37.441 12.9257 37.9218 12.599C38.4028 12.2723 38.6574 11.7972 38.6574 11.1883C38.6574 10.7727 38.5301 10.4313 38.2755 10.149C38.021 9.86672 37.5399 9.61449 36.8468 9.37696L34.796 8.70853C33.7634 8.36711 32.9994 7.86233 32.5327 7.1939C32.066 6.54048 31.8255 5.8129 31.8255 5.04087C31.8255 4.41718 31.9528 3.86766 32.2074 3.39261C32.4619 2.91756 32.8013 2.50167 33.2259 2.17496C33.6502 1.83354 34.1309 1.581 34.6968 1.40293C35.2627 1.22456 35.8566 1.15039 36.479 1.15039C36.7903 1.15039 37.1157 1.1654 37.4267 1.20985C37.7521 1.25429 38.0491 1.31374 38.346 1.3732C38.629 1.44737 38.8979 1.52154 39.1524 1.61043C39.407 1.69991 39.6051 1.78879 39.7464 1.87798C39.9445 1.99689 40.0861 2.1155 40.171 2.24913C40.2558 2.36804 40.2982 2.5314 40.2982 2.73919V3.43735C40.2982 3.74935 40.185 3.9127 39.9729 3.9127C39.8596 3.9127 39.6759 3.85324 39.4354 3.73433C38.629 3.34847 37.7237 3.15538 36.7195 3.15538C35.9134 3.15538 35.2767 3.28901 34.8384 3.57098C34.3998 3.85324 34.1736 4.28385 34.1736 4.89283C34.1736 5.30842 34.3149 5.66456 34.5979 5.94682C34.8808 6.22909 35.404 6.51135 36.1536 6.76359L38.1623 7.43202C39.1808 7.77345 39.9161 8.2488 40.3547 8.85747C40.7933 9.46615 41.0055 10.164 41.0055 10.9363C41.0055 11.5747 40.8782 12.154 40.6377 12.6588C40.3831 13.1635 40.0437 13.6092 39.6051 13.9656C39.1665 14.3367 38.6433 14.604 38.035 14.7971C37.3986 15.0049 36.7335 15.1088 36.0123 15.1088Z" fill="white"/>
</svg>
