<svg width="30" height="29" viewBox="0 0 30 29" fill="none" xmlns="http://www.w3.org/2000/svg">
<g clip-path="url(#clip0_333_1027)">
<path d="M0.973604 8.61159e-05C0.689654 -0.00385119 0.418604 0.127396 0.233182 0.358615C0.047761 0.589846 -0.0330568 0.897379 0.0124039 1.19872L4.09271 27.8271C4.19766 28.4997 4.73671 28.9943 5.37112 28.9999H24.9461C25.4222 29.0065 25.8311 28.6373 25.9072 28.1319L29.9876 1.20389C30.0331 0.902544 29.9522 0.59501 29.7669 0.363779C29.5814 0.13256 29.3103 0.00131287 29.0264 0.00525018L0.973604 8.61159e-05ZM18.1551 19.2455H11.9073L10.2156 9.74422H19.6691L18.1551 19.2455Z" fill="#2684FF"/>
<path fill-rule="evenodd" clip-rule="evenodd" d="M28.6907 9.74438H19.6697L18.1559 19.2457H11.9081L4.53076 28.6592C4.76458 28.8765 5.0627 28.9974 5.37181 29.0002H24.9515C25.4278 29.0067 25.8366 28.6376 25.9128 28.1322L28.6907 9.74438Z" fill="url(#paint0_linear_333_1027)"/>
</g>
<defs>
<linearGradient id="paint0_linear_333_1027" x1="30.7765" y1="12.4051" x2="19.3248" y2="27.5305" gradientUnits="userSpaceOnUse">
<stop offset="0.18" stop-color="#0052CC"/>
<stop offset="1" stop-color="#2684FF"/>
</linearGradient>
<clipPath id="clip0_333_1027">
<rect width="30" height="29" fill="white"/>
</clipPath>
</defs>
</svg>
