<svg width="36" height="26" viewBox="0 0 36 26" fill="none" xmlns="http://www.w3.org/2000/svg">
<g clip-path="url(#clip0_156_1288)">
<path d="M36 22C36 23.0609 35.5786 24.0783 34.8284 24.8284C34.0783 25.5786 33.0609 26 32 26H4C2.93913 26 1.92172 25.5786 1.17157 24.8284C0.421427 24.0783 0 23.0609 0 22V4C0 2.93913 0.421427 1.92172 1.17157 1.17157C1.92172 0.421427 2.93913 0 4 0H32C33.0609 0 34.0783 0.421427 34.8284 1.17157C35.5786 1.92172 36 2.93913 36 4V22Z" fill="#009B3A"/>
<path d="M32.728 13L18 24.124L3.27197 13L18 1.875L32.728 13Z" fill="#FEDF01"/>
<path d="M17.9761 19.3821C21.5427 19.3821 24.4341 16.4907 24.4341 12.9241C24.4341 9.35741 21.5427 6.46606 17.9761 6.46606C14.4094 6.46606 11.5181 9.35741 11.5181 12.9241C11.5181 16.4907 14.4094 19.3821 17.9761 19.3821Z" fill="#002776"/>
<path d="M12.277 9.88707C11.9416 10.5191 11.7144 11.2029 11.605 11.9101C15.6 11.6201 21.022 13.8011 23.349 16.5051C23.751 15.9011 24.049 15.2251 24.232 14.5011C21.36 11.6931 16.315 9.87107 12.277 9.88707Z" fill="#CBE9D4"/>
<path d="M12 13.2329H13V14.2329H12V13.2329ZM13 15.2329H14V16.2329H13V15.2329Z" fill="#88C9F9"/>
<path d="M15 13.2329H16V14.2329H15V13.2329ZM17 14.2329H18V15.2329H17V14.2329ZM21 16.2329H22V17.2329H21V16.2329ZM18 17.2329H19V18.2329H18V17.2329ZM21 11.2329H22V12.2329H21V11.2329Z" fill="#55ACEE"/>
<path d="M19 15.2329H20V16.2329H19V15.2329Z" fill="#3B88C3"/>
</g>
<defs>
<clipPath id="clip0_156_1288">
<rect width="36" height="26" fill="white"/>
</clipPath>
</defs>
</svg>
