<svg width="25" height="26" viewBox="0 0 25 26" fill="none" xmlns="http://www.w3.org/2000/svg">
<path fill-rule="evenodd" clip-rule="evenodd" d="M3.62651 3.68528C8.49234 -1.17367 16.4022 -1.12201 21.2977 3.77357C26.1954 8.67125 26.245 16.5858 21.3798 21.451C16.5144 26.3163 8.59991 26.2667 3.70223 21.369C0.799859 18.4667 -0.398668 14.5071 0.115987 10.7523C0.188102 10.2262 0.673076 9.85818 1.19919 9.93029C1.72532 10.0024 2.09336 10.4873 2.02126 11.0135C1.58538 14.1933 2.59977 17.5469 5.06205 20.0092C9.22164 24.1689 15.9185 24.1926 20.0199 20.0912C24.1213 15.9898 24.0974 9.29299 19.9378 5.13339C15.7804 0.975918 9.08832 0.949995 4.98635 5.0451L5.94494 5.04992C6.47598 5.05259 6.9043 5.48524 6.90163 6.01628C6.89896 6.54732 6.46631 6.97564 5.93527 6.97297L2.67174 6.95657C2.14447 6.95392 1.71771 6.52714 1.71505 5.99988L1.69865 2.73634C1.69597 2.20532 2.12431 1.77266 2.65535 1.76998C3.18638 1.76732 3.61904 2.19565 3.62171 2.72669L3.62651 3.68528ZM12.4999 6.48145C13.0309 6.48145 13.4614 6.91195 13.4614 7.44298V12.173L16.3849 15.0964C16.7604 15.4719 16.7604 16.0808 16.3849 16.4562C16.0094 16.8317 15.4005 16.8317 15.0251 16.4562L11.5383 12.9695V7.44298C11.5383 6.91195 11.9688 6.48145 12.4999 6.48145Z" fill="#45B3C2"/>
</svg>
