<svg width="19" height="29" viewBox="0 0 19 29" fill="none" xmlns="http://www.w3.org/2000/svg">
<g clip-path="url(#clip0_384_326)">
<path d="M9.48815 28.9265L1.68675 26.6032L-0.0517578 5.68457H19.0514L17.3111 26.5999L9.48815 28.9265Z" fill="#264DE4"/>
<path d="M15.8213 25.2686L17.3086 7.39551H9.5V27.1487L15.8213 25.2686Z" fill="#2965F1"/>
<path d="M3.93359 15.1533L4.14794 17.7189H9.4997V15.1533H3.93359Z" fill="#EBEBEB"/>
<path d="M3.50293 9.96094L3.72033 12.5265H9.49973V9.96094H3.50293Z" fill="#EBEBEB"/>
<path d="M9.49979 21.8167L9.48931 21.8197L6.82586 21.0481L6.65559 19.002H4.25488L4.58993 23.0303L9.48879 24.4892L9.49979 24.4859V21.8167Z" fill="#EBEBEB"/>
<path d="M4.44385 0H7.34039V1.29944H5.65513V2.59889H7.34039V3.89833H4.44385V0Z" fill="white"/>
<path d="M7.91992 0H10.8165V1.12995H9.1312V1.35594H10.8165V3.95483H7.91992V2.76838H9.60519V2.54239H7.91992V0Z" fill="white"/>
<path d="M11.396 0H14.2925V1.12995H12.6073V1.35594H14.2925V3.95483H11.396V2.76838H13.0813V2.54239H11.396V0Z" fill="white"/>
<path d="M15.0508 15.1537L15.4825 9.96094H9.4917V12.5265H12.8616L12.644 15.1537H9.4917V17.7193H12.4366L12.159 21.0467L9.4917 21.819V24.4881L14.3944 23.0305L14.4304 22.597L14.9924 15.8427L15.0508 15.1537Z" fill="white"/>
</g>
<defs>
<clipPath id="clip0_384_326">
<rect width="19" height="29" fill="white"/>
</clipPath>
</defs>
</svg>
