<svg width="29" height="30" viewBox="0 0 29 30" fill="none" xmlns="http://www.w3.org/2000/svg">
<g clip-path="url(#clip0_229_238)">
<path d="M14.4976 0.691406C6.48392 0.691406 3.22682e-06 7.13954 3.22682e-06 15.1087C-0.00126773 17.0024 0.372918 18.8777 1.10116 20.6274C1.8294 22.3772 2.89742 23.9671 4.24412 25.3061C5.59082 26.6451 7.1898 27.707 8.94959 28.4311C10.7094 29.1552 12.5955 29.5272 14.5 29.526C22.5149 29.526 29 23.0778 29 15.1087C28.9988 7.13954 22.4605 0.691406 14.4976 0.691406ZM7.69709 18.2024C8.17075 18.8308 8.80392 19.0939 9.6993 19.0939C10.1222 19.0939 10.5439 19.041 10.9125 18.8836C11.2822 18.7274 11.7039 18.516 12.2295 18.2024L13.7073 20.2989C12.4954 21.2961 11.1239 21.7671 9.54221 21.7671C8.27588 21.7671 7.22221 21.5052 6.27367 20.9813C5.35283 20.4412 4.61749 19.6372 4.16392 18.6746C3.69025 17.6774 3.42563 16.524 3.42563 15.1604C3.42563 13.8508 3.69025 12.6445 4.16271 11.6485C4.61382 10.6563 5.34832 9.81777 6.27488 9.23725C7.17025 8.66056 8.27709 8.39865 9.49025 8.39865C10.3349 8.39865 11.1251 8.50317 11.7583 8.76509C12.4686 9.03848 13.1279 9.42834 13.7085 9.91847L12.232 11.9105C11.8571 11.6353 11.4502 11.4061 11.02 11.228C10.6515 11.0719 10.1766 11.019 9.75367 11.019C7.96171 11.019 7.06513 12.3814 7.06513 15.1592C7.01317 16.5769 7.27659 17.5716 7.6983 18.2012L7.69709 18.2024ZM22.1971 21.4523C21.6703 23.0778 20.8788 24.2841 19.7708 25.1744C18.6639 26.067 17.1873 26.538 15.3422 26.6954L14.9737 24.2324C16.1856 24.0738 17.0822 23.8119 17.6622 23.3914C17.8725 23.2352 18.2954 22.7631 18.2954 22.7631L13.9188 8.81795H17.5559L20.0873 19.2501L22.7771 8.81795H26.309L22.1971 21.4523Z" fill="black"/>
</g>
<defs>
<clipPath id="clip0_229_238">
<rect width="29" height="28.8346" fill="white" transform="translate(0 0.691406)"/>
</clipPath>
</defs>
</svg>
