<svg width="29" height="29" viewBox="0 0 29 29" fill="none" xmlns="http://www.w3.org/2000/svg">
<g clip-path="url(#clip0_333_1007)">
<path d="M1.14795 17.139L14.5 24.6536L26.4855 17.9474V20.6178L14.5 27.3833L1.83187 20.1816L1.14916 20.5538V21.4842L14.5 29L27.8521 21.4866V16.2702L27.2298 15.8968L14.5 23.1009L2.57741 16.2702V13.5998L14.5 20.306L27.8521 12.7926V7.63667L27.2298 7.2645L14.5 14.4686L3.19849 8.07288L14.5 1.67717L23.8767 6.95517L24.6839 6.45854V5.77462L14.5 0L1.14795 7.57625V8.44625L14.5 15.9585L26.4855 9.25221V11.983L14.5 18.7533L1.83187 11.5517L1.14916 11.9238L1.14795 17.139Z" fill="black"/>
</g>
<defs>
<clipPath id="clip0_333_1007">
<rect width="29" height="29" fill="white"/>
</clipPath>
</defs>
</svg>
