<svg width="29" height="29" viewBox="0 0 29 29" fill="none" xmlns="http://www.w3.org/2000/svg">
<g clip-path="url(#clip0_228_124)">
<path d="M24.65 0H4.35C1.94756 0 0 1.94756 0 4.35V24.65C0 27.0524 1.94756 29 4.35 29H24.65C27.0524 29 29 27.0524 29 24.65V4.35C29 1.94756 27.0524 0 24.65 0Z" fill="#113228"/>
<path d="M12.8574 5.7207H16.0293V20.2773C14.3867 20.5605 13.1973 20.7305 11.8945 20.7305C7.98633 20.7305 6.00391 18.9746 6.00391 15.6328C6.00391 12.4043 8.09961 10.3652 11.4414 10.3652C11.9512 10.3652 12.3477 10.3652 12.8574 10.4785V5.7207ZM12.8574 13.0273C12.4609 12.9141 12.1777 12.8574 11.7812 12.8574C10.1387 12.8574 9.23242 13.877 9.23242 15.5762C9.23242 17.2754 10.082 18.1816 11.7246 18.1816C12.0645 18.1816 12.3477 18.1816 12.8574 18.0684V13.0273ZM21.0703 10.5352V17.8418C21.0703 20.3906 20.9004 21.5801 20.334 22.5996C19.8242 23.6191 19.1445 24.2422 17.7285 24.9785L14.7832 23.5625C16.1992 22.9395 16.8789 22.3164 17.2754 21.4668C17.7285 20.5605 17.8984 19.541 17.8984 16.7656V10.5352H21.0703ZM17.8984 5.7207H21.0703V8.94922H17.8984V5.7207Z" fill="white"/>
</g>
<defs>
<clipPath id="clip0_228_124">
<rect width="29" height="29" fill="white"/>
</clipPath>
</defs>
</svg>
