<svg width="113" height="64" viewBox="0 0 113 64" fill="none" xmlns="http://www.w3.org/2000/svg">
<g clip-path="url(#clip0_2317_5900)">
<path fill-rule="evenodd" clip-rule="evenodd" d="M64.7666 20.2666H74.8111V30.4888H79.8777C82.1889 30.4888 84.5889 30.0444 86.8111 29.3333C87.8777 28.9777 89.1222 28.4444 90.1889 27.8222C88.7666 25.9555 88.0555 23.6444 87.8777 21.3333C87.6111 18.2222 88.2333 14.1333 90.3666 11.7333L91.4333 10.4888L92.6777 11.4666C95.8777 14.0444 98.4555 17.511 98.9889 21.5999C102.811 20.4444 107.256 20.711 110.633 22.6666L111.967 23.4666L111.256 24.8888C108.411 30.3999 102.456 32.1777 96.6777 31.8222C87.9666 53.4222 69.1222 63.6444 46.1889 63.6444C34.3666 63.6444 23.5222 59.1999 17.3 48.711L17.2111 48.5333L16.3222 46.6666C14.1889 42.0444 13.5666 36.9777 14.0111 31.911L14.1889 30.3999H22.7222V20.2666H32.7666V10.311H52.7666V0.266602H64.7666V20.2666Z" fill="#3A4D54"/>
<path d="M97.3 24.0889C98.0111 18.8445 94.1 14.7556 91.6111 12.8C88.8555 16 88.4111 24.5334 92.7667 28.0889C90.2778 30.2223 85.2111 32.2667 79.8778 32.2667H15.7C15.1667 37.7778 16.1444 42.8445 18.3667 47.2L19.0778 48.5334C19.5222 49.3334 20.0555 50.0445 20.5889 50.8445C23.2555 51.0223 25.6555 51.1112 27.8778 51.0223C32.2333 50.9334 35.7889 50.4 38.5444 49.5112C38.9889 49.3334 39.3444 49.6 39.5222 49.9556C39.7 50.4 39.4333 50.7556 39.0778 50.9334C38.7222 51.0223 38.3667 51.2 37.9222 51.2889C35.7889 51.9112 33.4778 52.2667 30.5444 52.4445H30.0111C28.8555 52.5334 27.6111 52.5334 26.2778 52.5334C24.8555 52.5334 23.5222 52.5334 21.9222 52.4445C27.2555 58.4889 35.6111 62.0445 46.1 62.0445C68.3222 62.0445 87.1666 52.1778 95.4333 30.1334C101.389 30.7556 107.078 29.2445 109.656 24.1778C105.656 21.7778 100.322 22.5778 97.3 24.0889Z" fill="#00AADA"/>
<path d="M97.3 24.0889C98.0111 18.8445 94.1 14.7556 91.6111 12.8C88.8556 16 88.4111 24.5334 92.7667 28.0889C90.2778 30.2223 85.2111 32.2667 79.8778 32.2667H19.4333C19.1667 40.7112 22.2778 47.1112 27.8778 50.9334C32.2333 50.8445 35.7889 50.3112 38.5444 49.4223C38.9889 49.2445 39.3444 49.5112 39.5222 49.8667C39.7 50.3112 39.4333 50.6667 39.0778 50.8445C38.7222 50.9334 38.3667 51.1112 37.9222 51.2C35.7889 51.8223 33.3 52.2667 30.3667 52.4445L30.2778 52.3556C37.8333 56.2667 48.7667 56.1778 61.3889 51.3778C75.4333 45.9556 88.5889 35.6445 97.7444 23.9112C97.5667 24 97.3889 24 97.3 24.0889Z" fill="#28B8EB"/>
<path d="M15.7889 38.9333C16.1444 41.8667 17.0333 44.6222 18.3667 47.2L19.0778 48.5333C19.5222 49.3333 20.0555 50.0445 20.5889 50.8445C23.2555 51.0222 25.6555 51.1111 27.8778 51.0222C32.2333 50.9333 35.7889 50.4 38.5444 49.5111C38.9889 49.3333 39.3444 49.6 39.5222 49.9556C39.7 50.4 39.4333 50.7556 39.0778 50.9333C38.7222 51.0222 38.3667 51.2 37.9222 51.2889C35.7889 51.9111 33.3 52.3556 30.3667 52.5333H30.0111C28.8555 52.6222 27.6111 52.6222 26.3667 52.6222C24.9444 52.6222 23.5222 52.6222 22.0111 52.5333C27.3444 58.5778 35.7889 62.1333 46.2778 62.1333C65.3 62.1333 81.8333 54.9333 91.4333 39.0222H15.7889V38.9333Z" fill="#028BB8"/>
<path d="M20.0555 38.9333C21.2111 44.0889 23.8778 48.1778 27.8778 50.9333C32.2333 50.8445 35.7889 50.3111 38.5444 49.4222C38.9889 49.2445 39.3444 49.5111 39.5222 49.8667C39.7 50.3111 39.4333 50.6667 39.0778 50.8445C38.7222 50.9333 38.3667 51.1111 37.9222 51.2C35.7889 51.8222 33.3 52.2667 30.2778 52.4445C37.8333 56.3556 48.7667 56.2667 61.3 51.4667C68.8555 48.5333 76.2333 44.1778 82.8111 38.9333H20.0555Z" fill="#019BC6"/>
<path fill-rule="evenodd" clip-rule="evenodd" d="M24.4111 21.9556H33.1222V30.6667H24.4111V21.9556ZM25.1222 22.6667H25.8333V29.8667H25.1222V22.6667ZM26.3667 22.6667H27.0778V29.8667H26.3667V22.6667ZM27.7 22.6667H28.4111V29.8667H27.7V22.6667ZM29.0333 22.6667H29.7444V29.8667H29.0333V22.6667ZM30.3667 22.6667H31.0778V29.8667H30.3667V22.6667ZM31.7 22.6667H32.4111V29.8667H31.7V22.6667ZM34.3667 12H43.0778V20.7111H34.3667V12ZM35.1667 12.7111H35.8778V19.9111H35.1667V12.7111ZM36.4111 12.7111H37.1222V19.9111H36.4111V12.7111ZM37.7444 12.7111H38.4555V19.9111H37.7444V12.7111ZM39.0778 12.7111H39.7889V19.9111H39.0778V12.7111ZM40.3222 12.7111H41.0333V19.9111H40.3222V12.7111ZM41.6555 12.7111H42.3667V19.9111H41.6555V12.7111Z" fill="#00ACD3"/>
<path fill-rule="evenodd" clip-rule="evenodd" d="M34.3667 21.9556H43.0778V30.6667H34.3667V21.9556ZM35.1667 22.6667H35.8778V29.8667H35.1667V22.6667ZM36.4111 22.6667H37.1222V29.8667H36.4111V22.6667ZM37.7444 22.6667H38.4556V29.8667H37.7444V22.6667ZM39.0778 22.6667H39.7889V29.8667H39.0778V22.6667ZM40.3222 22.6667H41.0333V29.8667H40.3222V22.6667ZM41.6556 22.6667H42.3667V29.8667H41.6556V22.6667Z" fill="#23C2EE"/>
<path fill-rule="evenodd" clip-rule="evenodd" d="M44.4111 21.9556H53.1222V30.6667H44.4111V21.9556ZM45.1222 22.6667H45.8333V29.8667H45.1222V22.6667ZM46.4555 22.6667H47.1667V29.8667H46.4555V22.6667ZM47.7889 22.6667H48.5V29.8667H47.7889V22.6667ZM49.0333 22.6667H49.7444V29.8667H49.0333V22.6667ZM50.3667 22.6667H51.0778V29.8667H50.3667V22.6667ZM51.7 22.6667H52.4111V29.8667H51.7V22.6667Z" fill="#00ACD3"/>
<path fill-rule="evenodd" clip-rule="evenodd" d="M44.4111 12H53.1222V20.7111H44.4111V12ZM45.1222 12.7111H45.8333V19.9111H45.1222V12.7111ZM46.4555 12.7111H47.1667V19.9111H46.4555V12.7111ZM47.7889 12.7111H48.5V19.9111H47.7889V12.7111ZM49.0333 12.7111H49.7444V19.9111H49.0333V12.7111ZM50.3667 12.7111H51.0778V19.9111H50.3667V12.7111ZM51.7 12.7111H52.4111V19.9111H51.7V12.7111ZM54.4555 21.9556H63.1667V30.6667H54.4555V21.9556ZM55.1667 22.6667H55.8778V29.8667H55.1667V22.6667ZM56.5 22.6667H57.2111V29.8667H56.5V22.6667ZM57.7444 22.6667H58.4555V29.8667H57.7444V22.6667ZM59.0778 22.6667H59.7889V29.8667H59.0778V22.6667ZM60.4111 22.6667H61.1222V29.8667H60.4111V22.6667ZM61.7444 22.6667H62.4555V29.8667H61.7444V22.6667Z" fill="#23C2EE"/>
<path fill-rule="evenodd" clip-rule="evenodd" d="M54.4556 12H63.1667V20.7111H54.4556V12ZM55.1667 12.7111H55.8778V19.9111H55.1667V12.7111ZM56.5 12.7111H57.2111V19.9111H56.5V12.7111ZM57.7445 12.7111H58.4556V19.9111H57.7445V12.7111ZM59.0778 12.7111H59.7889V19.9111H59.0778V12.7111ZM60.4111 12.7111H61.1222V19.9111H60.4111V12.7111ZM61.7445 12.7111H62.4556V19.9111H61.7445V12.7111Z" fill="#00ACD3"/>
<path fill-rule="evenodd" clip-rule="evenodd" d="M54.4556 1.95557H63.1667V10.6667H54.4556V1.95557ZM55.1667 2.66668H55.8778V9.86667H55.1667V2.66668ZM56.5 2.66668H57.2111V9.86667H56.5V2.66668ZM57.7445 2.66668H58.4556V9.86667H57.7445V2.66668ZM59.0778 2.66668H59.7889V9.86667H59.0778V2.66668ZM60.4111 2.66668H61.1222V9.86667H60.4111V2.66668ZM61.7445 2.66668H62.4556V9.86667H61.7445V2.66668Z" fill="#23C2EE"/>
<path fill-rule="evenodd" clip-rule="evenodd" d="M64.5 21.9556H73.2111V30.6667H64.5V21.9556ZM65.2111 22.6667H65.9222V29.8667H65.2111V22.6667ZM66.4556 22.6667H67.1667V29.8667H66.4556V22.6667ZM67.7889 22.6667H68.5V29.8667H67.7889V22.6667ZM69.1222 22.6667H69.8333V29.8667H69.1222V22.6667ZM70.4556 22.6667H71.1667V29.8667H70.4556V22.6667ZM71.7889 22.6667H72.5V29.8667H71.7889V22.6667Z" fill="#00ACD3"/>
<path fill-rule="evenodd" clip-rule="evenodd" d="M42.5444 44.7112C43.8778 44.7112 44.9444 45.7778 44.9444 47.1112C44.9444 48.4445 43.8778 49.5112 42.5444 49.5112C41.2111 49.5112 40.1444 48.4445 40.1444 47.1112C40.1444 45.7778 41.2111 44.7112 42.5444 44.7112Z" fill="#D4EEF1"/>
<path fill-rule="evenodd" clip-rule="evenodd" d="M42.5444 45.4222C42.7222 45.4222 42.9889 45.4222 43.1667 45.5111C42.9889 45.5999 42.8111 45.8666 42.8111 46.1333C42.8111 46.4888 43.1667 46.8444 43.5222 46.8444C43.7889 46.8444 44.0555 46.6666 44.1444 46.4888C44.2333 46.6666 44.2333 46.9333 44.2333 47.1111C44.2333 48.0888 43.4333 48.8 42.5444 48.8C41.5667 48.8 40.8556 48 40.8556 47.1111C40.8556 46.2222 41.5667 45.4222 42.5444 45.4222ZM0.14444 39.8222H111.611C109.211 39.2 103.967 38.4 104.767 35.2C100.322 40.2666 89.7444 38.7555 86.9889 36.2666C83.9667 40.6222 66.5444 38.9333 65.3889 35.5555C61.6556 40 50.0111 40 46.2778 35.5555C45.0333 38.9333 27.6111 40.6222 24.6778 36.2666C22.0111 38.7555 11.3444 40.2666 6.9 35.2C7.87777 38.3111 2.54444 39.2 0.14444 39.8222Z" fill="#3A4D54"/>
<path d="M48.9444 62.0444C42.9889 59.2 39.7889 55.3777 37.9222 51.2C35.7 51.8222 33.0333 52.2666 30.0111 52.4444C28.8555 52.5333 27.6111 52.5333 26.3666 52.5333C24.8555 52.5333 23.3444 52.5333 21.7444 52.4444C27.0777 57.7777 33.8333 61.9555 46.1889 62.0444H48.9444Z" fill="#BFDBE0"/>
<path d="M40.1444 55.0222C39.3444 53.8666 38.5444 52.5333 37.9222 51.2C35.7 51.8222 33.0333 52.2666 30.0111 52.4444C32.0556 53.5111 35.0778 54.5777 40.1444 55.0222Z" fill="#D4EEF1"/>
</g>
<defs>
<clipPath id="clip0_2317_5900">
<rect width="112.889" height="64" fill="white" transform="translate(0.055542)"/>
</clipPath>
</defs>
</svg>
