<svg width="36" height="26" viewBox="0 0 36 26" fill="none" xmlns="http://www.w3.org/2000/svg">
<g clip-path="url(#clip0_115_639)">
<g clip-path="url(#clip1_115_639)">
<g clip-path="url(#clip2_115_639)">
<path d="M14.625 3.99457V5.99184H35.9803C35.9505 5.34775 35.8864 4.53348 35.6569 3.99457" fill="#EC1C24"/>
<path d="M34.65 1.99725H14.625V3.99453H35.6569C35.4285 3.24939 35.0887 2.56984 34.65 1.99725Z" fill="#E6E7E8"/>
<path d="M30.375 0H14.625V1.99727H34.65C33.7112 0.762273 32.166 0 30.375 0Z" fill="#EC1C24"/>
<path d="M35.9803 5.99182H14.625V7.98909H36V6.65778C36 6.539 35.9927 6.42319 35.9893 6.30678C35.9871 6.27487 35.9837 6.19273 35.9803 5.99182Z" fill="#E6E7E8"/>
<path d="M14.625 9.98635H36V7.98907H14.625V9.98635Z" fill="#EC1C24"/>
<path d="M14.625 11.9837H36V9.98639H14.625V11.9837Z" fill="#E6E7E8"/>
<path d="M14.625 11.9836H36V13.9809H14.625V11.9836Z" fill="#EC1C24"/>
<path d="M0 13.9809V15.9782H36V13.9809H14.625H0Z" fill="#E6E7E8"/>
<path d="M0 15.9782H36V17.9755H0V15.9782Z" fill="#EC1C24"/>
<path d="M0.0028125 19.204C0.0028125 19.204 -0.00225 19.6879 0.01125 19.9727H35.9888C36.0045 19.6808 35.9972 19.204 35.9972 19.204L36 17.9755H0L0.0028125 19.204Z" fill="#E6E7E8"/>
<path d="M5.62498 26H30.375C32.171 26 33.6639 25.3146 34.6837 23.9673H1.31061C2.36361 25.3441 3.88461 26 5.62217 26" fill="#EC1C24"/>
<path d="M1.31346 23.9672H34.6866C35.1315 23.3734 35.4637 22.6954 35.6653 21.97H0.340332C0.545699 22.6932 0.876571 23.3704 1.31627 23.9672" fill="#E6E7E8"/>
<path d="M0.33748 21.97H35.6625C35.8467 21.3203 35.9562 20.6498 35.9887 19.9727H0.0112305C0.066918 20.6558 0.118668 21.1717 0.33748 21.97Z" fill="#EC1C24"/>
<path d="M14.625 0H5.625C1.89731 0 0 2.91023 0 6.5V13.9809H14.625V0Z" fill="#176496"/>
<path d="M1.57385 3.53125L1.87985 3.28425L2.18529 3.53125L2.0666 3.13416L2.37091 2.89129H1.99516L1.87872 2.49243L1.76285 2.89129H1.38766L1.6931 3.13416L1.57385 3.53125ZM3.59547 3.53125L3.90147 3.28425L4.20691 3.53125L4.08879 3.13416L4.39254 2.89129H4.01735L3.90091 2.49243L3.78504 2.89129H3.40872L3.71416 3.13416L3.59547 3.53125ZM5.82579 3.53125L6.13122 3.28425L6.43722 3.53125L6.31854 3.13416L6.62229 2.89129H6.24935L6.13122 2.49243L6.01479 2.89129H5.64185L5.94391 3.13416L5.82579 3.53125ZM8.03979 3.53125L8.34522 3.28425L8.65122 3.53125L8.5331 3.13416L8.83685 2.89129H8.45997L8.34522 2.49243L8.22935 2.89129H7.8536L8.15847 3.13416L8.03979 3.53125ZM10.2617 3.53125L10.5677 3.28425L10.8731 3.53125L10.755 3.13416L11.0593 2.89129H10.683L10.5671 2.49243L10.4512 2.89129H10.076L10.3798 3.13416L10.2617 3.53125ZM2.64991 4.5683L2.95535 4.32189L3.26079 4.5683L3.14322 4.17179L3.44697 3.92893H3.07122L2.95479 3.53066L2.8406 3.92893H2.46372L2.76804 4.17179L2.64991 4.5683ZM4.6721 4.5683L4.97754 4.32189L5.28297 4.5683L5.16485 4.17179L5.4686 3.92893H5.0906L4.97754 3.53066L4.8611 3.92893H4.48591L4.79022 4.17179L4.6721 4.5683ZM6.90241 4.5683L7.20729 4.32189L7.51272 4.5683L7.3946 4.17179L7.69891 3.92893H7.32372L7.20729 3.53066L7.09085 3.92893H6.7151L7.01941 4.17179L6.90241 4.5683ZM9.11529 4.5683L9.42129 4.32189L9.72729 4.5683L9.60747 4.17179L9.91235 3.92893H9.53716L9.42072 3.53066L9.30541 3.92893H8.92966L9.23397 4.17179L9.11529 4.5683ZM11.34 4.5683L11.6432 4.32189L11.9486 4.5683L11.8293 4.17179L12.1342 3.92893H11.7596L11.6426 3.53066L11.5273 3.92893H11.1515L11.4558 4.17179L11.34 4.5683ZM12.5927 3.53125L12.8981 3.28425L13.2041 3.53125L13.0854 3.13416L13.3892 2.89129H13.0162L12.8975 2.49243L12.7817 2.89129H12.4031L12.7108 3.13416L12.5927 3.53125ZM1.54404 11.83L1.85004 11.5859L2.15547 11.83L2.03735 11.4364L2.3411 11.193L1.96591 11.1942L1.84891 10.7959L1.73416 11.1942L1.35785 11.193L1.66216 11.4364L1.54404 11.83ZM3.56622 11.83L3.87166 11.5859L4.17766 11.83L4.05897 11.4364L4.36272 11.193L3.9881 11.1942L3.8711 10.7959L3.75579 11.1942L3.3806 11.193L3.68435 11.4364L3.56622 11.83ZM5.79654 11.83L6.10197 11.5859L6.40797 11.83L6.28929 11.4364L6.59304 11.193L6.2156 11.1942L6.10141 10.7959L5.98554 11.1942L5.61035 11.193L5.91466 11.4364L5.79654 11.83ZM8.01054 11.83L8.31597 11.5859L8.62141 11.83L8.50497 11.4364L8.80704 11.193L8.43129 11.1942L8.31541 10.7959L8.19954 11.1942L7.82435 11.193L8.1281 11.4364L8.01054 11.83ZM10.2318 11.83L10.5378 11.5859L10.8438 11.83L10.7268 11.4364L11.0289 11.193L10.6537 11.1942L10.5373 10.7959L10.422 11.1942L10.0462 11.193L10.35 11.4364L10.2318 11.83ZM12.5628 11.83L12.8683 11.5859L13.1743 11.83L13.0556 11.4364L13.3599 11.193L12.9825 11.1942L12.8677 10.7959L12.7518 11.1942L12.375 11.193L12.681 11.4364L12.5628 11.83ZM1.57385 5.60652L1.87985 5.35952L2.18529 5.60652L2.0666 5.20943L2.37091 4.96657L1.99516 4.96775L1.87872 4.5683L1.76285 4.96775L1.38766 4.96657L1.6931 5.20943L1.57385 5.60652ZM3.59547 5.60652L3.90147 5.35952L4.20691 5.60652L4.08879 5.20943L4.39254 4.96657L4.01735 4.96775L3.90091 4.5683L3.78504 4.96775L3.40872 4.96657L3.71416 5.20943L3.59547 5.60652ZM5.82579 5.60652L6.13122 5.35952L6.43722 5.60652L6.31854 5.20943L6.62229 4.96657L6.24935 4.96775L6.13122 4.5683L6.01479 4.96775L5.64185 4.96657L5.94391 5.20943L5.82579 5.60652ZM8.03979 5.60652L8.34522 5.35952L8.65122 5.60652L8.5331 5.20943L8.83685 4.96657L8.45997 4.96775L8.34522 4.5683L8.22935 4.96775L7.8536 4.96657L8.15847 5.20943L8.03979 5.60652ZM10.2617 5.60652L10.5677 5.35952L10.8731 5.60652L10.755 5.20943L11.0593 4.96657L10.683 4.96775L10.5671 4.5683L10.4512 4.96775L10.076 4.96657L10.3798 5.20943L10.2617 5.60652ZM2.64991 6.64416L2.95535 6.39775L3.26079 6.64416L3.14322 6.24766L3.44697 6.00361H3.07122L2.95479 5.60652L2.8406 6.00361H2.46372L2.76804 6.24766L2.64991 6.64416ZM4.6721 6.64416L4.97754 6.39775L5.28297 6.64416L5.16485 6.24766L5.4686 6.00361H5.0906L4.97754 5.60652L4.8611 6.00361H4.48591L4.79022 6.24766L4.6721 6.64416ZM6.90241 6.64416L7.20729 6.39775L7.51272 6.64416L7.3946 6.24766L7.69891 6.00361H7.32372L7.20729 5.60652L7.09085 6.00361H6.7151L7.01941 6.24766L6.90241 6.64416ZM9.11529 6.64416L9.42129 6.39775L9.72729 6.64416L9.60747 6.24766L9.91235 6.00361H9.53716L9.42072 5.60652L9.30541 6.00361H8.92966L9.23397 6.24766L9.11529 6.64416ZM11.34 6.64416L11.6432 6.39775L11.9486 6.64416L11.8293 6.24766L12.1342 6.00361H11.7596L11.6426 5.60652L11.5273 6.00361H11.1515L11.4558 6.24766L11.34 6.64416ZM12.5927 5.60652L12.8981 5.35952L13.2041 5.60652L13.0854 5.20943L13.3892 4.96657L13.0162 4.96775L12.8975 4.5683L12.7817 4.96775L12.4031 4.96657L12.7108 5.20943L12.5927 5.60652ZM1.54404 7.68179L1.85004 7.43539L2.15547 7.68179L2.03679 7.28589L2.3411 7.04243L1.96535 7.04361L1.84891 6.64416L1.73416 7.04361L1.35785 7.04243L1.66216 7.28589L1.54404 7.68179ZM3.56622 7.68179L3.87166 7.43539L4.17766 7.68179L4.05897 7.28589L4.36272 7.04243L3.9881 7.04361L3.8711 6.64416L3.75579 7.04361L3.3806 7.04243L3.68379 7.28589L3.56622 7.68179ZM5.79654 7.68179L6.10197 7.43539L6.40741 7.68179L6.28929 7.28589L6.59304 7.04243L6.2156 7.04361L6.10141 6.64416L5.98554 7.04361L5.61035 7.04243L5.91466 7.28589L5.79654 7.68179ZM8.01054 7.68179L8.31541 7.43539L8.62141 7.68179L8.50497 7.28589L8.80704 7.04243L8.43129 7.04361L8.31541 6.64416L8.19954 7.04361L7.82435 7.04243L8.1281 7.28589L8.01054 7.68179ZM10.2318 7.68179L10.5378 7.43539L10.8433 7.68179L10.7268 7.28589L11.0289 7.04243L10.6532 7.04361L10.5373 6.64416L10.422 7.04361L10.0462 7.04243L10.35 7.28589L10.2318 7.68179ZM2.6201 8.71943L2.92554 8.47361L3.23097 8.71943L3.11341 8.32589L3.4166 8.08125H3.04085L2.92497 7.68179L2.80966 8.08125H2.43391L2.73822 8.32589L2.6201 8.71943ZM4.64229 8.71943L4.94772 8.47361L5.25316 8.71943L5.13504 8.32589L5.43879 8.08125H5.06247L4.94716 7.68179L4.83129 8.08125H4.45554L4.76041 8.32589L4.64229 8.71943ZM6.87316 8.71943L7.17747 8.47361L7.48347 8.71943L7.3631 8.32589L7.6691 8.08125H7.29391L7.17747 7.68179L7.0616 8.08125H6.68585L6.99016 8.32589L6.87316 8.71943ZM9.08435 8.71943L9.39147 8.47361L9.69747 8.71943L9.57935 8.32589L9.88254 8.08125H9.50735L9.39091 7.68179L9.2756 8.08125H8.89985L9.20416 8.32589L9.08435 8.71943ZM11.3062 8.71943L11.6133 8.47361L11.9193 8.71943L11.8007 8.32589L12.1055 8.08125H11.7303L11.6133 7.68179L11.4975 8.08125H11.1217L11.426 8.32589L11.3062 8.71943ZM12.5628 7.68179L12.8683 7.43539L13.1737 7.68179L13.0556 7.28589L13.3599 7.04243L12.9825 7.04361L12.8677 6.64416L12.7518 7.04361L12.375 7.04243L12.681 7.28589L12.5628 7.68179ZM1.54404 9.75766L1.85004 9.51361L2.15547 9.75766L2.03679 9.36116L2.3411 9.1177L1.96535 9.11889L1.84891 8.71943L1.73416 9.11889L1.35785 9.1177L1.66216 9.36116L1.54404 9.75766ZM3.56622 9.75766L3.87166 9.51361L4.17766 9.75766L4.05897 9.36116L4.36272 9.1177L3.9881 9.11889L3.8711 8.71943L3.75579 9.11889L3.3806 9.1177L3.68379 9.36116L3.56622 9.75766ZM5.79654 9.75766L6.10197 9.51361L6.40741 9.75766L6.28929 9.36116L6.59304 9.1177L6.2156 9.11889L6.10141 8.71943L5.98554 9.11889L5.61035 9.1177L5.91466 9.36116L5.79654 9.75766ZM8.01054 9.75766L8.31541 9.51361L8.62141 9.75766L8.50497 9.36116L8.80704 9.1177L8.43129 9.11889L8.31541 8.71943L8.19954 9.11889L7.82435 9.1177L8.1281 9.36116L8.01054 9.75766ZM10.2318 9.75766L10.5378 9.51361L10.8433 9.75766L10.7268 9.36116L11.0289 9.1177L10.6532 9.11889L10.5373 8.71943L10.422 9.11889L10.0462 9.1177L10.35 9.36116L10.2318 9.75766ZM2.6201 10.7959L2.92554 10.5489L3.23097 10.7959L3.11341 10.3988L3.4166 10.1577H3.04085L2.92497 9.75766L2.80966 10.1577H2.43391L2.73822 10.3988L2.6201 10.7959ZM4.64229 10.7959L4.94772 10.5489L5.25316 10.7959L5.13504 10.3988L5.43879 10.1577H5.06247L4.94716 9.75766L4.83129 10.1577H4.45554L4.76041 10.3988L4.64229 10.7959ZM6.87316 10.7959L7.17747 10.5489L7.48347 10.7959L7.3631 10.3988L7.6691 10.1577H7.29391L7.17747 9.75766L7.0616 10.1577H6.68585L6.99016 10.3988L6.87316 10.7959ZM9.08435 10.7959L9.39147 10.5489L9.69747 10.7959L9.57935 10.3988L9.88254 10.1577H9.50735L9.39091 9.75766L9.2756 10.1577H8.89985L9.20416 10.3988L9.08435 10.7959ZM11.3062 10.7959L11.6133 10.5489L11.9193 10.7959L11.8007 10.3988L12.1055 10.1577H11.7303L11.6133 9.75766L11.4975 10.1577H11.1217L11.426 10.3988L11.3062 10.7959ZM12.5628 9.75766L12.8683 9.51361L13.1737 9.75766L13.0556 9.36116L13.3599 9.1177L12.9825 9.11889L12.8677 8.71943L12.7518 9.11889L12.375 9.1177L12.681 9.36116L12.5628 9.75766Z" fill="white"/>
</g>
</g>
</g>
<defs>
<clipPath id="clip0_115_639">
<rect width="36" height="26" fill="white"/>
</clipPath>
<clipPath id="clip1_115_639">
<rect width="36" height="26" fill="white"/>
</clipPath>
<clipPath id="clip2_115_639">
<rect width="36" height="26" fill="white"/>
</clipPath>
</defs>
</svg>
