<svg width="31" height="29" viewBox="0 0 31 29" fill="none" xmlns="http://www.w3.org/2000/svg">
<g clip-path="url(#clip0_333_1196)">
<path d="M19.4644 13.7751L7.20947 11.6001V27.6717C7.20962 27.8463 7.2439 28.0191 7.31035 28.1804C7.37681 28.3416 7.47414 28.4881 7.59679 28.6115C7.71944 28.7348 7.86501 28.8326 8.02518 28.8993C8.18535 28.966 8.35699 29.0002 8.53029 29.0001H29.6767C29.8502 29.0005 30.0221 28.9665 30.1825 28.9C30.3429 28.8334 30.4888 28.7356 30.6117 28.6123C30.7345 28.4889 30.8321 28.3423 30.8987 28.1809C30.9653 28.0195 30.9996 27.8465 30.9998 27.6717V21.7501L19.4644 13.7751Z" fill="#185C37"/>
<path d="M19.4644 4.68298e-07H8.53029C8.35699 -0.000146068 8.18535 0.0340983 8.02518 0.100779C7.86501 0.167459 7.71944 0.265269 7.59679 0.388625C7.47414 0.51198 7.37681 0.658465 7.31035 0.819716C7.2439 0.980967 7.20962 1.15383 7.20947 1.32842V7.25L19.4644 14.5L25.9534 16.675L30.9998 14.5V7.25L19.4644 4.68298e-07Z" fill="#21A366"/>
<path d="M7.20947 7.25H19.4644V14.5H7.20947V7.25Z" fill="#107C41"/>
<path opacity="0.1" d="M15.9803 5.7998H7.20947V23.9248H15.9803C16.3297 23.9231 16.6645 23.7826 16.9119 23.534C17.1594 23.2853 17.2996 22.9485 17.3022 22.5964V7.12823C17.2996 6.77614 17.1594 6.43928 16.9119 6.19062C16.6645 5.94197 16.3297 5.80156 15.9803 5.7998Z" fill="black"/>
<path opacity="0.2" d="M15.2595 6.5249H7.20947V24.6499H15.2595C15.609 24.6482 15.9437 24.5077 16.1912 24.2591C16.4386 24.0104 16.5788 23.6736 16.5814 23.3215V7.85333C16.5788 7.50124 16.4386 7.16438 16.1912 6.91572C15.9437 6.66707 15.609 6.52665 15.2595 6.5249Z" fill="black"/>
<path opacity="0.2" d="M15.2595 6.5249H7.20947V23.1999H15.2595C15.609 23.1982 15.9437 23.0577 16.1912 22.8091C16.4386 22.5604 16.5788 22.2236 16.5814 21.8715V7.85333C16.5788 7.50124 16.4386 7.16438 16.1912 6.91572C15.9437 6.66707 15.609 6.52665 15.2595 6.5249Z" fill="black"/>
<path opacity="0.2" d="M14.5388 6.5249H7.20947V23.1999H14.5388C14.8882 23.1982 15.223 23.0577 15.4704 22.8091C15.7179 22.5604 15.8581 22.2236 15.8607 21.8715V7.85333C15.8581 7.50124 15.7179 7.16438 15.4704 6.91572C15.223 6.66707 14.8882 6.52665 14.5388 6.5249Z" fill="black"/>
<path d="M1.32193 6.5249H14.539C14.8891 6.52461 15.225 6.66436 15.4729 6.91346C15.7208 7.16256 15.8603 7.50061 15.8609 7.85333V21.1465C15.8603 21.4992 15.7208 21.8373 15.4729 22.0863C15.225 22.3354 14.8891 22.4752 14.539 22.4749H1.32193C1.14853 22.4752 0.97677 22.4411 0.816472 22.3744C0.656173 22.3078 0.510476 22.21 0.387709 22.0867C0.264943 21.9633 0.167512 21.8168 0.100987 21.6554C0.0344612 21.4941 0.000145226 21.3212 0 21.1465V7.85333C0.000145226 7.67864 0.0344612 7.50569 0.100987 7.34436C0.167512 7.18304 0.264943 7.0365 0.387709 6.91313C0.510476 6.78976 0.656173 6.69198 0.816472 6.62536C0.97677 6.55875 1.14853 6.52461 1.32193 6.5249Z" fill="url(#paint0_linear_333_1196)"/>
<path d="M4.09619 18.8199L6.87623 14.4878L4.3298 10.1802H6.37469L7.76416 12.9385C7.89258 13.1995 7.98559 13.3936 8.02766 13.523H8.04648C8.13726 13.3133 8.23358 13.1114 8.33433 12.914L9.82012 10.1846H11.7023L9.09051 14.4677L11.7687 18.8233H9.76587L8.16051 15.7995C8.08597 15.6695 8.02263 15.5333 7.97119 15.3924H7.94462C7.89781 15.5297 7.83539 15.661 7.75862 15.7839L6.10566 18.8199H4.09619Z" fill="white"/>
<path d="M29.6782 1.8724e-06H19.4648V7.25H31.0002V1.32842C31 1.15373 30.9657 0.980783 30.8992 0.819459C30.8327 0.658136 30.7352 0.511601 30.6125 0.388231C30.4897 0.264861 30.344 0.167074 30.1837 0.10046C30.0234 0.033845 29.8516 -0.000291295 29.6782 1.8724e-06Z" fill="#33C481"/>
<path d="M19.4648 14.5H31.0002V21.75H19.4648V14.5Z" fill="#107C41"/>
</g>
<defs>
<linearGradient id="paint0_linear_333_1196" x1="2.76121" y1="5.4809" x2="13.2151" y2="23.4518" gradientUnits="userSpaceOnUse">
<stop stop-color="#18884F"/>
<stop offset="0.5" stop-color="#117E43"/>
<stop offset="1" stop-color="#0B6631"/>
</linearGradient>
<clipPath id="clip0_333_1196">
<rect width="31" height="29" fill="white"/>
</clipPath>
</defs>
</svg>
