<svg width="85" height="48" viewBox="0 0 85 48" fill="none" xmlns="http://www.w3.org/2000/svg">
<path d="M83.1508 46.3393C80.193 47.0918 78.3638 46.3718 76.7227 43.9069C73.0384 38.3869 68.9713 33.1199 65.047 27.7555C64.5411 27.0615 64.0157 26.3804 63.3605 25.5177C58.7162 31.7836 54.0784 37.7512 49.7259 43.9588C48.1692 46.1772 46.5346 47.1437 43.6286 46.3588L61.0903 22.9231L44.8351 1.7577C47.6308 1.21284 49.5638 1.49176 51.2762 3.99554C55.0578 9.52203 59.2286 14.7826 63.3865 20.348C67.5703 14.802 71.6892 9.535 75.5811 4.0604C77.1443 1.84203 78.8243 0.998784 81.633 1.81608C79.5054 4.6377 77.4232 7.41392 75.3281 10.1707C72.5 13.8874 69.7238 17.6496 66.7919 21.2885C65.7475 22.5858 65.9162 23.4291 66.8503 24.655C72.273 31.7836 77.6308 38.9837 83.1508 46.3393ZM1.84917 22.5339C2.3162 20.1923 2.62755 17.8053 3.2762 15.5091C7.16809 1.60851 23.1248 -4.17095 34.087 4.44311C40.5086 9.49608 42.1043 16.6182 41.7865 24.6485H5.59187C5.04701 39.055 15.4189 47.7534 28.6384 43.3166C33.2762 41.7599 36.007 38.1274 37.3757 33.5869C38.0697 31.3101 39.2178 30.9534 41.3584 31.602C40.2621 37.2842 37.7778 42.0323 32.5886 45.0031C24.8048 49.4528 13.6935 48.0128 7.84917 41.8312C4.39836 38.1988 2.93241 33.6777 2.28377 28.7934C2.18647 28.015 1.98539 27.2496 1.82971 26.4777C1.84268 25.1631 1.84917 23.8485 1.84917 22.5339ZM5.65674 21.5674H38.3681C38.154 11.1501 31.6676 3.74905 22.8005 3.68419C13.0708 3.60635 6.07836 10.8323 5.65674 21.5674Z" fill="white"/>
</svg>
