<svg width="49" height="14" viewBox="0 0 49 14" fill="none" xmlns="http://www.w3.org/2000/svg">
<g clip-path="url(#clip0_228_116)">
<path d="M0.318907 10.9263V5.53031H7.12756V5.21476H0.318907V0.292116H7.55809V-0.0234375H0V11.2418H7.62187V10.9263H0.318907ZM13.7608 3.1321L10.9385 6.8083L8.17995 3.1321H7.76538L10.7472 7.04497L7.47836 11.2418H7.86105L10.9385 7.28164L14.0319 11.2418H14.4305L11.1458 7.04497L14.1435 3.1321H13.7608ZM15.3872 14.0187V8.96985H15.4191C15.6105 9.70614 15.9878 10.2978 16.5513 10.7448C17.1147 11.1919 17.8322 11.4154 18.7039 11.4154C19.2673 11.4154 19.7669 11.3023 20.2027 11.0762C20.6386 10.85 21.0027 10.5424 21.295 10.1532C21.5873 9.76399 21.8106 9.3117 21.9647 8.79629C22.1188 8.28089 22.1959 7.73919 22.1959 7.17119C22.1959 6.56112 22.1162 5.99839 21.9567 5.48298C21.7973 4.96757 21.5661 4.52054 21.2631 4.14187C20.9601 3.76321 20.5934 3.46869 20.1629 3.25832C19.7323 3.04795 19.246 2.94277 18.7039 2.94277C18.2893 2.94277 17.9039 3.00325 17.5478 3.12421C17.1917 3.24518 16.8755 3.4161 16.5991 3.63699C16.3227 3.85788 16.0835 4.11821 15.8815 4.41798C15.6796 4.71776 15.5254 5.04646 15.4191 5.40409H15.3872V3.1321H15.0683V14.0187H15.3872ZM18.7039 11.1156C17.7046 11.1156 16.9021 10.7764 16.2961 10.098C15.6902 9.41951 15.3872 8.44393 15.3872 7.17119C15.3872 6.64527 15.4617 6.14564 15.6105 5.67231C15.7593 5.19898 15.9746 4.7835 16.2563 4.42587C16.538 4.06824 16.8861 3.78425 17.3007 3.57388C17.7153 3.36351 18.183 3.25832 18.7039 3.25832C19.2354 3.25832 19.7005 3.36351 20.0991 3.57388C20.4977 3.78425 20.8273 4.07087 21.0877 4.43376C21.3481 4.79665 21.5448 5.21212 21.6777 5.6802C21.8106 6.14827 21.877 6.64527 21.877 7.17119C21.877 7.64452 21.8159 8.11522 21.6936 8.58329C21.5714 9.05137 21.3827 9.4721 21.1276 9.84551C20.8724 10.2189 20.5456 10.5239 20.1469 10.7606C19.7483 10.9973 19.2673 11.1156 18.7039 11.1156ZM23.9499 11.2418V6.65053C23.9499 6.20875 24.0137 5.7775 24.1412 5.35676C24.2688 4.93602 24.4655 4.56524 24.7312 4.24443C24.997 3.92361 25.3345 3.67117 25.7437 3.4871C26.153 3.30303 26.6393 3.22677 27.2027 3.25832V2.94277C26.7137 2.93225 26.2859 2.98484 25.9191 3.10055C25.5524 3.21625 25.2361 3.37402 24.9704 3.57388C24.7046 3.77373 24.492 4.00776 24.3326 4.27598C24.1731 4.54421 24.0562 4.83083 23.9818 5.13587H23.9499V3.1321H23.631V11.2418H23.9499ZM27.6014 7.25008H34.4579C34.4791 6.6926 34.4233 6.15616 34.2904 5.64075C34.1576 5.12535 33.945 4.6678 33.6526 4.2681C33.3603 3.86839 32.9829 3.54758 32.5205 3.30566C32.0581 3.06373 31.508 2.94277 30.8702 2.94277C30.4131 2.94277 29.9666 3.03743 29.5308 3.22677C29.0949 3.4161 28.7122 3.69221 28.3827 4.0551C28.0532 4.41799 27.7874 4.86239 27.5854 5.38831C27.3834 5.91424 27.2825 6.51378 27.2825 7.18697C27.2825 7.78652 27.3516 8.34663 27.4897 8.86729C27.6279 9.38796 27.8405 9.84025 28.1276 10.2242C28.4146 10.6081 28.784 10.9052 29.2358 11.1156C29.6875 11.326 30.2323 11.4259 30.8702 11.4154C31.8056 11.4154 32.5923 11.1551 33.2301 10.6344C33.8679 10.1137 34.2453 9.38007 34.3622 8.43341H34.0433C33.9051 9.32748 33.5516 9.99803 32.9829 10.4451C32.4142 10.8921 31.6993 11.1156 30.8383 11.1156C30.2536 11.1156 29.7593 11.0157 29.3554 10.8158C28.9514 10.616 28.6219 10.3425 28.3667 9.9954C28.1116 9.64829 27.9229 9.2407 27.8007 8.77263C27.6784 8.30455 27.612 7.79704 27.6014 7.25008ZM34.139 6.93453H27.6014C27.6333 6.36653 27.7396 5.85639 27.9203 5.40409C28.101 4.95179 28.3375 4.56524 28.6298 4.24443C28.9222 3.92361 29.2623 3.67906 29.6503 3.51077C30.0383 3.34247 30.4556 3.25832 30.9021 3.25832C31.4336 3.25832 31.9013 3.35562 32.3052 3.55021C32.7092 3.7448 33.0467 4.01039 33.3178 4.34698C33.5888 4.68358 33.7935 5.07539 33.9317 5.52242C34.0699 5.96946 34.139 6.44016 34.139 6.93453ZM41.0752 5.53031H41.3941C41.3941 4.62572 41.1283 3.96832 40.5968 3.5581C40.0653 3.14788 39.3424 2.94277 38.4282 2.94277C37.918 2.94277 37.4875 3.00588 37.1367 3.1321C36.7859 3.25832 36.4989 3.42136 36.2756 3.62121C36.0524 3.82106 35.8929 4.04195 35.7973 4.28387C35.7016 4.5258 35.6538 4.7572 35.6538 4.97809C35.6538 5.41987 35.7335 5.77223 35.8929 6.0352C36.0524 6.29816 36.3022 6.50327 36.6424 6.65053C36.8762 6.75571 37.142 6.85038 37.4396 6.93453C37.7373 7.01867 38.0828 7.10808 38.4761 7.20275C38.8269 7.28689 39.1724 7.37104 39.5125 7.45519C39.8527 7.53934 40.153 7.65241 40.4134 7.79441C40.6739 7.93641 40.8865 8.11785 41.0513 8.33874C41.216 8.55963 41.2984 8.84888 41.2984 9.20651C41.2984 9.55363 41.216 9.84814 41.0513 10.0901C40.8865 10.332 40.6765 10.5292 40.4214 10.6817C40.1663 10.8342 39.8819 10.9447 39.5683 11.0131C39.2547 11.0814 38.9491 11.1156 38.6515 11.1156C37.6841 11.1156 36.9427 10.9026 36.4271 10.4766C35.9115 10.0506 35.6538 9.38007 35.6538 8.46496H35.3349C35.3349 9.48526 35.6139 10.2321 36.172 10.7054C36.7301 11.1787 37.5566 11.4154 38.6515 11.4154C39.0023 11.4154 39.3557 11.3759 39.7118 11.2971C40.068 11.2182 40.3869 11.0893 40.6686 10.9105C40.9503 10.7317 41.1788 10.5003 41.3542 10.2163C41.5296 9.93229 41.6173 9.58518 41.6173 9.17496C41.6173 8.78577 41.5402 8.47022 41.3861 8.2283C41.232 7.98637 41.03 7.78652 40.7802 7.62874C40.5304 7.47097 40.2487 7.34738 39.9351 7.25797C39.6215 7.16856 39.3052 7.08178 38.9863 6.99764C38.5399 6.88193 38.1492 6.78201 37.8144 6.69786C37.4795 6.61371 37.1686 6.51379 36.8815 6.39808C36.6052 6.28238 36.3846 6.11672 36.2198 5.90109C36.055 5.68546 35.9727 5.3778 35.9727 4.97809C35.9727 4.90446 35.9939 4.77298 36.0364 4.58365C36.079 4.39432 36.18 4.20236 36.3394 4.00776C36.4989 3.81317 36.7434 3.63962 37.0729 3.4871C37.4024 3.33458 37.8542 3.25832 38.4282 3.25832C38.8216 3.25832 39.1803 3.3004 39.5046 3.38454C39.8288 3.46869 40.1078 3.6028 40.3417 3.78688C40.5756 3.97095 40.7563 4.20498 40.8838 4.48898C41.0114 4.77298 41.0752 5.12009 41.0752 5.53031ZM48.4579 5.53031H48.7768C48.7768 4.62572 48.511 3.96832 47.9795 3.5581C47.448 3.14788 46.7251 2.94277 45.8109 2.94277C45.3007 2.94277 44.8702 3.00588 44.5194 3.1321C44.1686 3.25832 43.8815 3.42136 43.6583 3.62121C43.4351 3.82106 43.2756 4.04195 43.18 4.28387C43.0843 4.5258 43.0364 4.7572 43.0364 4.97809C43.0364 5.41987 43.1162 5.77223 43.2756 6.0352C43.4351 6.29816 43.6849 6.50327 44.0251 6.65053C44.2589 6.75571 44.5247 6.85038 44.8223 6.93453C45.12 7.01867 45.4655 7.10808 45.8588 7.20275C46.2096 7.28689 46.555 7.37104 46.8952 7.45519C47.2354 7.53934 47.5357 7.65241 47.7961 7.79441C48.0566 7.93641 48.2692 8.11785 48.4339 8.33874C48.5987 8.55963 48.6811 8.84888 48.6811 9.20651C48.6811 9.55363 48.5987 9.84814 48.4339 10.0901C48.2692 10.332 48.0592 10.5292 47.8041 10.6817C47.549 10.8342 47.2646 10.9447 46.951 11.0131C46.6374 11.0814 46.3318 11.1156 46.0342 11.1156C45.0668 11.1156 44.3254 10.9026 43.8098 10.4766C43.2942 10.0506 43.0364 9.38007 43.0364 8.46496H42.7175C42.7175 9.48526 42.9966 10.2321 43.5547 10.7054C44.1128 11.1787 44.9393 11.4154 46.0342 11.4154C46.385 11.4154 46.7384 11.3759 47.0945 11.2971C47.4506 11.2182 47.7696 11.0893 48.0513 10.9105C48.333 10.7317 48.5615 10.5003 48.7369 10.2163C48.9123 9.93229 49 9.58518 49 9.17496C49 8.78577 48.9229 8.47022 48.7688 8.2283C48.6147 7.98637 48.4127 7.78652 48.1629 7.62874C47.9131 7.47097 47.6314 7.34738 47.3178 7.25797C47.0042 7.16856 46.6879 7.08178 46.369 6.99764C45.9226 6.88193 45.5319 6.78201 45.197 6.69786C44.8622 6.61371 44.5513 6.51379 44.2642 6.39808C43.9879 6.28238 43.7673 6.11672 43.6025 5.90109C43.4377 5.68546 43.3554 5.3778 43.3554 4.97809C43.3554 4.90446 43.3766 4.77298 43.4191 4.58365C43.4617 4.39432 43.5626 4.20236 43.7221 4.00776C43.8815 3.81317 44.126 3.63962 44.4556 3.4871C44.7851 3.33458 45.2369 3.25832 45.8109 3.25832C46.2043 3.25832 46.563 3.3004 46.8872 3.38454C47.2115 3.46869 47.4905 3.6028 47.7244 3.78688C47.9582 3.97095 48.139 4.20498 48.2665 4.48898C48.3941 4.77298 48.4579 5.12009 48.4579 5.53031Z" fill="white"/>
</g>
<defs>
<clipPath id="clip0_228_116">
<rect width="49" height="14" fill="white"/>
</clipPath>
</defs>
</svg>
