<svg width="65" height="64" viewBox="0 0 65 64" fill="none" xmlns="http://www.w3.org/2000/svg">
<g clip-path="url(#clip0_2317_3446)">
<path d="M28.9065 63.7928C27.955 63.6793 26.957 63.5328 26.6895 63.4668C26.2958 63.3735 25.8999 63.2902 25.502 63.2168C25.0476 63.1287 24.5968 63.0232 24.1505 62.9003C22.078 62.3063 21.9295 62.2578 20.367 61.6188C18.9295 61.0328 16.281 59.6638 15.375 59.0408C15.127 58.8688 14.895 58.7303 14.8595 58.7303C14.8245 58.7303 14.2445 58.3223 13.5705 57.8238C9.2855 54.6523 6.0685 50.8023 3.744 46.0603C3.344 45.2458 3.0175 44.5233 3.0175 44.4553C3.0175 44.3883 2.9455 44.2028 2.8575 44.0468C2.676 43.7223 2.4175 43.0233 2.209 42.3008C2.11935 41.9939 2.01507 41.6913 1.8965 41.3943C1.799 41.1643 1.7205 40.8843 1.7205 40.7713C1.7205 40.6578 1.623 40.2888 1.504 39.9488C1.385 39.6113 1.289 39.2128 1.289 39.0638C1.289 38.9158 1.1955 38.4038 1.08 37.9258C0.799 36.7458 0.5 33.6893 0.5 31.9763C0.5 30.2653 0.799 27.2088 1.08 26.0293C1.195 25.5508 1.289 25.0293 1.289 24.8693C1.289 24.7088 1.3615 24.3943 1.449 24.1693C1.539 23.9453 1.654 23.5428 1.707 23.2753C1.762 23.0078 1.887 22.5468 1.9885 22.2478L2.2835 21.3848C2.5 20.7383 2.701 20.1913 2.797 19.9783C2.852 19.8593 3.0665 19.3733 3.2755 18.8983C3.6135 18.1308 4.338 16.6833 4.7615 15.9258C4.916 15.6483 4.9745 15.5563 5.8105 14.2498C7.135 12.1758 9.3985 9.59533 11.5055 7.75583C12.248 7.10733 14.7285 5.22433 14.84 5.22433C14.871 5.22433 15.105 5.08383 15.3615 4.91183C16.035 4.46083 16.6955 4.07783 17.5565 3.64633C17.8656 3.49348 18.1716 3.33462 18.4745 3.16983C18.617 3.08783 18.8845 2.96483 20.258 2.34983C20.5605 2.21483 20.8865 2.09183 21.826 1.76333C22.033 1.69133 22.449 1.53883 22.746 1.42733C23.045 1.31633 23.3965 1.22433 23.5275 1.22433C23.6565 1.22433 23.996 1.13433 24.2815 1.02333C24.5665 0.911832 25.084 0.784832 25.4335 0.741832C25.7815 0.700832 26.244 0.603332 26.461 0.526832C26.676 0.452832 27.266 0.356832 27.7715 0.314332C28.4303 0.254808 29.0874 0.177279 29.742 0.081832C31.086 -0.115168 34.008 -0.115168 35.338 0.081832C35.9662 0.171979 36.5966 0.24617 37.2285 0.304332C37.705 0.343832 38.3125 0.443332 38.58 0.525332C38.8475 0.605332 39.3105 0.705332 39.6075 0.741832C39.9045 0.781332 40.4045 0.904332 40.7185 1.01733C41.0335 1.13233 41.3905 1.22433 41.5135 1.22433C41.6365 1.22433 41.8905 1.29283 42.076 1.37883C42.2635 1.46283 42.66 1.60333 42.959 1.69133C43.256 1.78133 43.7655 1.95883 44.094 2.08983C44.42 2.22033 44.8575 2.39233 45.0665 2.47033C45.4515 2.61533 48.2965 4.03883 48.6835 4.28133C51.824 6.23983 53.4395 7.51933 55.6115 9.76333C58.2305 12.4703 59.969 15.0483 61.7385 18.8433C61.8635 19.1113 62.0545 19.5078 62.164 19.7223C62.2715 19.9393 62.3615 20.1933 62.3615 20.2873C62.3615 20.3823 62.4515 20.6673 62.5625 20.9218C62.8635 21.6133 63.121 22.4003 63.2425 23.0018C63.3025 23.2968 63.414 23.6618 63.49 23.8123C63.5665 23.9623 63.656 24.3438 63.6915 24.6563C63.7265 24.9683 63.83 25.4803 63.918 25.7908C64.428 27.5563 64.6815 32.7578 64.373 35.0583C64.2815 35.7418 64.178 36.5683 64.143 36.8943C64.084 37.4528 63.789 38.8963 63.537 39.8668L63.277 40.8943C62.787 42.8728 61.576 45.6913 60.0975 48.2988C59.5115 49.3338 57.547 52.1328 57.176 52.4608C57.1425 52.4898 56.9765 52.6858 56.8085 52.8923C56.6405 53.1013 56.1015 53.6853 55.6135 54.1893C53.463 56.4098 51.7285 57.7828 48.6835 59.6738C48.3225 59.8983 45.26 61.3943 44.6875 61.6268C44.3905 61.7458 43.8945 61.9468 43.586 62.0718C43.2795 62.1953 42.9375 62.2988 42.83 62.3008C42.7225 62.3023 42.4395 62.3983 42.201 62.5133C41.963 62.6283 41.66 62.7243 41.5255 62.7263C41.3925 62.7283 41.004 62.8223 40.662 62.9353C40.3205 63.0503 39.8455 63.1738 39.607 63.2103C39.369 63.2478 38.8595 63.3493 38.4725 63.4353C38.086 63.5213 36.9175 63.6893 35.879 63.8083C33.5624 64.0785 31.2219 64.0733 28.9065 63.7928ZM31.258 57.5428C31.408 57.4258 31.5625 57.1928 31.6035 57.0293C31.6935 56.6678 46.2205 27.5443 46.494 27.1793C46.7245 26.8708 46.746 26.3768 46.535 26.2028C46.424 26.1093 45.033 26.0798 41.32 26.0858C38.535 26.0918 36.1935 26.0938 36.117 26.0918C36.004 26.0878 35.9805 24.2268 35.992 16.2558C36 10.8473 35.9745 6.37283 35.9355 6.31083C35.8965 6.24783 35.744 6.19733 35.5955 6.19733C35.3865 6.19733 35.289 6.28733 35.1605 6.60133C34.918 7.18533 34.248 8.51133 30.9865 14.8438C30.309 16.158 29.6332 17.473 28.959 18.7888C28.381 19.9198 27.469 21.6953 26.9355 22.7338C25.4995 25.5255 24.0665 28.3186 22.6365 31.1133C20.17 35.9313 19.8715 36.5058 19.7655 36.6328C19.5605 36.8808 19.449 37.4528 19.5645 37.6678C19.6695 37.8648 19.879 37.8728 25.086 37.8648C28.0625 37.8613 30.5175 37.8768 30.543 37.8998C30.6115 37.9703 30.586 56.5548 30.5155 56.9978C30.469 57.2888 30.5 57.4428 30.633 57.5758C30.863 57.8063 30.926 57.8043 31.258 57.5428Z" fill="#049688"/>
</g>
<defs>
<clipPath id="clip0_2317_3446">
<rect width="64" height="64" fill="white" transform="translate(0.5)"/>
</clipPath>
</defs>
</svg>
