<svg width="29" height="29" viewBox="0 0 29 29" fill="none" xmlns="http://www.w3.org/2000/svg">
<g clip-path="url(#clip0_384_369)">
<path d="M28.4532 13.2608L15.7916 0.706753C15.6184 0.534429 15.4126 0.397699 15.186 0.304405C14.9594 0.21111 14.7164 0.163086 14.471 0.163086C14.2257 0.163086 13.9827 0.21111 13.7561 0.304405C13.5295 0.397699 13.3237 0.534429 13.1505 0.706753L10.5208 3.31408L13.8558 6.62074C14.2491 6.48804 14.672 6.46755 15.0765 6.56159C15.4809 6.65563 15.8506 6.86042 16.1434 7.15263C16.4361 7.44484 16.6402 7.81271 16.7324 8.21433C16.8246 8.61595 16.8011 9.03517 16.6647 9.42421L19.8754 12.6076C20.3553 12.4442 20.8772 12.4487 21.3542 12.6205C21.8312 12.7922 22.2344 13.1208 22.4967 13.5516C22.7589 13.9823 22.8644 14.4892 22.7955 14.9876C22.7266 15.4861 22.4875 15.9462 22.1181 16.2911C21.7487 16.636 21.2712 16.845 20.7652 16.8832C20.2592 16.9215 19.7553 16.7866 19.3374 16.5012C18.9195 16.2158 18.6128 15.797 18.4686 15.3146C18.3243 14.8322 18.3511 14.3154 18.5445 13.8502L15.5461 10.8773V18.6993C16.0003 18.9224 16.3637 19.2931 16.5758 19.7496C16.7878 20.2061 16.8357 20.7209 16.7115 21.2081C16.5873 21.6954 16.2984 22.1257 15.8931 22.4275C15.4877 22.7293 14.9903 22.8843 14.4838 22.8666C13.9772 22.849 13.492 22.6597 13.109 22.3305C12.726 22.0013 12.4684 21.5518 12.3789 21.0571C12.2895 20.5624 12.3738 20.0523 12.6176 19.6117C12.8615 19.171 13.2502 18.8266 13.7191 18.6356V10.7417C13.4478 10.6314 13.2013 10.4689 12.9936 10.2637C12.786 10.0584 12.6213 9.81449 12.5092 9.54589C12.397 9.27728 12.3396 8.98933 12.3401 8.69862C12.3407 8.4079 12.3993 8.12018 12.5125 7.85201L9.22929 4.59464L0.546894 13.2063C0.372937 13.3781 0.234904 13.5822 0.140718 13.807C0.0465316 14.0317 -0.00195312 14.2727 -0.00195312 14.5162C-0.00195312 14.7596 0.0465316 15.0006 0.140718 15.2253C0.234904 15.4501 0.372937 15.6542 0.546894 15.826L13.2085 28.3759C13.3817 28.5482 13.5875 28.6849 13.8141 28.7782C14.0407 28.8715 14.2837 28.9195 14.529 28.9195C14.7744 28.9195 15.0174 28.8715 15.244 28.7782C15.4706 28.6849 15.6764 28.5482 15.8496 28.3759L28.4532 15.8763C28.6271 15.7046 28.7652 15.5004 28.8594 15.2757C28.9535 15.0509 29.002 14.8099 29.002 14.5665C29.002 14.3231 28.9535 14.0821 28.8594 13.8573C28.7652 13.6325 28.6271 13.4284 28.4532 13.2566" fill="#DD4C35"/>
<path d="M10.521 3.31348L13.856 6.62013C14.2493 6.48744 14.6723 6.46694 15.0767 6.56098C15.4811 6.65502 15.8508 6.85981 16.1436 7.15202C16.4364 7.44423 16.6405 7.81211 16.7326 8.21373C16.8248 8.61535 16.8013 9.03456 16.6649 9.4236L19.8756 12.607C20.3555 12.4436 20.8775 12.4481 21.3544 12.6198C21.8314 12.7916 22.2346 13.1202 22.4969 13.551C22.7591 13.9817 22.8646 14.4886 22.7957 14.987C22.7268 15.4855 22.4878 15.9456 22.1183 16.2905C21.7489 16.6354 21.2714 16.8444 20.7654 16.8826C20.2594 16.9209 19.7555 16.786 19.3376 16.5006C18.9197 16.2152 18.6131 15.7964 18.4688 15.314C18.3245 14.8316 18.3513 14.3148 18.5447 13.8496L15.5463 10.8767V18.6987C16.0005 18.9218 16.3639 19.2925 16.576 19.749C16.788 20.2055 16.8359 20.7203 16.7117 21.2075C16.5875 21.6948 16.2986 22.1251 15.8933 22.4269C15.4879 22.7287 14.9905 22.8837 14.484 22.866C13.9774 22.8484 13.4922 22.6591 13.1092 22.3299C12.7262 22.0007 12.4686 21.5512 12.3791 21.0565C12.2897 20.5618 12.374 20.0517 12.6178 19.6111C12.8617 19.1704 13.2504 18.826 13.7193 18.635V10.7411C13.4481 10.6308 13.2015 10.4683 12.9938 10.2631C12.7862 10.0578 12.6215 9.81389 12.5094 9.54528C12.3972 9.27668 12.3398 8.98872 12.3403 8.69801C12.3409 8.4073 12.3995 8.11957 12.5127 7.8514L9.22949 4.59404" fill="white"/>
</g>
<defs>
<clipPath id="clip0_384_369">
<rect width="29" height="29" fill="white"/>
</clipPath>
</defs>
</svg>
