<svg width="153" height="636" viewBox="0 0 153 636" fill="none" xmlns="http://www.w3.org/2000/svg">
<g opacity="0.6">
<circle cx="-5.68611" cy="243.453" r="6.96933" transform="rotate(58.427 -5.68611 243.453)" fill="#528E96"/>
<path d="M-3.0188 246.97L6.71196 262.804" stroke="#528E96" stroke-width="0.5"/>
<line x1="-9.08134" y1="272.678" x2="6.75248" y2="262.947" stroke="#528E96" stroke-width="0.5"/>
<circle cx="30.3383" cy="269.383" r="6.96933" transform="rotate(-77.276 30.3383 269.383)" fill="#528E96"/>
<line x1="24.6964" y1="266.947" x2="6.56793" y2="262.854" stroke="#528E96" stroke-width="0.5"/>
<line x1="-11.6535" y1="261.799" x2="6.89812" y2="262.91" stroke="#528E96" stroke-width="0.5"/>
<line x1="2.71856" y1="279.34" x2="-14.8276" y2="275.832" stroke="#528E96" stroke-width="0.5"/>
<circle cx="5.18563" cy="279.507" r="2.57311" transform="rotate(-46.6471 5.18563 279.507)" stroke="#528E96" stroke-width="0.5"/>
<line x1="-10.987" y1="290.723" x2="2.67336" y2="279.705" stroke="#528E96" stroke-width="0.5"/>
<line x1="45.2913" y1="272.395" x2="27.7451" y2="268.886" stroke="#528E96" stroke-width="0.5"/>
<circle cx="47.7584" cy="272.562" r="2.57311" transform="rotate(-46.6471 47.7584 272.562)" stroke="#528E96" stroke-width="0.5"/>
<line x1="31.5857" y1="283.778" x2="45.2461" y2="272.76" stroke="#528E96" stroke-width="0.5"/>
<circle cx="29.9789" cy="285.68" r="2.57311" transform="rotate(90.5508 29.9789 285.68)" stroke="#528E96" stroke-width="0.5"/>
<line x1="7.00686" y1="232.182" x2="-4.90529" y2="245.534" stroke="#528E96" stroke-width="0.5"/>
<circle cx="8.40079" cy="230.14" r="2.57311" transform="rotate(-106.216 8.40079 230.14)" stroke="#528E96" stroke-width="0.5"/>
<line x1="9.8804" y1="249.765" x2="7.2992" y2="232.406" stroke="#528E96" stroke-width="0.5"/>
<circle cx="10.7062" cy="252.114" r="2.57311" transform="rotate(30.9819 10.7062 252.114)" stroke="#528E96" stroke-width="0.5"/>
<g opacity="0.65">
<circle cx="81.2876" cy="263.914" r="6.96933" transform="rotate(30.7903 81.2876 263.914)" fill="#528E96"/>
<circle cx="72.0126" cy="280.831" r="6.96933" transform="rotate(30.7903 72.0126 280.831)" fill="#528E96"/>
<circle cx="74.4885" cy="231.998" r="6.96933" transform="rotate(30.7903 74.4885 231.998)" fill="#528E96"/>
<path d="M78.4832 233.876L94.4484 243.39" stroke="#528E96" stroke-width="0.5"/>
<circle cx="38.945" cy="246.612" r="6.96933" transform="rotate(30.7903 38.945 246.612)" fill="#528E96"/>
<line x1="45.0354" y1="249.156" x2="61.0007" y2="258.67" stroke="#528E96" stroke-width="0.5"/>
<line x1="85.0369" y1="259.464" x2="94.5505" y2="243.499" stroke="#528E96" stroke-width="0.5"/>
<circle cx="118.431" cy="238.26" r="6.96933" transform="rotate(-104.913 118.431 238.26)" fill="#528E96"/>
<line x1="112.302" y1="238.718" x2="94.3435" y2="243.501" stroke="#528E96" stroke-width="0.5"/>
<line x1="77.7124" y1="251.02" x2="94.6628" y2="243.399" stroke="#528E96" stroke-width="0.5"/>
<line x1="60.7617" y1="258.64" x2="77.7121" y2="251.019" stroke="#528E96" stroke-width="0.5"/>
<line x1="68.7521" y1="275.238" x2="60.7189" y2="258.479" stroke="#528E96" stroke-width="0.5"/>
<line x1="66.4498" y1="294.887" x2="70.786" y2="277.527" stroke="#528E96" stroke-width="0.5"/>
<circle cx="66.1654" cy="297.342" r="2.57311" transform="rotate(46.0702 66.1654 297.342)" stroke="#528E96" stroke-width="0.5"/>
<line x1="55.7284" y1="280.656" x2="66.0865" y2="294.824" stroke="#528E96" stroke-width="0.5"/>
<circle cx="53.9049" cy="278.961" r="2.57311" transform="rotate(-176.732 53.9049 278.961)" stroke="#528E96" stroke-width="0.5"/>
<line x1="56.0154" y1="241.664" x2="38.8437" y2="246.695" stroke="#528E96" stroke-width="0.5"/>
<circle cx="58.2786" cy="240.667" r="2.57311" transform="rotate(-74.2837 58.2786 240.667)" stroke="#528E96" stroke-width="0.5"/>
<line x1="49.154" y1="258.105" x2="56.1449" y2="242.008" stroke="#528E96" stroke-width="0.5"/>
<circle cx="48.6127" cy="260.535" r="2.57311" transform="rotate(62.9142 48.6127 260.535)" stroke="#528E96" stroke-width="0.5"/>
<line x1="98.581" y1="259.892" x2="81.4094" y2="264.923" stroke="#528E96" stroke-width="0.5"/>
<circle cx="100.844" cy="258.896" r="2.57311" transform="rotate(-74.2837 100.844 258.896)" stroke="#528E96" stroke-width="0.5"/>
<line x1="91.7197" y1="276.334" x2="98.7106" y2="260.236" stroke="#528E96" stroke-width="0.5"/>
<circle cx="91.1784" cy="278.764" r="2.57311" transform="rotate(62.9142 91.1784 278.764)" stroke="#528E96" stroke-width="0.5"/>
<line x1="133.075" y1="233.991" x2="115.903" y2="239.022" stroke="#528E96" stroke-width="0.5"/>
<circle cx="135.338" cy="232.995" r="2.57311" transform="rotate(-74.2837 135.338 232.995)" stroke="#528E96" stroke-width="0.5"/>
<line x1="126.213" y1="250.433" x2="133.204" y2="234.335" stroke="#528E96" stroke-width="0.5"/>
<circle cx="125.672" cy="252.862" r="2.57311" transform="rotate(62.9142 125.672 252.862)" stroke="#528E96" stroke-width="0.5"/>
<line x1="80.5052" y1="216.126" x2="76.1456" y2="233.481" stroke="#528E96" stroke-width="0.5"/>
<circle cx="80.7928" cy="213.67" r="2.57311" transform="rotate(-133.853 80.7928 213.67)" stroke="#528E96" stroke-width="0.5"/>
<line x1="91.2072" y1="230.371" x2="80.8682" y2="216.19" stroke="#528E96" stroke-width="0.5"/>
<circle cx="93.0283" cy="232.068" r="2.57311" transform="rotate(3.34527 93.0283 232.068)" stroke="#528E96" stroke-width="0.5"/>
</g>
<g opacity="0.65">
<circle cx="92.6764" cy="460.333" r="6.96933" transform="rotate(17.4735 92.6764 460.333)" fill="#528E96"/>
<circle cx="87.5475" cy="478.931" r="6.96933" transform="rotate(17.4735 87.5475 478.931)" fill="#528E96"/>
<circle cx="78.7089" cy="430.842" r="6.96933" transform="rotate(17.4735 78.7089 430.842)" fill="#528E96"/>
<path d="M83.0286 431.75L100.756 437.33" stroke="#528E96" stroke-width="0.5"/>
<circle cx="47.4872" cy="453.25" r="6.96933" transform="rotate(17.4735 47.4872 453.25)" fill="#528E96"/>
<line x1="53.9999" y1="454.323" x2="71.7272" y2="459.903" stroke="#528E96" stroke-width="0.5"/>
<line x1="95.2997" y1="455.139" x2="100.88" y2="437.412" stroke="#528E96" stroke-width="0.5"/>
<circle cx="122.912" cy="426.807" r="6.96933" transform="rotate(-118.229 122.912 426.807)" fill="#528E96"/>
<line x1="117.054" y1="428.665" x2="100.679" y2="437.456" stroke="#528E96" stroke-width="0.5"/>
<line x1="86.2274" y1="448.609" x2="100.966" y2="437.289" stroke="#528E96" stroke-width="0.5"/>
<line x1="71.4879" y1="459.929" x2="86.227" y2="448.608" stroke="#528E96" stroke-width="0.5"/>
<line x1="83.0865" y1="474.24" x2="71.4091" y2="459.782" stroke="#528E96" stroke-width="0.5"/>
<line x1="62.9589" y1="444.502" x2="47.4077" y2="453.353" stroke="#528E96" stroke-width="0.5"/>
<circle cx="64.9318" cy="443.011" r="2.57311" transform="rotate(-87.6005 64.9318 443.011)" stroke="#528E96" stroke-width="0.5"/>
<line x1="60.0691" y1="462.093" x2="63.1643" y2="444.818" stroke="#528E96" stroke-width="0.5"/>
<circle cx="60.1021" cy="464.581" r="2.57311" transform="rotate(49.5974 60.1021 464.581)" stroke="#528E96" stroke-width="0.5"/>
<line x1="108.578" y1="452.437" x2="93.0273" y2="461.288" stroke="#528E96" stroke-width="0.5"/>
<circle cx="110.551" cy="450.946" r="2.57311" transform="rotate(-87.6005 110.551 450.946)" stroke="#528E96" stroke-width="0.5"/>
<line x1="105.688" y1="470.027" x2="108.784" y2="452.752" stroke="#528E96" stroke-width="0.5"/>
<circle cx="105.722" cy="472.516" r="2.57311" transform="rotate(49.5974 105.722 472.516)" stroke="#528E96" stroke-width="0.5"/>
<line x1="136.179" y1="419.287" x2="120.627" y2="428.138" stroke="#528E96" stroke-width="0.5"/>
<circle cx="138.151" cy="417.796" r="2.57311" transform="rotate(-87.6005 138.151 417.796)" stroke="#528E96" stroke-width="0.5"/>
<line x1="133.289" y1="436.878" x2="136.384" y2="419.603" stroke="#528E96" stroke-width="0.5"/>
<circle cx="133.322" cy="439.367" r="2.57311" transform="rotate(49.5974 133.322 439.367)" stroke="#528E96" stroke-width="0.5"/>
<line x1="80.9077" y1="414.01" x2="80.6627" y2="431.902" stroke="#528E96" stroke-width="0.5"/>
<circle cx="80.6219" cy="411.554" r="2.57311" transform="rotate(-147.169 80.6219 411.554)" stroke="#528E96" stroke-width="0.5"/>
<line x1="94.6032" y1="425.407" x2="81.2758" y2="413.988" stroke="#528E96" stroke-width="0.5"/>
<circle cx="96.7662" cy="426.639" r="2.57311" transform="rotate(-9.97152 96.7662 426.639)" stroke="#528E96" stroke-width="0.5"/>
</g>
<g opacity="0.65">
<circle cx="84.9819" cy="534.231" r="6.96933" transform="rotate(18.3816 84.9819 534.231)" fill="#528E96"/>
<circle cx="79.5591" cy="552.746" r="6.96933" transform="rotate(18.3816 79.5591 552.746)" fill="#528E96"/>
<circle cx="71.4834" cy="504.522" r="6.96933" transform="rotate(18.3816 71.4834 504.522)" fill="#528E96"/>
<path d="M75.7881 505.498L93.4247 511.358" stroke="#528E96" stroke-width="0.5"/>
<circle cx="39.9106" cy="526.432" r="6.96933" transform="rotate(18.3816 39.9106 526.432)" fill="#528E96"/>
<line x1="46.4057" y1="527.608" x2="64.0424" y2="533.469" stroke="#528E96" stroke-width="0.5"/>
<line x1="87.6876" y1="529.079" x2="93.5482" y2="511.442" stroke="#528E96" stroke-width="0.5"/>
<circle cx="115.745" cy="501.2" r="6.96933" transform="rotate(-117.321 115.745 501.2)" fill="#528E96"/>
<line x1="109.858" y1="502.964" x2="93.3465" y2="511.494" stroke="#528E96" stroke-width="0.5"/>
<line x1="78.7195" y1="522.406" x2="93.6362" y2="511.321" stroke="#528E96" stroke-width="0.5"/>
<line x1="63.8025" y1="533.491" x2="78.7192" y2="522.406" stroke="#528E96" stroke-width="0.5"/>
<line x1="75.1729" y1="547.985" x2="63.7261" y2="533.343" stroke="#528E96" stroke-width="0.5"/>
<line x1="55.5203" y1="517.926" x2="39.8309" y2="526.53" stroke="#528E96" stroke-width="0.5"/>
<circle cx="57.5167" cy="516.467" r="2.57311" transform="rotate(-86.6925 57.5167 516.467)" stroke="#528E96" stroke-width="0.5"/>
<line x1="52.3523" y1="535.459" x2="55.7208" y2="518.235" stroke="#528E96" stroke-width="0.5"/>
<circle cx="52.3459" cy="537.949" r="2.57311" transform="rotate(50.5054 52.3459 537.949)" stroke="#528E96" stroke-width="0.5"/>
<line x1="101.008" y1="526.582" x2="85.3186" y2="535.186" stroke="#528E96" stroke-width="0.5"/>
<circle cx="103.004" cy="525.123" r="2.57311" transform="rotate(-86.6925 103.004 525.123)" stroke="#528E96" stroke-width="0.5"/>
<line x1="97.8401" y1="544.115" x2="101.209" y2="526.891" stroke="#528E96" stroke-width="0.5"/>
<circle cx="97.8336" cy="546.605" r="2.57311" transform="rotate(50.5054 97.8336 546.605)" stroke="#528E96" stroke-width="0.5"/>
<line x1="129.13" y1="493.874" x2="113.441" y2="502.477" stroke="#528E96" stroke-width="0.5"/>
<circle cx="131.127" cy="492.414" r="2.57311" transform="rotate(-86.6925 131.127 492.414)" stroke="#528E96" stroke-width="0.5"/>
<line x1="125.962" y1="511.406" x2="129.331" y2="494.182" stroke="#528E96" stroke-width="0.5"/>
<circle cx="125.956" cy="513.896" r="2.57311" transform="rotate(50.5054 125.956 513.896)" stroke="#528E96" stroke-width="0.5"/>
<line x1="73.9489" y1="487.728" x2="73.4203" y2="505.613" stroke="#528E96" stroke-width="0.5"/>
<circle cx="73.7019" cy="485.267" r="2.57311" transform="rotate(-146.261 73.7019 485.267)" stroke="#528E96" stroke-width="0.5"/>
<line x1="87.4616" y1="499.34" x2="74.3167" y2="487.712" stroke="#528E96" stroke-width="0.5"/>
<circle cx="89.6051" cy="500.606" r="2.57311" transform="rotate(-9.0635 89.6051 500.606)" stroke="#528E96" stroke-width="0.5"/>
</g>
<g opacity="0.65">
<circle cx="97.5479" cy="371.878" r="6.96933" transform="rotate(-3.8772 97.5479 371.878)" fill="#528E96"/>
<circle cx="99.5423" cy="391.066" r="6.96933" transform="rotate(-3.8772 99.5423 391.066)" fill="#528E96"/>
<circle cx="73.8018" cy="349.495" r="6.96933" transform="rotate(-3.8772 73.8018 349.495)" fill="#528E96"/>
<path d="M78.1555 348.768L96.6979 347.511" stroke="#528E96" stroke-width="0.5"/>
<circle cx="52.8812" cy="381.732" r="6.96933" transform="rotate(-3.8772 52.8812 381.732)" fill="#528E96"/>
<line x1="59.3378" y1="380.36" x2="77.8802" y2="379.103" stroke="#528E96" stroke-width="0.5"/>
<line x1="98.1004" y1="366.084" x2="96.8438" y2="347.542" stroke="#528E96" stroke-width="0.5"/>
<circle cx="113.504" cy="329.65" r="6.96933" transform="rotate(-139.58 113.504 329.65)" fill="#528E96"/>
<line x1="108.725" y1="333.514" x2="96.6746" y2="347.663" stroke="#528E96" stroke-width="0.5"/>
<line x1="87.273" y1="363.306" x2="96.8791" y2="347.397" stroke="#528E96" stroke-width="0.5"/>
<line x1="77.6666" y1="379.216" x2="87.2726" y2="363.306" stroke="#528E96" stroke-width="0.5"/>
<line x1="93.6795" y1="388.322" x2="77.5397" y2="379.107" stroke="#528E96" stroke-width="0.5"/>
<line x1="111.246" y1="398.502" x2="95.1478" y2="390.691" stroke="#528E96" stroke-width="0.5"/>
<circle cx="113.592" cy="399.286" r="2.57311" transform="rotate(-32.0701 113.592 399.286)" stroke="#528E96" stroke-width="0.5"/>
<line x1="95.1166" y1="406.07" x2="111.11" y2="398.845" stroke="#528E96" stroke-width="0.5"/>
<circle cx="93.083" cy="407.506" r="2.57311" transform="rotate(105.128 93.083 407.506)" stroke="#528E96" stroke-width="0.5"/>
<line x1="64.1061" y1="367.951" x2="52.8447" y2="381.857" stroke="#528E96" stroke-width="0.5"/>
<circle cx="65.401" cy="365.845" r="2.57311" transform="rotate(-108.951 65.401 365.845)" stroke="#528E96" stroke-width="0.5"/>
<line x1="67.8155" y1="385.379" x2="64.4089" y2="368.162" stroke="#528E96" stroke-width="0.5"/>
<circle cx="68.7527" cy="387.685" r="2.57311" transform="rotate(28.2466 68.7527 387.685)" stroke="#528E96" stroke-width="0.5"/>
<line x1="109.483" y1="358.733" x2="98.2219" y2="372.638" stroke="#528E96" stroke-width="0.5"/>
<circle cx="110.778" cy="356.626" r="2.57311" transform="rotate(-108.951 110.778 356.626)" stroke="#528E96" stroke-width="0.5"/>
<line x1="113.193" y1="376.16" x2="109.786" y2="358.944" stroke="#528E96" stroke-width="0.5"/>
<circle cx="114.13" cy="378.466" r="2.57311" transform="rotate(28.2466 114.13 378.466)" stroke="#528E96" stroke-width="0.5"/>
<line x1="123.12" y1="317.809" x2="111.859" y2="331.714" stroke="#528E96" stroke-width="0.5"/>
<circle cx="124.415" cy="315.703" r="2.57311" transform="rotate(-108.951 124.415 315.703)" stroke="#528E96" stroke-width="0.5"/>
<line x1="126.83" y1="335.236" x2="123.423" y2="318.02" stroke="#528E96" stroke-width="0.5"/>
<circle cx="127.767" cy="337.542" r="2.57311" transform="rotate(28.2466 127.767 337.542)" stroke="#528E96" stroke-width="0.5"/>
</g>
<circle cx="25.3868" cy="340.237" r="6.96933" transform="rotate(42.978 25.3868 340.237)" fill="#528E96"/>
<circle cx="12.7496" cy="354.814" r="6.96933" transform="rotate(42.978 12.7496 354.814)" fill="#528E96"/>
<circle cx="25.4786" cy="307.605" r="6.96933" transform="rotate(42.978 25.4786 307.605)" fill="#528E96"/>
<path d="M28.9866 310.284L42.5836 322.954" stroke="#528E96" stroke-width="0.5"/>
<line x1="-6.9326" y1="318.158" x2="6.66439" y2="330.828" stroke="#528E96" stroke-width="0.5"/>
<line x1="29.9912" y1="336.678" x2="42.6608" y2="323.081" stroke="#528E96" stroke-width="0.5"/>
<circle cx="67.1091" cy="323.002" r="6.96933" transform="rotate(-92.725 67.1091 323.002)" fill="#528E96"/>
<line x1="61.0219" y1="322.156" x2="42.458" y2="323.04" stroke="#528E96" stroke-width="0.5"/>
<line x1="24.6142" y1="326.878" x2="42.7914" y2="323.007" stroke="#528E96" stroke-width="0.5"/>
<line x1="6.43694" y1="330.749" x2="24.6142" y2="326.878" stroke="#528E96" stroke-width="0.5"/>
<line x1="10.7432" y1="348.659" x2="6.42904" y2="330.581" stroke="#528E96" stroke-width="0.5"/>
<line x1="4.34456" y1="367.379" x2="12.248" y2="351.325" stroke="#528E96" stroke-width="0.5"/>
<circle cx="3.54807" cy="369.719" r="2.57311" transform="rotate(58.2579 3.54807 369.719)" stroke="#528E96" stroke-width="0.5"/>
<line x1="-3.13072" y1="351.206" x2="4.00297" y2="367.241" stroke="#528E96" stroke-width="0.5"/>
<line x1="5.38158" y1="313.152" x2="-12.4652" y2="314.444" stroke="#528E96" stroke-width="0.5"/>
<circle cx="7.80402" cy="312.656" r="2.57311" transform="rotate(-62.0961 7.80402 312.656)" stroke="#528E96" stroke-width="0.5"/>
<line x1="-4.79662" y1="327.775" x2="5.43518" y2="313.516" stroke="#528E96" stroke-width="0.5"/>
<line x1="43.1394" y1="339.955" x2="25.2926" y2="341.248" stroke="#528E96" stroke-width="0.5"/>
<circle cx="45.5618" cy="339.46" r="2.57311" transform="rotate(-62.0961 45.5618 339.46)" stroke="#528E96" stroke-width="0.5"/>
<line x1="32.9612" y1="354.579" x2="43.193" y2="340.32" stroke="#528E96" stroke-width="0.5"/>
<circle cx="31.9192" cy="356.84" r="2.57311" transform="rotate(75.1018 31.9192 356.84)" stroke="#528E96" stroke-width="0.5"/>
<line x1="82.3237" y1="321.92" x2="64.477" y2="323.213" stroke="#528E96" stroke-width="0.5"/>
<circle cx="84.7462" cy="321.425" r="2.57311" transform="rotate(-62.0961 84.7462 321.425)" stroke="#528E96" stroke-width="0.5"/>
<line x1="72.1455" y1="336.544" x2="82.3773" y2="322.285" stroke="#528E96" stroke-width="0.5"/>
<circle cx="71.1035" cy="338.805" r="2.57311" transform="rotate(75.1018 71.1035 338.805)" stroke="#528E96" stroke-width="0.5"/>
<line x1="34.7129" y1="293.361" x2="26.7879" y2="309.404" stroke="#528E96" stroke-width="0.5"/>
<circle cx="35.5124" cy="291.02" r="2.57311" transform="rotate(-121.665 35.5124 291.02)" stroke="#528E96" stroke-width="0.5"/>
<line x1="42.1648" y1="309.544" x2="35.0527" y2="293.499" stroke="#528E96" stroke-width="0.5"/>
<circle cx="43.5866" cy="311.587" r="2.57311" transform="rotate(15.5329 43.5866 311.587)" stroke="#528E96" stroke-width="0.5"/>
<circle cx="24.0578" cy="423.368" r="6.96933" transform="rotate(40.6733 24.0578 423.368)" fill="#528E96"/>
<circle cx="12.0168" cy="438.441" r="6.96933" transform="rotate(40.6733 12.0168 438.441)" fill="#528E96"/>
<circle cx="22.8373" cy="390.759" r="6.96933" transform="rotate(40.6733 22.8373 390.759)" fill="#528E96"/>
<path d="M26.45 393.295L40.5454 405.408" stroke="#528E96" stroke-width="0.5"/>
<line x1="-9.12344" y1="402.607" x2="4.97204" y2="414.72" stroke="#528E96" stroke-width="0.5"/>
<line x1="28.5152" y1="419.627" x2="40.6278" y2="405.532" stroke="#528E96" stroke-width="0.5"/>
<circle cx="65.0529" cy="404.468" r="6.96933" transform="rotate(-95.0297 65.0529 404.468)" fill="#528E96"/>
<line x1="58.9367" y1="403.869" x2="40.4234" y2="405.498" stroke="#528E96" stroke-width="0.5"/>
<line x1="22.7487" y1="410.052" x2="40.7556" y2="405.453" stroke="#528E96" stroke-width="0.5"/>
<line x1="4.74136" y1="414.649" x2="22.7482" y2="410.051" stroke="#528E96" stroke-width="0.5"/>
<line x1="9.76449" y1="432.372" x2="4.72691" y2="414.483" stroke="#528E96" stroke-width="0.5"/>
<line x1="4.12399" y1="451.334" x2="11.3754" y2="434.976" stroke="#528E96" stroke-width="0.5"/>
<circle cx="3.42239" cy="453.706" r="2.57311" transform="rotate(55.9532 3.42239 453.706)" stroke="#528E96" stroke-width="0.5"/>
<line x1="-3.99558" y1="435.475" x2="3.77715" y2="451.21" stroke="#528E96" stroke-width="0.5"/>
<line x1="2.97851" y1="397.11" x2="-14.8018" y2="399.119" stroke="#528E96" stroke-width="0.5"/>
<circle cx="5.3791" cy="396.517" r="2.57311" transform="rotate(-64.4008 5.3791 396.517)" stroke="#528E96" stroke-width="0.5"/>
<line x1="-6.60334" y1="412.14" x2="3.04678" y2="397.481" stroke="#528E96" stroke-width="0.5"/>
<line x1="41.7842" y1="422.373" x2="24.0038" y2="424.383" stroke="#528E96" stroke-width="0.5"/>
<circle cx="44.1848" cy="421.781" r="2.57311" transform="rotate(-64.4008 44.1848 421.781)" stroke="#528E96" stroke-width="0.5"/>
<line x1="32.2023" y1="437.404" x2="41.8524" y2="422.745" stroke="#528E96" stroke-width="0.5"/>
<circle cx="31.2518" cy="439.704" r="2.57311" transform="rotate(72.7971 31.2518 439.704)" stroke="#528E96" stroke-width="0.5"/>
<line x1="80.2109" y1="402.777" x2="62.4306" y2="404.786" stroke="#528E96" stroke-width="0.5"/>
<circle cx="82.6115" cy="402.184" r="2.57311" transform="rotate(-64.4008 82.6115 402.184)" stroke="#528E96" stroke-width="0.5"/>
<line x1="70.6291" y1="417.807" x2="80.2792" y2="403.148" stroke="#528E96" stroke-width="0.5"/>
<circle cx="69.6786" cy="420.107" r="2.57311" transform="rotate(72.7971 69.6786 420.107)" stroke="#528E96" stroke-width="0.5"/>
<line x1="31.4877" y1="376.16" x2="24.2142" y2="392.509" stroke="#528E96" stroke-width="0.5"/>
<circle cx="32.1928" cy="373.79" r="2.57311" transform="rotate(-123.97 32.1928 373.79)" stroke="#528E96" stroke-width="0.5"/>
<line x1="39.586" y1="392.02" x2="31.8345" y2="376.275" stroke="#528E96" stroke-width="0.5"/>
<circle cx="41.089" cy="394.005" r="2.57311" transform="rotate(13.2282 41.089 394.005)" stroke="#528E96" stroke-width="0.5"/>
<circle cx="14.3376" cy="498.672" r="6.96933" transform="rotate(40.6733 14.3376 498.672)" fill="#528E96"/>
<circle cx="2.29656" cy="513.745" r="6.96933" transform="rotate(40.6733 2.29656 513.745)" fill="#528E96"/>
<circle cx="13.1171" cy="466.062" r="6.96933" transform="rotate(40.6733 13.1171 466.062)" fill="#528E96"/>
<path d="M16.7297 468.599L30.8252 480.711" stroke="#528E96" stroke-width="0.5"/>
<line x1="18.795" y1="494.931" x2="30.9076" y2="480.835" stroke="#528E96" stroke-width="0.5"/>
<circle cx="55.3327" cy="479.772" r="6.96933" transform="rotate(-95.0297 55.3327 479.772)" fill="#528E96"/>
<line x1="49.2165" y1="479.172" x2="30.7032" y2="480.802" stroke="#528E96" stroke-width="0.5"/>
<line x1="13.0285" y1="485.355" x2="31.0354" y2="480.757" stroke="#528E96" stroke-width="0.5"/>
<line x1="-4.97885" y1="489.953" x2="13.028" y2="485.354" stroke="#528E96" stroke-width="0.5"/>
<line x1="0.0442714" y1="507.676" x2="-4.99331" y2="489.787" stroke="#528E96" stroke-width="0.5"/>
<line x1="-5.59623" y1="526.638" x2="1.65522" y2="510.28" stroke="#528E96" stroke-width="0.5"/>
<line x1="32.064" y1="497.677" x2="14.2836" y2="499.686" stroke="#528E96" stroke-width="0.5"/>
<circle cx="34.4645" cy="497.084" r="2.57311" transform="rotate(-64.4008 34.4645 497.084)" stroke="#528E96" stroke-width="0.5"/>
<line x1="22.4821" y1="512.707" x2="32.1322" y2="498.048" stroke="#528E96" stroke-width="0.5"/>
<circle cx="21.5316" cy="515.008" r="2.57311" transform="rotate(72.7971 21.5316 515.008)" stroke="#528E96" stroke-width="0.5"/>
<line x1="70.4907" y1="478.08" x2="52.7104" y2="480.09" stroke="#528E96" stroke-width="0.5"/>
<circle cx="72.8913" cy="477.488" r="2.57311" transform="rotate(-64.4008 72.8913 477.488)" stroke="#528E96" stroke-width="0.5"/>
<line x1="60.9089" y1="493.111" x2="70.559" y2="478.452" stroke="#528E96" stroke-width="0.5"/>
<circle cx="59.9584" cy="495.411" r="2.57311" transform="rotate(72.7971 59.9584 495.411)" stroke="#528E96" stroke-width="0.5"/>
<line x1="21.7675" y1="451.464" x2="14.494" y2="467.812" stroke="#528E96" stroke-width="0.5"/>
<circle cx="22.4726" cy="449.094" r="2.57311" transform="rotate(-123.97 22.4726 449.094)" stroke="#528E96" stroke-width="0.5"/>
<line x1="29.8658" y1="467.324" x2="22.1143" y2="451.578" stroke="#528E96" stroke-width="0.5"/>
<circle cx="31.3688" cy="469.309" r="2.57311" transform="rotate(13.2282 31.3688 469.309)" stroke="#528E96" stroke-width="0.5"/>
<circle cx="8.82195" cy="572.755" r="6.96933" transform="rotate(40.6733 8.82195 572.755)" fill="#528E96"/>
<circle cx="-3.21906" cy="587.828" r="6.96933" transform="rotate(40.6733 -3.21906 587.828)" fill="#528E96"/>
<circle cx="7.60149" cy="540.145" r="6.96933" transform="rotate(40.6733 7.60149 540.145)" fill="#528E96"/>
<path d="M11.2141 542.682L25.3096 554.794" stroke="#528E96" stroke-width="0.5"/>
<line x1="13.2794" y1="569.014" x2="25.392" y2="554.918" stroke="#528E96" stroke-width="0.5"/>
<circle cx="49.8171" cy="553.855" r="6.96933" transform="rotate(-95.0297 49.8171 553.855)" fill="#528E96"/>
<line x1="43.7009" y1="553.255" x2="25.1876" y2="554.885" stroke="#528E96" stroke-width="0.5"/>
<line x1="7.51284" y1="559.438" x2="25.5197" y2="554.84" stroke="#528E96" stroke-width="0.5"/>
<line x1="-10.4945" y1="564.036" x2="7.51241" y2="559.437" stroke="#528E96" stroke-width="0.5"/>
<line x1="26.5483" y1="571.76" x2="8.76799" y2="573.769" stroke="#528E96" stroke-width="0.5"/>
<circle cx="28.9489" cy="571.167" r="2.57311" transform="rotate(-64.4008 28.9489 571.167)" stroke="#528E96" stroke-width="0.5"/>
<line x1="16.9665" y1="586.79" x2="26.6166" y2="572.132" stroke="#528E96" stroke-width="0.5"/>
<circle cx="16.016" cy="589.091" r="2.57311" transform="rotate(72.7971 16.016 589.091)" stroke="#528E96" stroke-width="0.5"/>
<line x1="64.9751" y1="552.163" x2="47.1947" y2="554.173" stroke="#528E96" stroke-width="0.5"/>
<circle cx="67.3757" cy="551.571" r="2.57311" transform="rotate(-64.4008 67.3757 551.571)" stroke="#528E96" stroke-width="0.5"/>
<line x1="55.3932" y1="567.194" x2="65.0434" y2="552.535" stroke="#528E96" stroke-width="0.5"/>
<circle cx="54.4427" cy="569.494" r="2.57311" transform="rotate(72.7971 54.4427 569.494)" stroke="#528E96" stroke-width="0.5"/>
<line x1="16.2519" y1="525.547" x2="8.97839" y2="541.895" stroke="#528E96" stroke-width="0.5"/>
<circle cx="16.957" cy="523.177" r="2.57311" transform="rotate(-123.97 16.957 523.177)" stroke="#528E96" stroke-width="0.5"/>
<line x1="24.3502" y1="541.407" x2="16.5986" y2="525.661" stroke="#528E96" stroke-width="0.5"/>
<circle cx="25.8532" cy="543.392" r="2.57311" transform="rotate(13.2282 25.8532 543.392)" stroke="#528E96" stroke-width="0.5"/>
</g>
<g opacity="0.6">
<g opacity="0.65">
<circle cx="61.6681" cy="115.431" r="6.96933" transform="rotate(17.4735 61.6681 115.431)" fill="#528E96"/>
<circle cx="56.5392" cy="134.028" r="6.96933" transform="rotate(17.4735 56.5392 134.028)" fill="#528E96"/>
<circle cx="47.7006" cy="85.9396" r="6.96933" transform="rotate(17.4735 47.7006 85.9396)" fill="#528E96"/>
<path d="M52.0203 86.8477L69.7475 92.428" stroke="#528E96" stroke-width="0.5"/>
<circle cx="16.4789" cy="108.348" r="6.96933" transform="rotate(17.4735 16.4789 108.348)" fill="#528E96"/>
<line x1="22.9918" y1="109.421" x2="40.7191" y2="115.001" stroke="#528E96" stroke-width="0.5"/>
<line x1="64.2918" y1="110.236" x2="69.8722" y2="92.5092" stroke="#528E96" stroke-width="0.5"/>
<circle cx="91.9035" cy="81.9107" r="6.96933" transform="rotate(-118.229 91.9035 81.9107)" fill="#528E96"/>
<line x1="86.0455" y1="83.7691" x2="69.6711" y2="92.5598" stroke="#528E96" stroke-width="0.5"/>
<line x1="55.2191" y1="103.707" x2="69.9582" y2="92.3864" stroke="#528E96" stroke-width="0.5"/>
<line x1="40.4796" y1="115.026" x2="55.2187" y2="103.706" stroke="#528E96" stroke-width="0.5"/>
<line x1="52.0782" y1="129.338" x2="40.4008" y2="114.88" stroke="#528E96" stroke-width="0.5"/>
<line x1="31.9506" y1="99.5991" x2="16.3994" y2="108.45" stroke="#528E96" stroke-width="0.5"/>
<circle cx="33.9235" cy="98.1082" r="2.57311" transform="rotate(-87.6005 33.9235 98.1082)" stroke="#528E96" stroke-width="0.5"/>
<line x1="29.0608" y1="117.19" x2="32.156" y2="99.9148" stroke="#528E96" stroke-width="0.5"/>
<circle cx="29.0938" cy="119.679" r="2.57311" transform="rotate(49.5974 29.0938 119.679)" stroke="#528E96" stroke-width="0.5"/>
<line x1="77.57" y1="107.534" x2="62.0188" y2="116.385" stroke="#528E96" stroke-width="0.5"/>
<circle cx="79.5428" cy="106.043" r="2.57311" transform="rotate(-87.6005 79.5428 106.043)" stroke="#528E96" stroke-width="0.5"/>
<line x1="74.6802" y1="125.124" x2="77.7753" y2="107.849" stroke="#528E96" stroke-width="0.5"/>
<circle cx="74.7132" cy="127.613" r="2.57311" transform="rotate(49.5974 74.7132 127.613)" stroke="#528E96" stroke-width="0.5"/>
<line x1="105.17" y1="74.3843" x2="89.6193" y2="83.2353" stroke="#528E96" stroke-width="0.5"/>
<circle cx="107.143" cy="72.8934" r="2.57311" transform="rotate(-87.6005 107.143 72.8934)" stroke="#528E96" stroke-width="0.5"/>
<line x1="102.281" y1="91.975" x2="105.376" y2="74.7" stroke="#528E96" stroke-width="0.5"/>
<circle cx="102.314" cy="94.4638" r="2.57311" transform="rotate(49.5974 102.314 94.4638)" stroke="#528E96" stroke-width="0.5"/>
<line x1="49.8994" y1="69.1079" x2="49.6544" y2="86.9997" stroke="#528E96" stroke-width="0.5"/>
<circle cx="49.6136" cy="66.6517" r="2.57311" transform="rotate(-147.169 49.6136 66.6517)" stroke="#528E96" stroke-width="0.5"/>
<line x1="63.5949" y1="80.5043" x2="50.2675" y2="69.0857" stroke="#528E96" stroke-width="0.5"/>
<circle cx="65.7579" cy="81.7363" r="2.57311" transform="rotate(-9.97152 65.7579 81.7363)" stroke="#528E96" stroke-width="0.5"/>
</g>
<g opacity="0.65">
<circle cx="53.9746" cy="189.332" r="6.96933" transform="rotate(18.3816 53.9746 189.332)" fill="#528E96"/>
<circle cx="48.5517" cy="207.847" r="6.96933" transform="rotate(18.3816 48.5517 207.847)" fill="#528E96"/>
<circle cx="40.4761" cy="159.623" r="6.96933" transform="rotate(18.3816 40.4761 159.623)" fill="#528E96"/>
<path d="M44.7808 160.599L62.4174 166.459" stroke="#528E96" stroke-width="0.5"/>
<circle cx="8.90331" cy="181.533" r="6.96933" transform="rotate(18.3816 8.90331 181.533)" fill="#528E96"/>
<line x1="15.3984" y1="182.709" x2="33.035" y2="188.57" stroke="#528E96" stroke-width="0.5"/>
<line x1="56.6802" y1="184.18" x2="62.5409" y2="166.543" stroke="#528E96" stroke-width="0.5"/>
<circle cx="84.7375" cy="156.301" r="6.96933" transform="rotate(-117.321 84.7375 156.301)" fill="#528E96"/>
<line x1="78.8508" y1="158.065" x2="62.3392" y2="166.595" stroke="#528E96" stroke-width="0.5"/>
<line x1="47.7122" y1="177.507" x2="62.6289" y2="166.422" stroke="#528E96" stroke-width="0.5"/>
<line x1="32.7952" y1="188.592" x2="47.7119" y2="177.507" stroke="#528E96" stroke-width="0.5"/>
<line x1="44.1656" y1="203.086" x2="32.7188" y2="188.444" stroke="#528E96" stroke-width="0.5"/>
<line x1="24.513" y1="173.027" x2="8.8236" y2="181.631" stroke="#528E96" stroke-width="0.5"/>
<circle cx="26.5094" cy="171.568" r="2.57311" transform="rotate(-86.6925 26.5094 171.568)" stroke="#528E96" stroke-width="0.5"/>
<line x1="21.345" y1="190.56" x2="24.7135" y2="173.336" stroke="#528E96" stroke-width="0.5"/>
<circle cx="21.3386" cy="193.05" r="2.57311" transform="rotate(50.5054 21.3386 193.05)" stroke="#528E96" stroke-width="0.5"/>
<line x1="70.0008" y1="181.684" x2="54.3114" y2="190.287" stroke="#528E96" stroke-width="0.5"/>
<circle cx="71.9972" cy="180.224" r="2.57311" transform="rotate(-86.6925 71.9972 180.224)" stroke="#528E96" stroke-width="0.5"/>
<line x1="66.8328" y1="199.216" x2="70.2013" y2="181.992" stroke="#528E96" stroke-width="0.5"/>
<circle cx="66.8264" cy="201.706" r="2.57311" transform="rotate(50.5054 66.8264 201.706)" stroke="#528E96" stroke-width="0.5"/>
<line x1="98.123" y1="148.975" x2="82.4336" y2="157.578" stroke="#528E96" stroke-width="0.5"/>
<circle cx="100.119" cy="147.515" r="2.57311" transform="rotate(-86.6925 100.119 147.515)" stroke="#528E96" stroke-width="0.5"/>
<line x1="94.9551" y1="166.507" x2="98.3236" y2="149.283" stroke="#528E96" stroke-width="0.5"/>
<circle cx="94.9486" cy="168.997" r="2.57311" transform="rotate(50.5054 94.9486 168.997)" stroke="#528E96" stroke-width="0.5"/>
<line x1="42.9415" y1="142.829" x2="42.413" y2="160.714" stroke="#528E96" stroke-width="0.5"/>
<circle cx="42.6946" cy="140.368" r="2.57311" transform="rotate(-146.261 42.6946 140.368)" stroke="#528E96" stroke-width="0.5"/>
<line x1="56.4542" y1="154.441" x2="43.3094" y2="142.813" stroke="#528E96" stroke-width="0.5"/>
<circle cx="58.5978" cy="155.707" r="2.57311" transform="rotate(-9.0635 58.5978 155.707)" stroke="#528E96" stroke-width="0.5"/>
</g>
<circle cx="-6.94929" cy="78.4647" r="6.96933" transform="rotate(40.6733 -6.94929 78.4647)" fill="#528E96"/>
<circle cx="-8.16975" cy="45.8554" r="6.96933" transform="rotate(40.6733 -8.16975 45.8554)" fill="#528E96"/>
<path d="M-4.55713 48.3916L9.53835 60.5042" stroke="#528E96" stroke-width="0.5"/>
<line x1="-2.49186" y1="74.7238" x2="9.62074" y2="60.6283" stroke="#528E96" stroke-width="0.5"/>
<circle cx="34.0456" cy="59.5642" r="6.96933" transform="rotate(-95.0297 34.0456 59.5642)" fill="#528E96"/>
<line x1="27.9294" y1="58.9644" x2="9.41608" y2="60.5938" stroke="#528E96" stroke-width="0.5"/>
<line x1="-8.2584" y1="65.1484" x2="9.74849" y2="60.5496" stroke="#528E96" stroke-width="0.5"/>
<line x1="10.7768" y1="77.4691" x2="-7.0035" y2="79.4782" stroke="#528E96" stroke-width="0.5"/>
<circle cx="13.1774" cy="76.8765" r="2.57311" transform="rotate(-64.4008 13.1774 76.8765)" stroke="#528E96" stroke-width="0.5"/>
<line x1="1.19499" y1="92.4993" x2="10.8451" y2="77.8405" stroke="#528E96" stroke-width="0.5"/>
<circle cx="0.244504" cy="94.7998" r="2.57311" transform="rotate(72.7971 0.244504 94.7998)" stroke="#528E96" stroke-width="0.5"/>
<line x1="49.2043" y1="57.8724" x2="31.424" y2="59.8815" stroke="#528E96" stroke-width="0.5"/>
<circle cx="51.6049" cy="57.2798" r="2.57311" transform="rotate(-64.4008 51.6049 57.2798)" stroke="#528E96" stroke-width="0.5"/>
<line x1="39.6225" y1="72.9026" x2="49.2726" y2="58.2438" stroke="#528E96" stroke-width="0.5"/>
<circle cx="38.672" cy="75.2031" r="2.57311" transform="rotate(72.7971 38.672 75.2031)" stroke="#528E96" stroke-width="0.5"/>
<line x1="0.480612" y1="31.2569" x2="-6.79285" y2="47.6054" stroke="#528E96" stroke-width="0.5"/>
<circle cx="1.18571" cy="28.8867" r="2.57311" transform="rotate(-123.97 1.18571 28.8867)" stroke="#528E96" stroke-width="0.5"/>
<line x1="8.57893" y1="47.1168" x2="0.827389" y2="31.3714" stroke="#528E96" stroke-width="0.5"/>
<circle cx="10.0819" cy="49.1021" r="2.57311" transform="rotate(13.2282 10.0819 49.1021)" stroke="#528E96" stroke-width="0.5"/>
<line x1="-12.2123" y1="150.027" x2="-0.0997218" y2="135.932" stroke="#528E96" stroke-width="0.5"/>
<circle cx="24.3256" cy="134.867" r="6.96933" transform="rotate(-95.0297 24.3256 134.867)" fill="#528E96"/>
<line x1="18.2094" y1="134.268" x2="-0.303891" y2="135.897" stroke="#528E96" stroke-width="0.5"/>
<line x1="-17.9789" y1="140.452" x2="0.028034" y2="135.853" stroke="#528E96" stroke-width="0.5"/>
<line x1="1.05712" y1="152.773" x2="-16.7232" y2="154.782" stroke="#528E96" stroke-width="0.5"/>
<circle cx="3.45771" cy="152.18" r="2.57311" transform="rotate(-64.4008 3.45771 152.18)" stroke="#528E96" stroke-width="0.5"/>
<line x1="-8.52473" y1="167.803" x2="1.1254" y2="153.144" stroke="#528E96" stroke-width="0.5"/>
<line x1="39.4844" y1="133.176" x2="21.704" y2="135.185" stroke="#528E96" stroke-width="0.5"/>
<circle cx="41.885" cy="132.583" r="2.57311" transform="rotate(-64.4008 41.885 132.583)" stroke="#528E96" stroke-width="0.5"/>
<line x1="29.9025" y1="148.206" x2="39.5526" y2="133.548" stroke="#528E96" stroke-width="0.5"/>
<circle cx="28.952" cy="150.507" r="2.57311" transform="rotate(72.7971 28.952 150.507)" stroke="#528E96" stroke-width="0.5"/>
<circle cx="0.361462" cy="124.409" r="2.57311" transform="rotate(13.2282 0.361462 124.409)" stroke="#528E96" stroke-width="0.5"/>
<circle cx="18.81" cy="208.95" r="6.96933" transform="rotate(-95.0297 18.81 208.95)" fill="#528E96"/>
<line x1="12.6938" y1="208.351" x2="-5.81952" y2="209.98" stroke="#528E96" stroke-width="0.5"/>
<circle cx="-2.05816" cy="226.263" r="2.57311" transform="rotate(-64.4008 -2.05816 226.263)" stroke="#528E96" stroke-width="0.5"/>
<line x1="33.9687" y1="207.259" x2="16.1884" y2="209.268" stroke="#528E96" stroke-width="0.5"/>
<circle cx="36.3693" cy="206.667" r="2.57311" transform="rotate(-64.4008 36.3693 206.667)" stroke="#528E96" stroke-width="0.5"/>
<line x1="24.3869" y1="222.289" x2="34.037" y2="207.631" stroke="#528E96" stroke-width="0.5"/>
<circle cx="23.4364" cy="224.59" r="2.57311" transform="rotate(72.7971 23.4364 224.59)" stroke="#528E96" stroke-width="0.5"/>
</g>
</svg>
