<svg width="20" height="29" viewBox="0 0 20 29" fill="none" xmlns="http://www.w3.org/2000/svg">
<g clip-path="url(#clip0_384_313)">
<path d="M19.8516 5.69922L18.0566 26.6673L9.98774 28.9998L1.94111 26.6706L0.147949 5.69922H19.8516Z" fill="#E44D26"/>
<path d="M10 27.2171L16.52 25.3323L18.054 7.41406H10V27.2171Z" fill="#F16529"/>
<path d="M6.51025 12.5584H9.99976V9.98633H3.81445L3.8735 10.6764L4.47976 17.7643H9.99976V15.1922H6.73567L6.51025 12.5584Z" fill="#EBEBEB"/>
<path d="M7.06602 19.0498H4.58984L4.93543 23.0883L9.98827 24.5509L9.99963 24.5476V21.8716L9.98882 21.8746L7.24164 21.1011L7.06602 19.0498Z" fill="#EBEBEB"/>
<path d="M1.98096 0H3.2345V1.29139H4.38119V0H5.63479V3.91066H4.38125V2.60114H3.23455V3.91066H1.98101L1.98096 0Z" fill="white"/>
<path d="M7.28325 1.29683H6.17969V0H9.64096V1.29683H8.5369V3.91066H7.28331L7.28325 1.29683Z" fill="white"/>
<path d="M10.1904 0H11.4975L12.3016 1.37409L13.1048 0H14.4124V3.91066H13.164V1.97232L12.3016 3.36278H12.28L11.417 1.97232V3.91066H10.1904V0Z" fill="white"/>
<path d="M15.0361 0H16.2901V2.61802H18.0529V3.91066H15.0361V0Z" fill="white"/>
<path d="M9.99121 17.7634H13.0287L12.7424 21.0992L9.99121 21.8735V24.5494L15.0481 23.088L15.0852 22.6535L15.6648 15.8821L15.725 15.1914H9.99121V17.7634Z" fill="white"/>
<path d="M9.99121 12.5521V12.5584H15.9495L15.9989 11.9803L16.1113 10.6764L16.1703 9.98633H9.99121V12.5521Z" fill="white"/>
</g>
<defs>
<clipPath id="clip0_384_313">
<rect width="20" height="29" fill="white"/>
</clipPath>
</defs>
</svg>
