<svg width="26" height="29" viewBox="0 0 26 29" fill="none" xmlns="http://www.w3.org/2000/svg">
<g clip-path="url(#clip0_384_284)">
<path d="M24.3688 13.9409C24.3688 13.242 24.0873 12.5717 23.5863 12.0775C23.0852 11.5833 22.4056 11.3057 21.697 11.3057C21.6017 11.3057 21.5084 11.3107 21.4161 11.3198L25.0865 0.644531H9.49056L13.1548 11.3107C13.1014 11.3107 13.0471 11.3057 12.9928 11.3057C12.3556 11.3063 11.7395 11.5314 11.2557 11.9404C10.7719 12.3495 10.4522 12.9155 10.3543 13.5366C10.2563 14.1576 10.3865 14.7927 10.7214 15.3274C11.0563 15.8621 11.5739 16.2612 12.1808 16.4527C11.6125 17.4179 10.9049 18.2964 10.0801 19.0606C9.00669 20.0726 7.73163 20.8532 6.33591 21.353C5.55383 20.9872 4.9422 20.3415 4.62517 19.5471C4.30814 18.7527 4.30947 17.8691 4.62889 17.0756C4.70783 16.8936 4.7878 16.7095 4.86469 16.5255C5.4607 16.3872 5.99052 16.0513 6.3656 15.5739C6.74068 15.0966 6.9383 14.5068 6.92543 13.903C6.91257 13.2992 6.69 12.7181 6.29492 12.2567C5.89984 11.7954 5.35619 11.4817 4.75482 11.3682C4.15345 11.2547 3.53079 11.3482 2.99091 11.633C2.45103 11.9179 2.02663 12.3769 1.78864 12.9333C1.55065 13.4898 1.51348 14.1099 1.68336 14.6901C1.85323 15.2703 2.21985 15.7754 2.72195 16.121C1.86848 17.6463 1.21758 19.2735 0.785279 20.9627C0.422345 23.1216 0.785279 25.412 2.67684 26.7073C7.08536 29.7217 11.8722 24.8386 16.9184 23.612C18.7474 23.1671 20.7548 23.2389 22.3655 22.3177C22.9477 21.9912 23.4498 21.5421 23.8359 21.0024C24.222 20.4626 24.4827 19.8456 24.5995 19.1951C24.7065 18.5756 24.6862 17.9412 24.5399 17.3296C24.3935 16.718 24.1241 16.1416 23.7475 15.6346C24.1494 15.1609 24.3694 14.5627 24.3688 13.9449V13.9409ZM15.6656 13.955V13.9459C15.6658 13.4925 15.5474 13.0467 15.3218 12.6517C15.0963 12.2567 14.7711 11.9257 14.3779 11.6909L17.2936 5.86538L20.2156 11.7445C19.849 11.9848 19.5485 12.3108 19.3408 12.6935C19.1331 13.0763 19.0247 13.5037 19.0253 13.9378C19.0253 13.957 19.0253 13.9763 19.0253 13.9955L15.6656 13.955Z" fill="#99425B"/>
<path d="M25.0218 13.9405C25.0205 13.1764 24.7493 12.4367 24.2547 11.8487C23.7601 11.2607 23.0731 10.8611 22.3121 10.7188L25.9968 0H8.58005L12.2709 10.74C11.6262 10.8816 11.039 11.2094 10.584 11.6816C10.1291 12.1538 9.82705 12.749 9.71649 13.3912C9.60594 14.0334 9.69186 14.6935 9.96331 15.2873C10.2347 15.8812 10.6794 16.3818 11.2405 16.7253C10.777 17.4048 10.2378 18.0309 9.63296 18.592C8.69675 19.4752 7.59679 20.1721 6.39322 20.6448C5.82826 20.3212 5.40003 19.8081 5.18661 19.199C4.9732 18.59 4.98881 17.9256 5.2306 17.327L5.27161 17.233L5.34747 17.056C6.03047 16.8223 6.61767 16.3755 7.02015 15.7832C7.42264 15.1909 7.6185 14.4853 7.57807 13.7734C7.53765 13.0615 7.26314 12.3819 6.79611 11.8377C6.32909 11.2934 5.69497 10.914 4.98979 10.757C4.28461 10.6 3.54676 10.6739 2.88795 10.9675C2.22915 11.2611 1.68528 11.7584 1.33869 12.3842C0.9921 13.0099 0.861661 13.73 0.967126 14.4354C1.07259 15.1408 1.40822 15.7931 1.92318 16.2936C1.81246 16.5271 1.69558 16.7638 1.57563 17.0075C0.911188 18.2131 0.427704 19.5074 0.140297 20.85C-0.336438 23.6814 0.43249 25.9496 2.30457 27.2287C3.31097 27.9386 4.51827 28.3182 5.75552 28.3137C7.94132 28.3137 10.1528 27.2307 12.317 26.171C13.8291 25.36 15.4245 24.7102 17.0762 24.2325C17.6855 24.0947 18.3014 23.987 18.9216 23.91C20.2351 23.8065 21.5159 23.4535 22.6935 22.8704C23.3578 22.4963 23.9307 21.9825 24.3713 21.3657C24.8119 20.7488 25.1096 20.0439 25.2432 19.3009C25.4614 18.0388 25.2101 16.7414 24.5358 15.6474C24.8549 15.1337 25.0224 14.5429 25.0218 13.9405ZM23.7166 13.9405C23.7166 14.3345 23.5982 14.7196 23.3763 15.0472C23.1543 15.3748 22.8389 15.6301 22.4698 15.7809C22.1008 15.9317 21.6947 15.9711 21.3029 15.8943C20.9111 15.8174 20.5512 15.6277 20.2688 15.3491C19.9863 15.0705 19.7939 14.7155 19.716 14.3291C19.6381 13.9427 19.6781 13.5421 19.8309 13.1781C19.9838 12.8141 20.2427 12.503 20.5748 12.2841C20.907 12.0652 21.2975 11.9484 21.6969 11.9484C22.2323 11.9492 22.7456 12.1593 23.1242 12.5328C23.5028 12.9062 23.7158 13.4124 23.7166 13.9405ZM24.1749 1.28726L20.9208 10.7521C20.7815 10.7856 20.6446 10.8278 20.5107 10.8785L17.2966 4.40683L14.0722 10.8401C13.9318 10.7924 13.7883 10.7539 13.6427 10.7248L10.3998 1.28726H24.1749ZM12.9927 11.9484C13.3921 11.9484 13.7826 12.0652 14.1148 12.2841C14.4469 12.503 14.7058 12.8141 14.8586 13.1781C15.0115 13.5421 15.0515 13.9427 14.9736 14.3291C14.8956 14.7155 14.7033 15.0705 14.4208 15.3491C14.1384 15.6277 13.7785 15.8174 13.3867 15.8943C12.9949 15.9711 12.5888 15.9317 12.2198 15.7809C11.8507 15.6301 11.5353 15.3748 11.3133 15.0472C11.0914 14.7196 10.9729 14.3345 10.9729 13.9405C10.9735 13.4123 11.1865 12.9059 11.5651 12.5325C11.9438 12.159 12.4572 11.9489 12.9927 11.9484ZM4.25457 11.9676C4.65403 11.9676 5.04453 12.0844 5.37667 12.3033C5.70881 12.5222 5.96768 12.8334 6.12055 13.1974C6.27341 13.5614 6.31341 13.9619 6.23548 14.3483C6.15755 14.7347 5.96519 15.0897 5.68273 15.3683C5.40026 15.6469 5.04039 15.8366 4.6486 15.9135C4.25681 15.9904 3.85071 15.9509 3.48166 15.8001C3.11261 15.6494 2.79717 15.394 2.57524 15.0664C2.35331 14.7388 2.23486 14.3537 2.23486 13.9597C2.2354 13.4317 2.44822 12.9255 2.82665 12.552C3.20508 12.1786 3.71925 11.9684 4.25457 11.9676ZM23.9565 19.0804C23.8553 19.6379 23.631 20.1666 23.2995 20.629C22.968 21.0913 22.5375 21.4762 22.0383 21.7561C21.0032 22.2527 19.8819 22.5513 18.734 22.6358C18.086 22.7278 17.4166 22.8229 16.7614 22.9827C15.0175 23.4809 13.3332 24.1634 11.7378 25.0182C8.49393 26.6068 5.68888 27.979 3.05197 26.174C1.11735 24.8514 1.20654 22.4043 1.4321 21.0634C1.69713 19.8426 2.1402 18.6661 2.74747 17.5707C2.8418 17.3786 2.93407 17.1915 3.02429 17.0054C3.29981 17.1136 3.58875 17.185 3.88344 17.2178C3.62208 18.1268 3.69479 19.0977 4.08874 19.959C4.48268 20.8203 5.17252 21.5166 6.03643 21.925L6.28762 22.0524L6.55315 21.9583C8.03476 21.4313 9.38831 20.6047 10.527 19.5314C11.2788 18.8331 11.9394 18.0451 12.4934 17.1854C13.2019 17.2917 13.9264 17.1692 14.5585 16.8362C15.1907 16.5031 15.6968 15.9774 16.0012 15.3374C16.3056 14.6974 16.3921 13.9775 16.2477 13.2851C16.1033 12.5927 15.7358 11.9649 15.2 11.4954L17.2894 7.3282L19.4004 11.5753C18.7998 12.1462 18.4389 12.9191 18.3895 13.7404C18.3401 14.5617 18.6058 15.3712 19.1338 16.0081C19.6618 16.6451 20.4134 17.0628 21.2393 17.1782C22.0652 17.2937 22.9049 17.0984 23.5916 16.6313C23.9724 17.3888 24.0998 18.246 23.9555 19.0794L23.9565 19.0804Z" fill="white"/>
</g>
<defs>
<clipPath id="clip0_384_284">
<rect width="26" height="28.3137" fill="white"/>
</clipPath>
</defs>
</svg>
