<svg width="29" height="29" viewBox="0 0 29 29" fill="none" xmlns="http://www.w3.org/2000/svg">
<g clip-path="url(#clip0_384_338)">
<path d="M24.65 0H4.35C1.94756 0 0 1.94756 0 4.35V24.65C0 27.0524 1.94756 29 4.35 29H24.65C27.0524 29 29 27.0524 29 24.65V4.35C29 1.94756 27.0524 0 24.65 0Z" fill="#F7DF1E"/>
<path d="M18.3516 20.957C18.918 21.9199 19.7109 22.5996 21.0137 22.5996C22.1465 22.5996 22.8828 22.0332 22.8828 21.2402C22.8828 20.334 22.1465 19.9941 20.9004 19.4277L20.2207 19.1445C18.2383 18.2949 16.9355 17.2754 16.9355 15.0664C16.9355 13.0273 18.4648 11.4414 20.9004 11.4414C22.6562 11.4414 23.9023 12.0645 24.752 13.6504L22.6562 15.0098C22.2031 14.1602 21.6934 13.8203 20.9004 13.8203C20.1074 13.8203 19.5977 14.3301 19.5977 15.0098C19.5977 15.8027 20.1074 16.1426 21.2969 16.6523L21.9766 16.9355C24.2988 17.9551 25.6016 18.918 25.6016 21.2402C25.6016 23.6758 23.6758 25.0352 21.0703 25.0352C18.5215 25.0352 16.8789 23.8457 16.0859 22.2598L18.3516 20.957ZM8.72266 21.1836C9.17578 21.9199 9.51562 22.5996 10.4785 22.5996C11.3848 22.5996 11.9512 22.2598 11.9512 20.9004V11.498H14.6699V20.7871C14.6699 23.6191 13.0273 24.8652 10.5918 24.8652C8.38281 24.8652 7.13672 23.7324 6.51367 22.373L8.72266 21.1836Z" fill="black"/>
</g>
<defs>
<clipPath id="clip0_384_338">
<rect width="29" height="29" fill="white"/>
</clipPath>
</defs>
</svg>
