<svg width="23" height="29" viewBox="0 0 23 29" fill="none" xmlns="http://www.w3.org/2000/svg">
<g clip-path="url(#clip0_231_3651)">
<path d="M22.1588 22.8785C21.9595 22.6458 21.8678 22.2158 21.7661 21.7567C21.6665 21.2997 21.5529 20.8074 21.1921 20.4895V20.4875C21.0605 20.3686 20.9102 20.2744 20.7477 20.2091C21.2499 18.6615 21.0526 17.1201 20.5484 15.7282C19.9265 14.0185 18.8443 12.5291 18.0172 11.5112C17.0924 10.2938 16.1875 9.13882 16.2035 7.4333C16.2314 4.82829 16.4785 -0.00158041 12.0818 -0.0078125C11.9025 -0.0078125 11.7171 0.000496881 11.5238 0.0171158C6.60887 0.428434 7.91233 5.83997 7.83859 7.65143C7.7489 8.97679 7.4918 10.0196 6.61684 11.3159C5.59041 12.5893 4.14543 14.648 3.45982 16.7939C3.13694 17.8056 2.98148 18.838 3.12498 19.8144C3.07914 19.8559 3.03729 19.8996 2.99743 19.9453C2.69647 20.2797 2.47325 20.6869 2.22412 20.9611C1.99292 21.2021 1.66207 21.2935 1.29933 21.4285C0.934601 21.5656 0.535988 21.765 0.294827 22.2491V22.2511C0.187834 22.4688 0.13506 22.7109 0.14136 22.9554C0.14136 23.1797 0.17325 23.4062 0.205139 23.6243C0.272903 24.0813 0.340667 24.5113 0.250979 24.8021C-0.0360226 25.6227 -0.0738906 26.1877 0.129402 26.5991C0.332695 27.0125 0.747253 27.1932 1.21961 27.295C2.16233 27.5027 3.43989 27.4508 4.44639 28.0054C5.52264 28.5933 6.61684 28.8011 7.48781 28.5954C7.79235 28.5331 8.07848 28.3968 8.32298 28.1975C8.56747 27.9983 8.76342 27.7417 8.89491 27.4487C9.57654 27.4445 10.3239 27.1454 11.5218 27.0748C12.335 27.0083 13.3514 27.376 14.5174 27.3095C14.5476 27.4415 14.5931 27.5692 14.6529 27.6897L14.6549 27.6918C15.1073 28.637 15.9504 29.067 16.8473 28.9943C17.7441 28.9195 18.6968 28.369 19.4681 27.4113C20.2056 26.4807 21.4253 26.0963 22.2345 25.5874C22.6391 25.3319 22.968 25.014 22.9919 24.5508C23.0178 24.0896 22.7567 23.5723 22.1588 22.8785Z" fill="#202020"/>
<path d="M22.6234 24.5284C22.6095 24.813 22.4102 25.027 22.0454 25.2555C21.312 25.7167 20.0145 26.1155 19.1874 27.1625C18.4659 28.0558 17.5889 28.544 16.8156 28.6084C16.0443 28.6707 15.3786 28.3383 14.984 27.5157V27.5115C14.7388 27.0275 14.8405 26.2651 15.0458 25.4612C15.2511 24.6572 15.546 23.8304 15.5859 23.1595C15.6258 22.2973 15.6736 21.5453 15.8131 20.9658C15.9526 20.3841 16.1699 19.9935 16.5565 19.7713C16.5743 19.7613 16.5922 19.7516 16.6103 19.7422C16.6542 20.488 17.0089 21.2483 17.6348 21.4124C18.3184 21.5994 19.305 20.9886 19.7215 20.488L19.9647 20.4797C20.3314 20.4693 20.6363 20.4921 20.9512 20.7767C21.1924 20.9886 21.308 21.3937 21.4076 21.8424C21.5073 22.2932 21.587 22.7834 21.884 23.1324C22.456 23.7972 22.6414 24.2418 22.6234 24.5284ZM8.7138 26.637V26.6432C8.64604 27.5468 8.15574 28.0392 7.40635 28.2178C6.65496 28.3965 5.6365 28.2178 4.62004 27.6653C3.49396 27.042 2.15461 27.1044 1.29759 26.9174C0.867092 26.8239 0.58607 26.6827 0.458513 26.423C0.330957 26.1612 0.326971 25.7063 0.600021 24.9273V24.9252L0.602014 24.9211C0.737543 24.4869 0.637889 24.0112 0.572118 23.5645C0.506347 23.12 0.474458 22.7128 0.619952 22.4303L0.621945 22.4282C0.809293 22.0522 1.08434 21.9172 1.42515 21.7905C1.76397 21.6617 2.16857 21.562 2.48746 21.2296L2.48945 21.2275C2.78442 20.9014 3.00964 20.4942 3.26874 20.2054C3.48798 19.9624 3.70721 19.8004 4.03607 19.7983H4.04604C4.10814 19.7989 4.1701 19.8044 4.23139 19.8149C4.66987 19.8834 5.05054 20.2034 5.41926 20.7227L6.48156 22.7398V22.7419C6.76458 23.3568 7.36051 24.034 7.86675 24.7237C8.37299 25.4155 8.76363 26.1072 8.7138 26.637Z" fill="#F8BF11"/>
<path d="M14.011 7.82615C13.9253 7.65165 13.7519 7.48547 13.453 7.35875C12.8351 7.08246 12.5681 7.06376 12.2233 6.8311C11.6652 6.45509 11.2008 6.32422 10.8161 6.32422C10.6315 6.32515 10.4483 6.35815 10.274 6.42185C9.80367 6.58804 9.49275 6.9412 9.29743 7.13231C9.25757 7.17178 9.20974 7.20502 9.09015 7.2985C8.97057 7.38783 8.79119 7.52701 8.53209 7.73059C8.2989 7.90925 8.22516 8.14607 8.30488 8.42028C8.38461 8.69449 8.63773 9.01233 9.10211 9.28654C9.3911 9.46312 9.59041 9.70201 9.81762 9.89105C9.93174 9.98992 10.0585 10.0717 10.1943 10.1341C10.3378 10.1985 10.5052 10.2421 10.7125 10.2546C11.2068 10.2858 11.5695 10.1299 11.8884 9.94091C12.2073 9.74979 12.4784 9.51713 12.7893 9.41118C13.4271 9.20345 13.8835 8.7859 14.027 8.38704C14.0632 8.29786 14.0805 8.20158 14.0778 8.10478C14.075 8.00798 14.0522 7.91294 14.011 7.82615Z" fill="#D6A312"/>
<path d="M12.3928 8.80897C11.8846 9.08526 11.2927 9.41971 10.6609 9.41971C10.031 9.41971 9.53278 9.11642 9.17602 8.81936C8.99664 8.67394 8.85115 8.52437 8.74153 8.41843C8.55019 8.26262 8.57411 8.04242 8.65184 8.04865C8.78338 8.06527 8.80331 8.246 8.88503 8.32702C8.99664 8.43504 9.13616 8.5763 9.30557 8.71549C9.64439 8.99593 10.0968 9.26807 10.6609 9.26807C11.2269 9.26807 11.8846 8.92322 12.2872 8.68641C12.5164 8.55345 12.8054 8.31456 13.0426 8.13383C13.2219 7.99464 13.216 7.82845 13.3654 7.84715C13.5149 7.86585 13.4053 8.03204 13.196 8.22108C12.9868 8.41219 12.6579 8.66563 12.3928 8.80897Z" fill="#202020"/>
<path d="M20.1638 20.0973C20.0947 20.0951 20.0256 20.0951 19.9565 20.0973H19.9366C20.112 19.5218 19.7253 19.1001 18.6989 18.6161C17.6346 18.1279 16.7856 18.1757 16.6421 19.1666C16.6321 19.2185 16.6241 19.2705 16.6201 19.3245C16.5376 19.355 16.4576 19.3925 16.381 19.4367C15.8787 19.7213 15.6057 20.2385 15.4542 20.8742C15.3027 21.5078 15.2589 22.2744 15.217 23.1385C15.1911 23.5706 15.0197 24.1564 14.8463 24.7797C13.1024 26.0759 10.6808 26.6368 8.62394 25.1743C8.48443 24.9458 8.32498 24.7173 8.15956 24.493C8.05454 24.35 7.94824 24.208 7.84067 24.0671C8.02376 24.0722 8.20581 24.0368 8.37481 23.9632C8.45925 23.9263 8.53564 23.8719 8.59935 23.8034C8.66307 23.7348 8.71279 23.6535 8.74552 23.5644C8.87108 23.2112 8.74552 22.7168 8.34292 22.1518C7.94231 21.5847 7.26268 20.9469 6.26415 20.3071C5.5307 19.8293 5.12013 19.2476 4.9288 18.6161C4.73547 17.9825 4.76138 17.297 4.90887 16.6218C5.19387 15.3235 5.92533 14.0605 6.38971 13.269C6.51528 13.1734 6.43556 13.4476 5.91935 14.4468C5.45696 15.3609 4.58997 17.4694 5.77585 19.1168C5.80774 17.9451 6.07481 16.7486 6.52724 15.633C7.18296 14.0812 8.55618 11.3931 8.6638 9.24928C8.7216 9.29083 8.91294 9.42793 9.00063 9.47779C9.25176 9.63359 9.4411 9.86002 9.68625 10.0657C10.0059 10.3469 10.4141 10.4949 10.8323 10.4812C11.3106 10.4812 11.6833 10.317 11.9922 10.1322C12.331 9.93273 12.5981 9.70838 12.8552 9.6232C13.3934 9.44663 13.8239 9.13502 14.067 8.77148C14.4856 10.4957 15.4622 12.9823 16.088 14.1955C16.4208 14.8395 17.0845 16.2084 17.3695 17.8558C17.5509 17.8516 17.7502 17.8766 17.9655 17.9347C18.7129 15.9135 17.3297 13.7343 16.6979 13.1277C16.4427 12.8701 16.4288 12.7538 16.5583 12.76C17.242 13.3915 18.1428 14.665 18.4717 16.1004C18.6212 16.7548 18.6511 17.4424 18.4916 18.1217C18.5713 18.157 18.6511 18.1923 18.7308 18.2339C19.9326 18.8425 20.3771 19.3723 20.1638 20.0973Z" fill="white"/>
<path d="M11.5995 14.6289C10.4913 14.6331 9.40909 15.1503 8.49427 16.1163C7.57746 17.0802 6.87192 18.4471 6.46533 20.0384L6.58691 20.1173V20.1256C7.52365 20.7447 8.19133 21.3679 8.60389 21.9495C9.04038 22.5644 9.2337 23.1627 9.04835 23.6821C8.9505 23.9444 8.75704 24.1557 8.51022 24.27L8.4285 24.3011C8.57599 24.5026 8.71949 24.7104 8.85303 24.9243C10.7345 26.2289 12.9229 25.747 14.5672 24.567C14.7266 23.9895 14.8721 23.4535 14.892 23.117C14.9339 22.2549 14.9757 21.4717 15.1392 20.7904C15.3026 20.1048 15.6215 19.4816 16.2234 19.1389C16.2573 19.1181 16.2912 19.1077 16.325 19.0911C16.3356 19.0251 16.3503 18.9599 16.3689 18.8958C15.8866 17.6037 15.191 16.5276 14.3559 15.7798C13.5188 15.0319 12.5681 14.6351 11.6015 14.6289H11.5995ZM16.323 19.1056L16.3191 19.116V19.1119L16.3211 19.1035L16.323 19.1056Z" fill="#E6E6E6"/>
<path d="M14.0672 5.84237C14.0758 6.33398 13.9248 6.8142 13.6387 7.20512C13.4956 7.13849 13.3508 7.07615 13.2042 7.01816L12.9511 6.92468C13.0089 6.85197 13.1205 6.76888 13.1644 6.66086C13.2275 6.50054 13.2613 6.32933 13.264 6.15606L13.266 6.13528C13.271 5.96884 13.2473 5.80281 13.1963 5.64502C13.1561 5.50093 13.0822 5.36955 12.981 5.26279C12.9409 5.21842 12.8928 5.18274 12.8395 5.15779C12.7861 5.13283 12.7286 5.1191 12.6701 5.11737H12.6561C12.5445 5.11899 12.4374 5.16336 12.3552 5.24201C12.2464 5.34022 12.1628 5.46518 12.112 5.60555C12.0492 5.76597 12.0154 5.93712 12.0124 6.11035V6.13113C12.0092 6.22845 12.0152 6.32586 12.0303 6.42196C11.8042 6.31318 11.5677 6.22963 11.3248 6.17267C11.3132 6.08104 11.3066 5.9888 11.3048 5.89638V5.86938C11.2964 5.55012 11.3563 5.2329 11.4802 4.9408C11.5858 4.67184 11.7577 4.43677 11.9785 4.25942C12.1738 4.09501 12.4171 4.00489 12.6681 4.00391H12.6801C12.9292 4.00391 13.1425 4.07869 13.3617 4.24488C13.5874 4.41711 13.7644 4.64964 13.8739 4.91795C13.9995 5.20462 14.0613 5.48507 14.0672 5.81745L14.0692 5.84237H14.0672ZM10.3003 6.18306C10.1052 6.24126 9.91923 6.32873 9.74826 6.44273C9.76163 6.33941 9.76296 6.23478 9.75225 6.13113V6.11451C9.74005 5.97725 9.70778 5.84275 9.65658 5.71565C9.61556 5.60382 9.55004 5.50352 9.46524 5.42275C9.43409 5.39088 9.39691 5.36612 9.35608 5.35002C9.31525 5.33393 9.27166 5.32686 9.22807 5.32926C9.14436 5.33757 9.0746 5.37912 9.00883 5.46429C8.93882 5.55956 8.89105 5.67051 8.86932 5.78836C8.83824 5.92786 8.82949 6.07175 8.84341 6.21422V6.23084C8.85486 6.3689 8.88715 6.50421 8.93907 6.63177C8.98679 6.75949 9.06666 6.87144 9.17027 6.95584L8.96698 7.12203L8.81152 7.23836C8.67343 7.09682 8.56487 6.92709 8.49263 6.73979C8.38699 6.49051 8.3292 6.24123 8.31325 5.94832V5.94624C8.295 5.67273 8.3254 5.39806 8.40294 5.13607C8.46243 4.90759 8.57701 4.69877 8.73578 4.52948C8.80239 4.45283 8.88356 4.39145 8.97414 4.34925C9.06472 4.30705 9.16273 4.28495 9.26195 4.28435C9.42937 4.28435 9.57686 4.34252 9.73032 4.47131C9.90566 4.62141 10.042 4.81498 10.1269 5.03428C10.2326 5.28356 10.2864 5.53285 10.3043 5.82783C10.3103 5.95247 10.3103 6.06881 10.3003 6.18306Z" fill="white"/>
<path d="M11.1331 6.88695C11.153 6.95758 11.2627 6.94719 11.3264 6.98043C11.3803 7.00951 11.4261 7.07391 11.4859 7.07599C11.5457 7.07807 11.6374 7.05521 11.6453 6.99289C11.6553 6.91395 11.5417 6.86202 11.4699 6.83294C11.3763 6.79347 11.2567 6.77477 11.169 6.8267C11.1491 6.83709 11.1271 6.86202 11.1331 6.88695ZM10.4913 6.88695C10.4714 6.95758 10.3618 6.94719 10.3 6.98043C10.2442 7.00951 10.2004 7.07391 10.1386 7.07599C10.0788 7.07807 9.9871 7.05521 9.97913 6.99289C9.96916 6.91395 10.0828 6.86202 10.1545 6.83294C10.2482 6.79347 10.3698 6.77477 10.4575 6.8267C10.4774 6.83709 10.4973 6.86202 10.4913 6.88695Z" fill="#202020"/>
</g>
<defs>
<clipPath id="clip0_231_3651">
<rect width="23" height="29" fill="white"/>
</clipPath>
</defs>
</svg>
