<svg width="29" height="29" viewBox="0 0 29 29" fill="none" xmlns="http://www.w3.org/2000/svg">
<g clip-path="url(#clip0_228_101)">
<path d="M0 19.5453V9.38174C0 1.17272 1.1715 0 9.37206 0H19.555C27.7555 0 28.927 1.17272 28.927 9.38174V19.5453C28.927 27.7543 27.7555 28.927 19.555 28.927H9.37206C1.1715 28.927 0 27.7543 0 19.5453Z" fill="url(#paint0_linear_228_101)"/>
<path d="M6.24308 5.45312C4.82121 14.4646 5.5651 22.9016 5.5651 22.9016H10.0096C9.58672 20.652 8.0696 10.3741 9.33164 10.3402C10.008 10.4476 13.0982 19.0597 13.0982 19.0597C13.0982 19.0597 13.7787 18.975 14.4635 18.975C15.1484 18.975 15.8289 19.0597 15.8289 19.0597C15.8289 19.0597 18.9191 10.4476 19.5955 10.3402C20.8575 10.3741 19.3404 20.652 18.9175 22.9016H23.362C23.362 22.9016 24.1059 14.4646 22.684 5.45312H18.5691C17.7858 5.46239 14.806 10.6886 14.4635 10.6886C14.1211 10.6886 11.1412 5.46239 10.358 5.45312H6.24308Z" fill="url(#paint1_linear_228_101)"/>
<path d="M13.5867 21.8488C13.5867 22.4297 13.1157 22.9007 12.5348 22.9007C11.9539 22.9007 11.4829 22.4297 11.4829 21.8488C11.4829 21.2678 11.9539 20.7969 12.5348 20.7969C13.1157 20.7969 13.5867 21.2678 13.5867 21.8488Z" fill="url(#paint2_radial_228_101)"/>
<path d="M17.4441 21.8488C17.4441 22.4297 16.9732 22.9007 16.3922 22.9007C15.8113 22.9007 15.3403 22.4297 15.3403 21.8488C15.3403 21.2678 15.8113 20.7969 16.3922 20.7969C16.9732 20.7969 17.4441 21.2678 17.4441 21.8488Z" fill="url(#paint3_radial_228_101)"/>
<path opacity="0.1" d="M22.4744 5.75103C23.1158 10.0926 23.2663 14.2593 23.2545 17.3631C23.2424 20.5377 23.0605 22.6003 23.0605 22.6003H19.3194L18.9173 22.9016H23.3618C23.3618 22.9016 24.1057 14.4646 22.6839 5.45312L22.4744 5.75103ZM10.6969 5.64145C11.8644 6.94022 13.8839 10.3873 14.1621 10.3873C13.4217 9.44047 11.6033 6.41992 10.6969 5.64145ZM9.03016 10.0389C7.76812 10.0728 9.28524 20.3507 9.70813 22.6003H5.82829L5.56494 22.9016H10.0095C9.5887 20.6634 8.08493 10.4768 9.31265 10.3402C9.19832 10.1685 9.09958 10.0499 9.03016 10.0389ZM19.294 10.0389C18.6176 10.1462 15.5274 18.7584 15.5274 18.7584C15.5274 18.7584 14.8469 18.6737 14.1621 18.6737C13.7569 18.6737 13.408 18.6986 13.1721 18.7206L13.098 19.0597C13.098 19.0597 13.7786 18.975 14.4634 18.975C15.1482 18.975 15.8288 19.0597 15.8288 19.0597C15.8288 19.0597 18.8957 10.5041 19.5859 10.3402C19.5115 10.1518 19.4196 10.0423 19.294 10.0389Z" fill="black"/>
<path opacity="0.3" d="M6.24308 5.45312C4.82121 14.4646 5.5651 22.9016 5.5651 22.9016L5.8268 22.6075C5.69289 20.6169 5.3351 13.4187 6.5444 5.75445H10.6593C10.7465 5.75547 10.8634 5.82689 10.9983 5.94278C10.7289 5.64306 10.5049 5.45486 10.358 5.45312H6.24308ZM18.5691 5.45312C17.7858 5.46239 14.806 10.6886 14.4635 10.6886C14.6032 10.8672 14.7166 10.9899 14.7649 10.9899C15.1073 10.9899 18.0872 5.7637 18.8704 5.75445H22.5018L22.684 5.45312H18.5691ZM9.61413 10.6415C10.6137 12.1427 13.0982 19.0597 13.0982 19.0597L13.1709 18.7225C12.5575 17.0404 10.2202 10.7347 9.63296 10.6415C9.62657 10.6417 9.62038 10.6408 9.61413 10.6415ZM19.8968 10.6415C20.5672 12.3515 19.2981 20.877 18.9175 22.9016L19.3207 22.5869C19.8353 19.5675 21.0746 10.6732 19.8968 10.6415Z" fill="white"/>
</g>
<defs>
<linearGradient id="paint0_linear_228_101" x1="1446.35" y1="2892.7" x2="1446.35" y2="-0.000172419" gradientUnits="userSpaceOnUse">
<stop stop-color="#574C4A"/>
<stop offset="1" stop-color="#80716D"/>
</linearGradient>
<linearGradient id="paint1_linear_228_101" x1="1619.88" y1="1721.37" x2="620.041" y2="-180.885" gradientUnits="userSpaceOnUse">
<stop stop-color="#268D83"/>
<stop offset="1" stop-color="#2EA19E"/>
</linearGradient>
<radialGradient id="paint2_radial_228_101" cx="0" cy="0" r="1" gradientUnits="userSpaceOnUse" gradientTransform="translate(98.5929 110.646) scale(105.189 105.189)">
<stop stop-color="#DB7C7C"/>
<stop offset="1" stop-color="#C83737"/>
</radialGradient>
<radialGradient id="paint3_radial_228_101" cx="0" cy="0" r="1" gradientUnits="userSpaceOnUse" gradientTransform="translate(108.477 110.646) scale(105.189 105.189)">
<stop stop-color="#DB7C7C"/>
<stop offset="1" stop-color="#C83737"/>
</radialGradient>
<clipPath id="clip0_228_101">
<rect width="29" height="29" fill="white"/>
</clipPath>
</defs>
</svg>
