<svg width="65" height="64" viewBox="0 0 65 64" fill="none" xmlns="http://www.w3.org/2000/svg">
<path fill-rule="evenodd" clip-rule="evenodd" d="M44.519 21.4058C45.3215 23.7273 45.8995 26.0973 46.0895 28.5538C46.3255 31.6013 46.2175 34.6273 45.575 37.6248C45.5575 37.7073 45.5205 37.7848 45.493 37.8648C45.2915 37.8653 45.086 37.8403 44.889 37.8708C43.2245 38.1323 41.5615 38.4033 39.8985 38.6728C38.1795 38.9513 36.458 39.2188 34.742 39.5163C34.134 39.6213 33.3815 39.4958 33.136 40.3368C33.129 40.3598 33.059 40.3638 33.0185 40.3768L33.1015 35.3513L33.017 23.2253L33.818 23.0878C35.128 22.8733 36.438 22.6558 37.749 22.4473C39.3135 22.1988 40.8795 21.9573 42.445 21.7148C43.1355 21.6073 43.827 21.5088 44.519 21.4058Z" fill="#439934"/>
<path fill-rule="evenodd" clip-rule="evenodd" d="M31.3645 55.0272C30.5195 54.3007 29.645 53.6062 28.835 52.8422C24.4765 48.7312 21.2885 43.8927 19.7185 38.0592C19.286 36.4537 18.9975 34.8222 18.905 33.1632C18.84 32.0022 18.746 30.8307 18.828 29.6757C19.0465 26.6037 19.4905 23.5612 20.3915 20.6022L20.441 20.5332C20.5285 20.6497 20.6545 20.7527 20.699 20.8842C21.5785 23.4742 22.4515 26.0662 23.32 28.6597C26.049 36.8097 28.7745 44.9617 31.508 53.1097C31.5615 53.2687 31.7 53.3992 31.7995 53.5427L31.3645 55.0272Z" fill="#45A538"/>
<path fill-rule="evenodd" clip-rule="evenodd" d="M44.519 21.4062C43.827 21.5092 43.135 21.6077 42.4445 21.7142C40.879 21.9567 39.313 22.1982 37.7485 22.4467C36.4375 22.6552 35.1275 22.8727 33.8175 23.0872L33.0165 23.2247L33.0105 22.7022C32.984 22.2727 32.9385 21.8437 32.9335 21.4142C32.899 18.6752 32.8775 15.9362 32.8435 13.1972C32.8225 11.4827 32.791 9.76867 32.756 8.05467C32.7345 6.98967 32.7115 5.92417 32.6635 4.86067C32.6375 4.28917 32.5455 3.72067 32.508 3.14917C32.487 2.82067 32.516 2.48967 32.5225 2.15967C32.931 2.95117 33.3305 3.74867 33.7505 4.53417C34.414 5.77617 35.471 6.69117 36.4225 7.68967C40.184 11.6357 42.8545 16.2237 44.519 21.4062Z" fill="#46A037"/>
<path fill-rule="evenodd" clip-rule="evenodd" d="M33.018 40.3764C33.0585 40.3634 33.129 40.3594 33.1355 40.3364C33.381 39.4954 34.1335 39.6209 34.7415 39.5159C36.4575 39.2189 38.179 38.9509 39.898 38.6724C41.561 38.4029 43.224 38.1319 44.8885 37.8704C45.0855 37.8394 45.291 37.8649 45.4925 37.8644C45.1815 38.9744 44.9365 40.1084 44.542 41.1879C44.094 42.4124 43.552 43.6074 42.9765 44.7789C42.1149 46.5262 41.0486 48.1649 39.8 49.6604C38.8405 50.8144 37.771 51.8809 36.699 52.9344C36.1065 53.5169 35.408 53.9914 34.758 54.5149L34.5895 54.3999L33.9825 53.8809L33.3545 52.5044C32.9255 50.8986 32.6915 49.2471 32.6575 47.5854L32.669 47.3049L32.7545 46.0919C32.783 45.6779 32.821 45.2644 32.8385 44.8494C32.903 43.3584 32.959 41.8674 33.018 40.3764Z" fill="#409433"/>
<path fill-rule="evenodd" clip-rule="evenodd" d="M33.018 40.3763C32.959 41.8673 32.903 43.3583 32.8395 44.8498C32.822 45.2648 32.784 45.6783 32.7555 46.0923L32.373 46.2368C31.5235 43.7358 30.6735 41.2613 29.842 38.7803C28.467 34.6758 27.1085 30.5648 25.7355 26.4593C24.6265 23.1456 23.5099 19.8344 22.3855 16.5258C22.333 16.3708 22.182 16.2498 22.077 16.1128L24.525 11.6118C24.609 11.7578 24.72 11.8943 24.773 12.0513C25.9068 15.4024 27.0348 18.7554 28.157 22.1103C29.615 26.4753 31.064 30.8438 32.521 35.2093C32.579 35.3838 32.675 35.5448 32.7665 35.7403L33.1015 35.3503L33.018 40.3763Z" fill="#4FAA41"/>
<path fill-rule="evenodd" clip-rule="evenodd" d="M22.0775 16.1133C22.1825 16.2503 22.333 16.3713 22.386 16.5263C23.5104 19.8348 24.627 23.146 25.736 26.4598C27.109 30.5653 28.4675 34.6763 29.8425 38.7808C30.6735 41.2613 31.5235 43.7363 32.3735 46.2373L32.756 46.0928L32.6705 47.3058L32.593 47.5853C32.46 48.9133 32.348 50.2443 32.186 51.5693C32.1045 52.2333 31.9315 52.8853 31.8 53.5428C31.701 53.3993 31.562 53.2688 31.5085 53.1098C28.775 44.9613 26.0495 36.8098 23.3205 28.6598C22.4523 26.0661 21.5786 23.4743 20.6995 20.8843C20.655 20.7528 20.5295 20.6498 20.4415 20.5333L22.0775 16.1133Z" fill="#4AA73C"/>
<path fill-rule="evenodd" clip-rule="evenodd" d="M33.101 35.3509L32.766 35.7409C32.6745 35.5454 32.5785 35.3839 32.5205 35.2099C31.064 30.8444 29.6145 26.4759 28.1565 22.1109C27.0343 18.7559 25.9063 15.4029 24.7725 12.0519C24.72 11.8949 24.609 11.7579 24.5245 11.6124L27.552 7.62988C27.6475 7.75738 27.7835 7.87088 27.833 8.01438C28.6735 10.4749 29.5065 12.9384 30.3345 15.4034C31.108 17.7054 31.87 20.0109 32.6525 22.3099C32.705 22.4639 32.8875 22.5729 33.0095 22.7029L33.0155 23.2254C33.0445 27.2664 33.073 31.3089 33.101 35.3509Z" fill="#57AE47"/>
<path fill-rule="evenodd" clip-rule="evenodd" d="M33.0105 22.7019C32.8885 22.5719 32.706 22.4629 32.6535 22.3089C31.871 20.0099 31.109 17.7044 30.3355 15.4024C29.5075 12.9374 28.6745 10.4744 27.834 8.01336C27.7845 7.86986 27.6485 7.75636 27.553 7.62886C28.5375 6.66486 29.4915 5.66636 30.5155 4.74686C31.426 3.92986 32.158 3.05386 32.1915 1.76286C32.193 1.70936 32.221 1.65586 32.264 1.50586L32.5235 2.15886C32.517 2.48936 32.4875 2.81986 32.509 3.14836C32.5465 3.71986 32.6385 4.28836 32.6645 4.85986C32.7125 5.92336 32.7355 6.98886 32.757 8.05386C32.7915 9.76786 32.823 11.4819 32.8445 13.1964C32.878 15.9354 32.9 18.6744 32.9345 21.4134C32.9385 21.8439 32.9835 22.2724 33.0105 22.7019Z" fill="#60B24F"/>
<path fill-rule="evenodd" clip-rule="evenodd" d="M31.799 53.5426C31.9305 52.8851 32.1035 52.2326 32.185 51.5691C32.3475 50.2446 32.459 48.9131 32.592 47.5851L32.625 47.5801L32.658 47.5856C32.692 49.2473 32.926 50.8988 33.355 52.5046C33.267 52.6206 33.1425 52.7241 33.096 52.8551C32.7325 53.8801 32.39 54.9131 32.0245 55.9381C31.9745 56.0781 31.8355 56.1871 31.7375 56.3101L31.364 55.0271L31.799 53.5426Z" fill="#A9AA88"/>
<path fill-rule="evenodd" clip-rule="evenodd" d="M31.738 56.3104C31.836 56.1874 31.9755 56.0784 32.025 55.9384C32.3905 54.9134 32.7335 53.8809 33.0965 52.8554C33.143 52.7244 33.267 52.6209 33.3555 52.5049L33.983 53.8819C33.859 54.0579 33.688 54.2164 33.619 54.4124L32.417 57.9419C32.3675 58.0834 32.1985 58.1834 32.0855 58.3029L31.738 56.3104Z" fill="#B6B598"/>
<path fill-rule="evenodd" clip-rule="evenodd" d="M32.0855 58.3023C32.199 58.1833 32.3675 58.0828 32.417 57.9413L33.619 54.4118C33.6875 54.2163 33.859 54.0573 33.983 53.8813L34.5905 54.3998C34.297 54.6898 34.134 55.0248 34.232 55.4483L34.0475 56.0523C33.9635 56.1558 33.842 56.2458 33.8005 56.3643C33.381 57.5658 32.9805 58.7738 32.558 59.9753C32.5045 60.1278 32.356 60.2473 32.251 60.3813C32.1965 59.6878 32.141 58.9958 32.0855 58.3023Z" fill="#C2C1A7"/>
<path fill-rule="evenodd" clip-rule="evenodd" d="M32.2515 60.3817C32.356 60.2472 32.5045 60.1277 32.5585 59.9757C32.981 58.7747 33.3815 57.5667 33.801 56.3647C33.8425 56.2467 33.9635 56.1562 34.048 56.0527L33.7935 58.8252C33.7255 58.9037 33.627 58.9722 33.5945 59.0637C33.307 59.8707 33.036 60.6837 32.7475 61.4907C32.688 61.6572 32.574 61.8042 32.485 61.9597C32.406 61.8562 32.2645 61.7562 32.258 61.6482C32.2325 61.2277 32.25 60.8042 32.2515 60.3817Z" fill="#CECDB7"/>
<path fill-rule="evenodd" clip-rule="evenodd" d="M32.4845 61.9597C32.5735 61.8037 32.6875 61.6567 32.747 61.4907C33.036 60.6842 33.3065 59.8712 33.594 59.0637C33.6265 58.9722 33.7255 58.9042 33.793 58.8252L33.799 60.6452L33.19 62.2072L32.4845 61.9597Z" fill="#DBDAC7"/>
<path fill-rule="evenodd" clip-rule="evenodd" d="M33.19 62.2075L33.799 60.6455L33.9245 62.4935L33.19 62.2075Z" fill="#EBE9DC"/>
<path fill-rule="evenodd" clip-rule="evenodd" d="M34.232 55.4489C34.134 55.0254 34.2965 54.6899 34.5905 54.4004L34.759 54.5154L34.232 55.4489Z" fill="#CECDB7"/>
<path fill-rule="evenodd" clip-rule="evenodd" d="M32.658 47.5862L32.625 47.5807L32.592 47.5857L32.6695 47.3062L32.658 47.5862Z" fill="#4FAA41"/>
</svg>
