<svg width="33" height="33" viewBox="0 0 33 33" fill="none" xmlns="http://www.w3.org/2000/svg">
<path d="M25.2817 2H7.71831C4.56017 2 2 4.56017 2 7.71831V25.2817C2 28.4398 4.56017 31 7.71831 31H25.2817C28.4398 31 31 28.4398 31 25.2817V7.71831C31 4.56017 28.4398 2 25.2817 2Z" fill="white" stroke="#134514" stroke-width="3"/>
<path d="M16.9062 26.8059L16.3555 26.6176C16.3555 26.6176 16.4227 23.8098 15.415 23.6083C14.7433 22.8289 15.5227 -9.44263 17.9409 23.5007C17.9409 23.5007 17.1079 23.9171 16.9601 24.6293C16.7988 25.328 16.9062 26.8059 16.9062 26.8059Z" fill="#A6A385"/>
<path d="M17.2019 24.0925C17.2019 24.0925 22.0253 20.9217 20.8966 14.3249C19.8084 9.52869 17.2423 7.95675 16.9601 7.35212C16.6512 6.92219 16.3555 6.16992 16.3555 6.16992L16.5571 19.5109C16.5571 19.5245 16.1404 23.5952 17.2019 24.0925Z" fill="#499D4A"/>
<path d="M16.0733 24.2663C16.0733 24.2663 11.5455 21.1761 11.8142 15.735C12.0695 10.2937 15.2671 7.62006 15.8851 7.1364C16.2882 6.70648 16.3016 6.54516 16.3286 6.11523C16.6107 6.71987 16.557 15.1573 16.5972 16.1514C16.718 19.9804 16.3823 23.5409 16.0733 24.2663Z" fill="#58AA50"/>
</svg>
