<svg width="31" height="31" viewBox="0 0 31 31" fill="none" xmlns="http://www.w3.org/2000/svg">
<path d="M24.2817 1H6.71831C3.56017 1 1 3.56017 1 6.71831V24.2817C1 27.4398 3.56017 30 6.71831 30H24.2817C27.4398 30 30 27.4398 30 24.2817V6.71831C30 3.56017 27.4398 1 24.2817 1Z" fill="white" stroke="#013247" stroke-width="2"/>
<path d="M23.3298 20.9534C22.3408 20.9266 21.5854 21.0186 20.9395 21.2909C20.756 21.3684 20.4634 21.3704 20.4334 21.6004C20.5343 21.7061 20.5499 21.864 20.6301 21.994C20.7843 22.2436 21.0447 22.5779 21.2769 22.7533C21.5307 22.9449 21.7923 23.1499 22.0644 23.3157C22.5484 23.6109 23.0887 23.7794 23.5548 24.0751C23.8294 24.2493 24.1023 24.4688 24.3702 24.6655C24.5027 24.7627 24.5917 24.9139 24.7639 24.9748C24.7639 24.9656 24.7639 24.9562 24.7639 24.9468C24.6734 24.8316 24.6501 24.6733 24.5671 24.553C24.4453 24.4312 24.3234 24.3093 24.2015 24.1874C23.8441 23.713 23.3903 23.2963 22.908 22.9502C22.5234 22.674 21.6624 22.3011 21.5019 21.8534C21.4925 21.844 21.4833 21.8347 21.4737 21.8253C21.7465 21.7946 22.0658 21.6958 22.3175 21.6284C22.7403 21.5151 23.1182 21.5444 23.5548 21.4316C23.7516 21.3754 23.9484 21.319 24.1454 21.2629C24.1454 21.2253 24.1454 21.188 24.1454 21.1504C23.9246 20.9239 23.7673 20.6242 23.5266 20.4192C22.8969 19.883 22.2096 19.3473 21.5019 18.9006C21.1094 18.6529 20.6243 18.4919 20.2084 18.2819C20.0685 18.2113 19.8227 18.1746 19.7302 18.0569C19.5117 17.7783 19.3927 17.4253 19.2242 17.1008C18.8712 16.4211 18.5245 15.6787 18.2118 14.9636C17.9984 14.4759 17.8591 13.995 17.5932 13.5574C16.3163 11.4581 14.9418 10.191 12.8127 8.94553C12.3597 8.68066 11.8142 8.57605 11.2378 8.4394C10.9286 8.42068 10.6191 8.40184 10.3098 8.38312C10.121 8.30421 9.92458 8.07321 9.74744 7.96128C9.0421 7.51569 7.23292 6.54648 6.7105 7.8207C6.38063 8.62499 7.20348 9.40984 7.49776 9.81737C7.70435 10.1033 7.96882 10.4238 8.1164 10.7453C8.21349 10.9566 8.23028 11.1685 8.31334 11.3922C8.5178 11.943 8.69558 12.5422 8.96004 13.0513C9.09372 13.3088 9.24105 13.5802 9.41005 13.8106C9.51366 13.9519 9.69118 14.0142 9.71925 14.2324C9.54561 14.4754 9.53571 14.8526 9.43812 15.1604C8.99863 16.5462 9.16438 18.2687 9.80369 19.2943C9.99988 19.6092 10.4619 20.2844 11.0972 20.0255C11.653 19.7991 11.5288 19.0976 11.6878 18.4788C11.7237 18.3384 11.7017 18.2353 11.7721 18.1413C11.7721 18.1506 11.7721 18.1601 11.7721 18.1695C11.9409 18.5069 12.1096 18.8443 12.2784 19.1817C12.653 19.7851 13.3178 20.4156 13.8812 20.841C14.1734 21.0617 14.4034 21.4432 14.7811 21.5722C14.7811 21.5628 14.7811 21.5535 14.7811 21.544C14.7716 21.544 14.7623 21.544 14.7529 21.544C14.6798 21.4299 14.5652 21.3826 14.4718 21.2909C14.2517 21.0752 14.007 20.807 13.825 20.5598C13.3126 19.8641 12.8597 19.1026 12.4471 18.3101C12.2501 17.9316 12.0788 17.5141 11.9127 17.1289C11.8486 16.9804 11.8494 16.7559 11.716 16.679C11.5341 16.9612 11.2661 17.1894 11.1254 17.5226C10.9004 18.0553 10.8713 18.705 10.788 19.3786C10.7387 19.3963 10.7606 19.3842 10.7316 19.4067C10.34 19.3122 10.2023 18.9091 10.0569 18.5632C9.68868 17.6884 9.62028 16.2799 9.94425 15.273C10.0281 15.0125 10.4069 14.1919 10.2536 13.9513C10.1804 13.7111 9.93886 13.5723 9.80369 13.3887C9.63644 13.1619 9.46944 12.8633 9.35368 12.6013C9.05238 11.9193 8.91169 11.1536 8.59447 10.4642C8.44288 10.1346 8.18643 9.80109 7.97584 9.50808C7.74269 9.18351 7.4816 8.94443 7.30095 8.55184C7.23668 8.41236 7.14936 8.18907 7.2447 8.04569C7.27501 7.94891 7.31773 7.90854 7.41345 7.87697C7.57656 7.75121 8.03083 7.91882 8.20072 7.98941C8.65173 8.17672 9.02807 8.3551 9.41005 8.60811C9.59346 8.72972 9.77888 8.96486 10.0005 9.02996C10.0848 9.02996 10.1693 9.02996 10.2536 9.02996C10.6495 9.12098 11.093 9.05822 11.4628 9.17053C12.1165 9.36922 12.7023 9.67827 13.2344 10.0142C14.8553 11.0376 16.1805 12.4945 17.087 14.2324C17.2329 14.5122 17.296 14.7793 17.4244 15.0761C17.6836 15.6746 18.0101 16.2905 18.2679 16.8758C18.5253 17.4598 18.7761 18.0491 19.1398 18.5351C19.3311 18.7905 20.0696 18.9275 20.4052 19.0693C20.6405 19.1688 21.026 19.2724 21.2489 19.4067C21.6746 19.6635 22.087 19.9692 22.4863 20.2505C22.6858 20.391 23.2992 20.6994 23.3298 20.9534Z" fill="#00618A"/>
<path fill-rule="evenodd" clip-rule="evenodd" d="M10.7597 10.2386C10.5535 10.2349 10.4076 10.2612 10.2534 10.2948C10.2534 10.3042 10.2534 10.3136 10.2534 10.3229C10.2628 10.3229 10.2722 10.3229 10.2816 10.3229C10.38 10.5251 10.5536 10.6551 10.6752 10.8292C10.7689 11.0261 10.8627 11.2229 10.9565 11.4196C10.9658 11.4103 10.9753 11.4009 10.9846 11.3916C11.1587 11.2689 11.2385 11.0726 11.2376 10.7729C11.1678 10.6995 11.1576 10.6074 11.0971 10.5198C11.0166 10.4031 10.861 10.3368 10.7597 10.2386Z" fill="#00618A"/>
</svg>
