<svg width="65" height="64" viewBox="0 0 65 64" fill="none" xmlns="http://www.w3.org/2000/svg">
<g clip-path="url(#clip0_2315_3041)">
<path d="M59.344 49.1209C55.8575 49.0254 53.1955 49.3514 50.918 50.3104C50.2715 50.5839 49.2405 50.5899 49.135 51.4004C49.4905 51.7734 49.545 52.3299 49.8285 52.7889C50.3715 53.6659 51.2895 54.8454 52.108 55.4649C53.0025 56.1389 53.9245 56.8614 54.8835 57.4454C56.5905 58.4864 58.495 59.0804 60.1355 60.1214C61.1045 60.7364 62.065 61.5099 63.0105 62.2034C63.4775 62.5454 63.792 63.0784 64.397 63.2934V63.1959C64.0785 62.7899 63.9965 62.2309 63.7035 61.8074L62.4145 60.5184C61.1545 58.8464 59.555 57.3779 57.856 56.1589C56.5005 55.1844 53.4655 53.8699 52.901 52.2939L52.8015 52.1944C53.7625 52.0849 54.8875 51.7374 55.776 51.4989C57.266 51.1004 58.5985 51.2039 60.1355 50.8054L62.2175 50.2119V49.8154C61.44 49.0184 60.8855 47.9619 60.038 47.2394C57.8175 45.3489 55.3955 43.4619 52.9015 41.8879C51.5185 41.0149 49.8095 40.4464 48.343 39.7064C47.849 39.4584 46.9835 39.3274 46.6575 38.9134C45.888 37.9329 45.468 36.6889 44.8745 35.5444C43.6305 33.1479 42.4095 30.5329 41.306 28.0114C40.554 26.2929 40.064 24.5974 39.1265 23.0564C34.6265 15.6579 29.783 11.1914 22.279 6.80242C20.6815 5.86892 18.7595 5.49992 16.728 5.01742L13.4565 4.81992C12.7905 4.54242 12.099 3.72792 11.474 3.33142C8.9885 1.75992 2.6115 -1.65608 0.769498 2.83592C-0.392502 5.66992 2.508 8.43542 3.545 9.87292C4.2735 10.8789 5.205 12.0094 5.7245 13.1424C6.0685 13.8884 6.127 14.6344 6.42 15.4219C7.139 17.3634 7.7675 19.4764 8.6995 21.2694C9.17 22.1774 9.6895 23.1329 10.2855 23.9454C10.649 24.4434 11.2755 24.6644 11.3755 25.4319C10.762 26.2894 10.727 27.6194 10.3835 28.7034C8.8345 33.5884 9.4205 39.6584 11.6725 43.2719C12.364 44.3834 13.993 46.7619 16.231 45.8499C18.19 45.0509 17.7525 42.5804 18.313 40.3989C18.44 39.9049 18.362 39.5414 18.61 39.2094V39.3089L20.395 42.8754C21.7155 45.0024 24.057 47.2249 26.0435 48.7249C27.073 49.5024 27.8835 50.8459 29.2155 51.3009V51.2014H29.116C28.858 50.7989 28.454 50.6329 28.126 50.3109C27.3505 49.5494 26.4875 48.6039 25.8465 47.7329C24.04 45.2819 22.444 42.5979 20.991 39.8054C20.2955 38.4714 19.692 37.0009 19.106 35.6434C18.8795 35.1199 18.8835 34.3269 18.4125 34.0574C17.772 35.0514 16.8265 35.8564 16.3305 37.0299C15.5395 38.9069 15.436 41.1979 15.143 43.5709C14.969 43.6334 15.0455 43.5904 14.944 43.6704C13.563 43.3364 13.079 41.9164 12.565 40.6959C11.268 37.6139 11.026 32.6509 12.1685 29.1004C12.4635 28.1824 13.7995 25.2919 13.2585 24.4424C13.0005 23.5969 12.149 23.1064 11.6725 22.4599C11.0825 21.6609 10.495 20.6084 10.0865 19.6844C9.024 17.2819 8.53 14.5829 7.4105 12.1534C6.8755 10.9914 5.973 9.81542 5.231 8.78442C4.4085 7.63992 3.489 6.79592 2.852 5.41342C2.6255 4.92142 2.319 4.13392 2.653 3.63042C2.7605 3.28842 2.911 3.14592 3.2485 3.03492C3.8225 2.59142 5.4245 3.18342 6.022 3.43142C7.612 4.09142 8.938 4.72042 10.2855 5.61292C10.93 6.04042 11.5845 6.86892 12.3655 7.09942H13.258C14.6525 7.41992 16.215 7.19692 17.5195 7.59342C19.824 8.29442 21.8885 9.38442 23.7635 10.5679C29.4745 14.1754 34.1465 19.3079 37.3415 25.4349C37.855 26.4214 38.078 27.3609 38.531 28.4074C39.443 30.5169 40.5935 32.6869 41.5015 34.7514C42.4095 36.8079 43.2925 38.8864 44.5755 40.5989C45.2495 41.4994 47.851 41.9819 49.0345 42.4819C49.8645 42.8314 51.224 43.1969 52.009 43.6714C53.509 44.5759 54.962 45.6539 56.3705 46.6439C57.0715 47.1399 59.2355 48.2279 59.343 49.1224L59.344 49.1209ZM15.0415 11.3609C14.315 11.3474 13.8015 11.4389 13.2585 11.5584V11.6579H13.356C13.7035 12.3689 14.315 12.8279 14.7445 13.4409L15.7345 15.5229L15.834 15.4254C16.4475 14.9919 16.7285 14.3004 16.7245 13.2439C16.4785 12.9839 16.4435 12.6619 16.2285 12.3514C15.9475 11.9394 15.3985 11.7069 15.041 11.3614L15.0415 11.3609Z" fill="#4DABCF"/>
</g>
<defs>
<clipPath id="clip0_2315_3041">
<rect width="64" height="64" fill="white" transform="translate(0.5)"/>
</clipPath>
</defs>
</svg>
