<svg width="65" height="64" viewBox="0 0 65 64" fill="none" xmlns="http://www.w3.org/2000/svg">
<g clip-path="url(#clip0_2316_3312)">
<path d="M32.5 64C50.1731 64 64.5 49.6731 64.5 32C64.5 14.3269 50.1731 0 32.5 0C14.8269 0 0.5 14.3269 0.5 32C0.5 49.6731 14.8269 64 32.5 64Z" fill="black"/>
<path d="M53.6585 56.0072L25.0835 19.2002H19.7V44.7897H24.007V24.6697L50.277 58.6117C51.4607 57.8195 52.5904 56.9494 53.6585 56.0072Z" fill="url(#paint0_linear_2316_3312)"/>
<path d="M41.389 19.2002H45.6555V44.8002H41.389V19.2002Z" fill="url(#paint1_linear_2316_3312)"/>
</g>
<defs>
<linearGradient id="paint0_linear_2316_3312" x1="39.2555" y1="41.4224" x2="51.8777" y2="57.0668" gradientUnits="userSpaceOnUse">
<stop stop-color="white"/>
<stop offset="1" stop-color="white" stop-opacity="0"/>
</linearGradient>
<linearGradient id="paint1_linear_2316_3312" x1="43.5221" y1="19.2002" x2="43.4507" y2="38.0001" gradientUnits="userSpaceOnUse">
<stop stop-color="white"/>
<stop offset="1" stop-color="white" stop-opacity="0"/>
</linearGradient>
<clipPath id="clip0_2316_3312">
<rect width="64" height="64" fill="white" transform="translate(0.5)"/>
</clipPath>
</defs>
</svg>
