<svg width="103" height="64" viewBox="0 0 103 64" fill="none" xmlns="http://www.w3.org/2000/svg">
<g clip-path="url(#clip0_2316_3416)">
<path d="M91.9504 25.0029C91.9091 25.0029 91.8687 25.0151 91.8344 25.0381L89.9576 26.1341C89.9223 26.156 89.8932 26.1867 89.8733 26.2231C89.8534 26.2596 89.8433 26.3006 89.844 26.3421V28.5341C89.844 28.6269 89.888 28.6973 89.9576 28.7437L91.8344 29.8381C91.8688 29.861 91.9091 29.8732 91.9504 29.8732C91.9917 29.8732 92.032 29.861 92.0664 29.8381L93.94 28.7437C93.9757 28.7215 94.0051 28.6905 94.0254 28.6536C94.0457 28.6168 94.0562 28.5754 94.056 28.5333V26.3437C94.0562 26.302 94.0456 26.2609 94.0253 26.2245C94.005 26.1881 93.9756 26.1575 93.94 26.1357L92.0656 25.0389C92.0315 25.0161 91.9914 25.003 91.9504 25.0029ZM51.076 38.1101C50.7344 38.1101 50.3944 38.1933 50.1048 38.3565L40.8656 43.7381C40.5694 43.9118 40.3239 44.1601 40.1535 44.4583C39.9831 44.7564 39.8937 45.0939 39.8944 45.4373V56.1757C39.8944 56.8749 40.264 57.5277 40.8656 57.8781L43.2976 59.2749C44.4784 59.8573 44.8952 59.8557 45.4272 59.8557C47.1632 59.8557 48.1592 58.7845 48.1592 56.9437V46.3477C48.1582 46.274 48.1286 46.2035 48.0767 46.1511C48.0247 46.0988 47.9545 46.0686 47.8808 46.0669H46.7016C46.6276 46.0682 46.557 46.0982 46.5047 46.1506C46.4524 46.203 46.4226 46.2737 46.4216 46.3477V56.9461C46.4216 57.7613 45.5664 58.5781 44.2008 57.8797L41.6768 56.4117C41.584 56.3653 41.5368 56.2469 41.5368 56.1541V45.4133C41.5368 45.3205 41.584 45.2053 41.6768 45.1581L50.9128 39.8005C50.9824 39.7541 51.0992 39.7541 51.192 39.8005L60.4304 45.1581C60.5224 45.2053 60.568 45.2973 60.568 45.4141V56.1533C60.568 56.2693 60.5224 56.3645 60.4304 56.4109L51.192 61.7925C51.1224 61.8389 51.0056 61.8389 50.9128 61.7925L48.552 60.3693C48.4824 60.3229 48.3896 60.2997 48.32 60.3461C47.672 60.7189 47.5584 60.7677 46.9328 60.9773C46.7936 61.0237 46.5624 61.1157 47.0248 61.3717L50.1048 63.2133C50.4056 63.3757 50.7288 63.4685 51.076 63.4685C51.4232 63.4685 51.7696 63.3765 52.0472 63.2605L61.2864 57.8789C61.5827 57.7046 61.8283 57.4557 61.9987 57.157C62.169 56.8584 62.2583 56.5204 62.2576 56.1765V45.4373C62.2576 44.7381 61.888 44.0877 61.2864 43.7381L52.0472 38.3565C51.7498 38.1929 51.4154 38.1081 51.076 38.1101ZM65.5 43.0141C65.0258 43.016 64.5719 43.2061 64.2378 43.5426C63.9037 43.879 63.7169 44.3344 63.7184 44.8085C63.7171 45.2825 63.904 45.7377 64.2381 46.074C64.5721 46.4103 65.026 46.6002 65.5 46.6021C66.4736 46.6021 67.2824 45.7869 67.2824 44.8085C67.2799 44.3355 67.0917 43.8825 66.7583 43.547C66.4248 43.2114 65.973 43.0196 65.5 43.0141ZM65.476 43.3173C65.6732 43.3149 65.8689 43.3517 66.0518 43.4256C66.2347 43.4995 66.401 43.609 66.5412 43.7477C66.6814 43.8865 66.7926 44.0517 66.8683 44.2338C66.944 44.4159 66.9828 44.6113 66.9824 44.8085C66.9824 45.6245 66.3104 46.3237 65.4768 46.3237C64.6672 46.3237 63.9952 45.6469 63.9952 44.8085C63.9952 43.9701 64.6896 43.3173 65.476 43.3173ZM64.8288 43.8061V45.8557H65.224V45.0429H65.5712C65.7104 45.0429 65.756 45.0893 65.7792 45.2053C65.7792 45.2293 65.848 45.7413 65.848 45.8341H66.264C66.2176 45.7413 66.1944 45.4613 66.1712 45.2981C66.1488 45.0421 66.1264 44.8557 65.848 44.8325C65.9872 44.7853 66.2184 44.7157 66.2184 44.3429C66.2184 43.8069 65.7544 43.8069 65.524 43.8069L64.8288 43.8061ZM65.1768 44.1325H65.5C65.6168 44.1325 65.8008 44.1325 65.8008 44.4117C65.8008 44.5045 65.756 44.6925 65.5 44.6925H65.176L65.1768 44.1325ZM53.6008 45.7405C50.9608 45.7405 49.3864 46.8589 49.3864 48.7461C49.3864 50.7733 50.9608 51.3301 53.4848 51.5869C56.5168 51.8901 56.7488 52.3333 56.7488 52.9389C56.7488 53.9869 55.9136 54.4301 53.9688 54.4301C51.5144 54.4301 50.9824 53.8237 50.7968 52.5893C50.7968 52.4493 50.6832 52.3573 50.544 52.3573H49.34C49.2664 52.3582 49.1961 52.3879 49.1443 52.4402C49.0926 52.4924 49.0634 52.563 49.0632 52.6365C49.0632 54.2205 49.896 56.0845 53.9488 56.0845C56.8648 56.0845 58.5552 54.9181 58.5552 52.8685C58.5552 50.8645 57.2112 50.3293 54.3648 49.9565C51.4928 49.5837 51.1928 49.3741 51.1928 48.6989C51.1928 48.1397 51.4472 47.3949 53.5768 47.3949C55.4752 47.3949 56.192 47.8149 56.4704 49.0957C56.4843 49.1535 56.5169 49.2052 56.5629 49.2427C56.609 49.2803 56.6662 49.3017 56.7256 49.3037H57.952C58.0224 49.3037 58.092 49.2581 58.1392 49.2117C58.1822 49.1499 58.2058 49.0766 58.2072 49.0013C58.0224 46.7653 56.5648 45.7405 53.6008 45.7405Z" fill="#5FA04E"/>
<path d="M69.3576 0.531284C69.2591 0.53021 69.1621 0.554746 69.076 0.602484C68.9864 0.654654 68.9117 0.729015 68.8592 0.818407C68.8066 0.907799 68.778 1.00921 68.776 1.11288V16.2561C68.776 16.3953 68.704 16.5361 68.5656 16.6289C68.5017 16.6633 68.4302 16.6813 68.3576 16.6813C68.285 16.6813 68.2135 16.6633 68.1496 16.6289L65.6968 15.2089C65.5168 15.1057 65.313 15.0515 65.1056 15.0515C64.8982 15.0515 64.6944 15.1057 64.5144 15.2089L54.7 20.9169C54.5184 21.0193 54.367 21.1678 54.2613 21.3475C54.1555 21.5272 54.099 21.7316 54.0976 21.9401V33.3321C54.0976 33.7513 54.3296 34.1481 54.7 34.3577L64.516 40.0657C64.6959 40.1687 64.8995 40.2229 65.1068 40.2229C65.3141 40.2229 65.5177 40.1687 65.6976 40.0657L75.5128 34.3577C75.8832 34.1481 76.1152 33.7513 76.1152 33.3321V4.93448C76.1152 4.49208 75.8832 4.09448 75.5128 3.88568L69.6568 0.602484C69.5642 0.555951 69.4612 0.531576 69.3576 0.531284ZM11.4496 14.7441C11.2648 14.7441 11.08 14.8113 10.9184 14.9041L1.10239 20.5913C0.918072 20.6965 0.765107 20.8488 0.659229 21.0328C0.553352 21.2167 0.498387 21.4255 0.499988 21.6377L0.523988 36.9193C0.523988 37.1297 0.638388 37.3393 0.823988 37.4329C0.90988 37.4897 1.0106 37.52 1.11359 37.52C1.21658 37.52 1.3173 37.4897 1.40319 37.4329L7.23839 34.0785C7.60879 33.8689 7.83839 33.4721 7.83839 33.0529V25.9009C7.83839 25.4817 8.07039 25.0849 8.44159 24.8753L10.9184 23.4313C11.1032 23.3145 11.3128 23.2681 11.5208 23.2681C11.7288 23.2681 11.9376 23.3145 12.1 23.4313L14.5768 24.8753C14.9472 25.0849 15.1792 25.4817 15.1792 25.9009V33.0529C15.1792 33.4721 15.4096 33.8689 15.7792 34.0785L21.568 37.4329C21.6581 37.4899 21.7625 37.5202 21.8692 37.5202C21.9758 37.5202 22.0803 37.4899 22.1704 37.4329C22.2623 37.3825 22.3388 37.3081 22.3918 37.2177C22.4448 37.1272 22.4722 37.0241 22.4712 36.9193V21.6377C22.4712 21.2185 22.2392 20.8217 21.868 20.6113L12.076 14.9041C11.9113 14.8158 11.7308 14.7612 11.5448 14.7433L11.4496 14.7441ZM91.9832 14.9121C91.7808 14.9121 91.58 14.9649 91.3944 15.0705L81.5768 20.7753C81.2064 20.9849 80.9768 21.3817 80.9768 21.8017V33.1937C80.9768 33.6129 81.2064 34.0097 81.5768 34.2193L91.324 39.8089C91.4995 39.9118 91.6993 39.9661 91.9028 39.9661C92.1063 39.9661 92.3061 39.9118 92.4816 39.8089L98.3856 36.5025C98.4774 36.452 98.5537 36.3776 98.6066 36.2871C98.6594 36.1967 98.6867 36.0936 98.6856 35.9889C98.6864 35.8844 98.659 35.7817 98.6061 35.6915C98.5533 35.6014 98.4771 35.5272 98.3856 35.4769L88.524 29.7681C88.4343 29.7154 88.3596 29.6406 88.3071 29.5508C88.2546 29.461 88.226 29.3593 88.224 29.2553V25.6905C88.2228 25.586 88.2501 25.4831 88.303 25.3929C88.3558 25.3027 88.4322 25.2286 88.524 25.1785L91.604 23.4073C91.6941 23.3503 91.7986 23.3201 91.9052 23.3201C92.0118 23.3201 92.1162 23.3503 92.2064 23.4073L95.2832 25.1777C95.3732 25.2302 95.4483 25.3049 95.5013 25.3947C95.5542 25.4844 95.5832 25.5863 95.5856 25.6905V28.4865C95.5856 28.6969 95.7008 28.9065 95.8856 28.9993C95.9758 29.0565 96.0804 29.0868 96.1872 29.0868C96.294 29.0868 96.3986 29.0565 96.4888 28.9993L102.322 25.5753C102.5 25.4709 102.648 25.3209 102.75 25.1405C102.852 24.9601 102.904 24.756 102.901 24.5489V21.7769C102.901 21.3577 102.669 20.9633 102.322 20.7529L92.5744 15.0697C92.3946 14.9668 92.1912 14.9122 91.984 14.9113L91.9832 14.9121ZM65.1056 23.4193C65.1576 23.4193 65.2104 23.4313 65.2576 23.4553L68.6128 25.4121C68.7056 25.4585 68.7528 25.5737 68.7528 25.6673V29.5809C68.7528 29.6977 68.7056 29.7921 68.6128 29.8385L65.2568 31.7953C65.2097 31.8183 65.158 31.8302 65.1056 31.8302C65.0532 31.8302 65.0015 31.8183 64.9544 31.7953L61.5984 29.8385C61.5056 29.7921 61.4584 29.6745 61.4584 29.5809V25.6673C61.4584 25.5505 61.5064 25.4585 61.5984 25.4113L64.9544 23.4553C65.0016 23.4317 65.0528 23.4193 65.1056 23.4193Z" fill="#333333"/>
<path d="M38.8856 15.1142C38.7059 15.0112 38.5024 14.957 38.2952 14.957C38.0881 14.957 37.8845 15.0112 37.7048 15.1142L27.9576 20.7758C27.7788 20.8798 27.6308 21.0296 27.529 21.2097C27.4272 21.3898 27.3752 21.5938 27.3784 21.8006V33.1454C27.3784 33.5654 27.6104 33.9614 27.9576 34.171L37.7048 39.8318C37.8845 39.9349 38.0881 39.9891 38.2952 39.9891C38.5024 39.9891 38.7059 39.9349 38.8856 39.8318L48.632 34.171C49.0024 33.9614 49.2112 33.5654 49.2112 33.1454V21.8006C49.2112 21.3814 48.9792 20.9846 48.632 20.7758L38.8856 15.1142Z" fill="url(#paint0_linear_2316_3416)"/>
<path d="M48.6552 20.7761L38.8624 15.1145C38.7663 15.0658 38.6655 15.027 38.5616 14.9985L27.5872 33.8913C27.68 34.0081 27.7952 34.1009 27.9112 34.1713L37.7048 39.8321C37.9824 39.9953 38.3064 40.0417 38.6072 39.9481L48.9104 20.9857C48.8426 20.8971 48.7553 20.8254 48.6552 20.7761Z" fill="url(#paint1_linear_2316_3416)"/>
<path d="M48.6552 34.1702C48.9336 34.007 49.1416 33.7278 49.2344 33.4246L38.5144 14.9742C38.2376 14.9278 37.936 14.951 37.6816 15.1142L27.9576 20.7518L38.4456 39.9942C38.584 39.971 38.7464 39.9246 38.8856 39.8542L48.6552 34.1702Z" fill="url(#paint2_linear_2316_3416)"/>
</g>
<defs>
<linearGradient id="paint0_linear_2316_3416" x1="42.2643" y1="19.33" x2="33.3628" y2="37.3763" gradientUnits="userSpaceOnUse">
<stop stop-color="#3F873F"/>
<stop offset="0.33" stop-color="#3F8B3D"/>
<stop offset="0.637" stop-color="#3E9638"/>
<stop offset="0.934" stop-color="#3DA92E"/>
<stop offset="1" stop-color="#3DAE2B"/>
</linearGradient>
<linearGradient id="paint1_linear_2316_3416" x1="36.814" y1="28.7982" x2="61.6502" y2="10.5607" gradientUnits="userSpaceOnUse">
<stop offset="0.138" stop-color="#3F873F"/>
<stop offset="0.402" stop-color="#52A044"/>
<stop offset="0.713" stop-color="#64B749"/>
<stop offset="0.908" stop-color="#6ABF4B"/>
</linearGradient>
<linearGradient id="paint2_linear_2316_3416" x1="27.0219" y1="27.4691" x2="49.5758" y2="27.4691" gradientUnits="userSpaceOnUse">
<stop offset="0.092" stop-color="#6ABF4B"/>
<stop offset="0.287" stop-color="#64B749"/>
<stop offset="0.598" stop-color="#52A044"/>
<stop offset="0.862" stop-color="#3F873F"/>
</linearGradient>
<clipPath id="clip0_2316_3416">
<rect width="102.4" height="64" fill="white" transform="translate(0.5)"/>
</clipPath>
</defs>
</svg>
