<svg width="47" height="29" viewBox="0 0 47 29" fill="none" xmlns="http://www.w3.org/2000/svg">
<path d="M32.2947 0C32.0567 0 31.8387 0.170583 31.8387 0.407915V7.86164L29.9495 6.87629C29.8312 6.8139 29.6979 6.78358 29.5645 6.78358C29.4311 6.78358 29.2978 6.8139 29.1796 6.87629L24.6401 9.24432C24.4035 9.36637 24.2581 9.59224 24.2581 9.835V14.5764C24.2581 14.8205 24.4035 15.045 24.6401 15.167L29.1796 17.5351C29.2978 17.5974 29.4311 17.6278 29.5645 17.6278C29.6979 17.6278 29.8312 17.5975 29.9495 17.5351L34.489 15.167C34.7255 15.045 34.871 14.8191 34.871 14.5764V12.2057V9.835V1.66874C34.871 1.42734 34.7269 1.20542 34.4949 1.08336L32.5198 0.0556248C32.4455 0.0176516 32.3705 0 32.2947 0ZM17.4355 6.78358C17.3024 6.78358 17.1695 6.81458 17.0505 6.87629L12.511 9.24432C12.2745 9.36637 12.129 9.59224 12.129 9.835V14.5764C12.129 14.8205 12.2745 15.045 12.511 15.167L17.0505 17.5351C17.2886 17.6585 17.5824 17.6585 17.8204 17.5351L22.3599 15.167C22.5965 15.045 22.7419 14.8191 22.7419 14.5764V9.835C22.7419 9.59089 22.5965 9.36637 22.3599 9.24432L17.8204 6.87629C17.7014 6.81458 17.5685 6.78358 17.4355 6.78358ZM41.6935 6.78358C41.5601 6.78358 41.4269 6.8139 41.3086 6.87629L36.7691 9.24432C36.5326 9.36637 36.3871 9.59224 36.3871 9.835V14.5764C36.3871 14.8205 36.5326 15.045 36.7691 15.167L41.1724 17.5483C41.4089 17.6771 41.7057 17.6784 41.9452 17.5536L44.1099 16.4279C44.3343 16.3126 44.3358 16.0214 44.1099 15.9034L39.4194 13.4321V10.9978L41.6935 9.81381L43.9677 10.9978V12.6931C43.9677 12.9195 44.1806 12.9544 44.3231 12.8785C44.8962 12.5774 46.6239 11.6812 46.6239 11.6812C46.8559 11.5605 47 11.3372 47 11.0958V9.835C47 9.59089 46.8545 9.36637 46.618 9.24432L42.0785 6.87629C41.9587 6.8139 41.827 6.78358 41.6935 6.78358ZM5.30645 6.78623C5.17303 6.78623 5.03975 6.81655 4.9215 6.87894L0.381993 9.24432C0.145477 9.36773 0 9.59354 0 9.83765V15.8902C0 16.1858 0.357546 16.3691 0.642578 16.2213L2.65619 15.1723C2.88815 15.0503 3.03226 14.8284 3.03226 14.5869V11.0031L5.30645 9.81646L7.58065 11.0031V14.5869C7.58065 14.8284 7.72475 15.0503 7.95672 15.1723L9.97032 16.2213C10.2554 16.3704 10.6129 16.1858 10.6129 15.8902V9.83765C10.6129 9.59354 10.4674 9.36773 10.2309 9.24432L5.69141 6.87894C5.57315 6.81655 5.43987 6.78623 5.30645 6.78623ZM29.5645 9.81381L31.8387 11.0005V12.2057V13.4109L29.5645 14.5975L27.2903 13.4109V11.0005L29.5645 9.81381ZM41.6935 10.8548L40.3936 11.5329V12.8864L41.6935 13.5619L42.9935 12.8864V11.5329L41.6935 10.8548ZM30.0087 18.3032C29.5736 18.3032 29.1914 18.6179 29.1914 19.0343C29.1914 19.4371 29.5584 19.768 30.0087 19.768C30.459 19.768 30.826 19.4371 30.826 19.0343C30.826 18.6179 30.4514 18.2964 30.0087 18.3032ZM29.9998 18.4198C30.3849 18.4198 30.6957 18.6912 30.6957 19.0343C30.6957 19.3706 30.3834 19.6486 29.9998 19.6568C29.6223 19.6568 29.3158 19.3774 29.3158 19.0343C29.3158 18.6912 29.6238 18.4198 29.9998 18.4198ZM29.7007 18.6184V19.4422H29.8754V19.1138H30.0383C30.105 19.1138 30.1209 19.1392 30.136 19.1853C30.136 19.192 30.164 19.4055 30.1716 19.4449H30.3611C30.3398 19.4055 30.3242 19.2928 30.3167 19.225C30.2954 19.1192 30.2885 19.0464 30.1627 19.0396C30.2294 19.0192 30.3403 18.9875 30.3403 18.8356C30.3403 18.6173 30.1283 18.6184 30.0176 18.6184H29.7007ZM29.8754 18.7509H30.0235C30.069 18.7509 30.1568 18.7496 30.1568 18.8621C30.1568 18.9082 30.1344 18.9827 30.0146 18.9813H29.8754V18.7509Z" fill="white"/>
<g clip-path="url(#clip0_384_355)">
<path d="M23.5018 28.9999C23.3187 29 23.1388 28.9571 22.9802 28.8756L21.3202 28.0009C21.0724 27.8775 21.1932 27.8339 21.2751 27.8084C21.5386 27.736 21.7908 27.6345 22.0261 27.5064C22.0457 27.4983 22.0674 27.4948 22.0891 27.4962C22.1107 27.4976 22.1316 27.504 22.1497 27.5146L23.4252 28.1891C23.449 28.2003 23.4754 28.2061 23.5023 28.2061C23.5292 28.2061 23.5556 28.2003 23.5794 28.1891L28.5535 25.6335C28.5768 25.6211 28.596 25.6035 28.6094 25.5825C28.6227 25.5614 28.6297 25.5377 28.6296 25.5135V20.4015C28.6296 20.377 28.6226 20.3528 28.6091 20.3315C28.5956 20.3101 28.5761 20.2921 28.5525 20.2794L23.5784 17.726C23.555 17.7142 23.5285 17.708 23.5016 17.708C23.4746 17.708 23.4482 17.7142 23.4247 17.726L18.4535 20.2802C18.4298 20.2927 18.4101 20.3104 18.3963 20.3317C18.3826 20.3529 18.3752 20.377 18.375 20.4015V25.5114C18.375 25.5355 18.3823 25.5591 18.396 25.5799C18.4097 25.6007 18.4294 25.6178 18.453 25.6296L19.8173 26.3304C20.5566 26.6593 21.0094 26.2717 21.0094 25.8825V20.8374C21.0094 20.803 21.0247 20.7701 21.052 20.7458C21.0793 20.7215 21.1163 20.7079 21.1549 20.7079H21.7851C21.8237 20.7079 21.8607 20.7215 21.8879 20.7458C21.9152 20.7701 21.9305 20.803 21.9305 20.8374V25.8829C21.9305 26.7611 21.3934 27.2638 20.4577 27.2638C20.054 27.2701 19.6567 27.174 19.3121 26.9868L18.0046 26.3192C17.8458 26.2369 17.7141 26.119 17.6226 25.9773C17.5311 25.8355 17.4829 25.6749 17.4829 25.5114V20.4015C17.4824 20.2377 17.5304 20.0768 17.622 19.9347C17.7135 19.7927 17.8455 19.6746 18.0046 19.5924L22.9792 17.0359C23.1394 16.9579 23.3192 16.917 23.5018 16.917C23.6845 16.917 23.8642 16.9579 24.0244 17.0359L28.9986 19.5924C29.1573 19.6745 29.289 19.7922 29.3806 19.9338C29.4723 20.0754 29.5206 20.2359 29.5207 20.3993V25.5114C29.5204 25.6749 29.4721 25.8355 29.3805 25.9772C29.2889 26.1189 29.1572 26.2368 28.9986 26.3192L24.0244 28.8756C23.8655 28.9573 23.6853 29.0001 23.5018 28.9999Z" fill="#83CD29"/>
<path d="M22.5566 23.8017C22.5566 23.7673 22.572 23.7344 22.5992 23.7101C22.6265 23.6858 22.6635 23.6722 22.7021 23.6722H23.3454C23.3798 23.6723 23.413 23.6832 23.4392 23.7031C23.4654 23.7229 23.4828 23.7503 23.4884 23.7805C23.5854 24.3635 23.8763 24.6574 25.1916 24.6574C26.2392 24.6574 26.6858 24.4464 26.6858 23.9514C26.6858 23.6662 26.5592 23.4543 24.9307 23.3123C23.5694 23.1923 22.7278 22.9239 22.7278 21.9555C22.7278 21.0622 23.5738 20.5293 24.9918 20.5293C26.5854 20.5293 27.3742 21.0217 27.4741 22.0781C27.4756 22.0957 27.473 22.1135 27.4666 22.1302C27.4601 22.1469 27.4498 22.1623 27.4364 22.1753C27.423 22.1884 27.4068 22.1989 27.3886 22.2061C27.3705 22.2134 27.3509 22.2172 27.331 22.2175H26.6833C26.6508 22.2171 26.6194 22.207 26.5941 22.1888C26.5688 22.1707 26.5511 22.1455 26.5437 22.1174C26.3891 21.5041 26.0104 21.3082 24.9923 21.3082C23.8482 21.3082 23.7153 21.663 23.7153 21.9288C23.7153 22.2507 23.8724 22.3448 25.417 22.5265C26.9456 22.7064 27.6719 22.961 27.6719 23.9173C27.6719 24.8822 26.7682 25.4346 25.1921 25.4346C23.0128 25.4372 22.5566 24.5478 22.5566 23.8017Z" fill="#83CD29"/>
</g>
<defs>
<clipPath id="clip0_384_355">
<rect width="12.0233" height="12.0831" fill="white" transform="translate(17.4883 16.917)"/>
</clipPath>
</defs>
</svg>
