<svg width="30" height="30" viewBox="0 0 30 30" fill="none" xmlns="http://www.w3.org/2000/svg">
<g clip-path="url(#clip0_229_256)">
<path d="M12.3813 5.94436L7.21515 3.49609L1.54492 6.1527L6.8513 8.65384L12.3813 5.94436Z" fill="#4DABCF"/>
<path d="M14.7502 7.06445L20.1668 9.63089L14.5466 12.2802L9.23242 9.77496L14.7502 7.06445Z" fill="#4DABCF"/>
<path d="M21.9837 3.5332L27.5482 6.1525L22.5723 8.49815L17.1436 5.92861L21.9837 3.5332Z" fill="#4DABCF"/>
<path d="M19.5892 2.40393L14.5788 0.046875L9.62402 2.36765L14.7858 4.81178L19.5892 2.40393Z" fill="#4DABCF"/>
<path d="M15.6729 22.6519V29.069L21.7414 26.2269L21.7347 19.8066L15.6729 22.6519Z" fill="#4DABCF"/>
<path d="M21.7325 17.5677L21.7258 11.2148L15.6729 14.0394V20.3943L21.7325 17.5677Z" fill="#4DABCF"/>
<path d="M29.0184 16.375V22.817L23.8422 25.2414L23.8389 18.8295L29.0184 16.375Z" fill="#4DABCF"/>
<path d="M29.0182 14.123V7.81055L23.832 10.2308L23.8365 16.5961L29.0182 14.123Z" fill="#4DABCF"/>
<path d="M13.5296 14.0403L9.44159 12.1114V20.4502C9.44159 20.4502 4.44231 10.4643 3.98277 9.56773C3.88511 9.45053 3.75885 9.35672 3.61447 9.29409C2.71542 8.85771 0.0883789 7.60352 0.0883789 7.60352V22.3325L3.7224 24.1568V16.4575C3.7224 16.4575 8.66827 25.3789 8.71834 25.4753C8.97301 25.9952 9.33961 26.4609 9.79542 26.8435C10.502 27.2819 13.5307 28.9922 13.5307 28.9922L13.5296 14.0403Z" fill="#4D77CF"/>
</g>
<defs>
<clipPath id="clip0_229_256">
<rect width="29.0188" height="29.0227" fill="white" transform="translate(0.0439453 0.046875)"/>
</clipPath>
</defs>
</svg>
