<svg width="29" height="29" viewBox="0 0 29 29" fill="none" xmlns="http://www.w3.org/2000/svg">
<g clip-path="url(#clip0_333_1116)">
<path d="M26.9237 11.8671C27.248 10.8906 27.3601 9.85622 27.2527 8.83293C27.1452 7.80965 26.8206 6.82107 26.3006 5.93325C25.5296 4.59131 24.3524 3.52885 22.9387 2.89907C21.525 2.26929 19.9479 2.10472 18.4346 2.42908C17.5749 1.47276 16.4786 0.759494 15.256 0.360914C14.0334 -0.0376658 12.7274 -0.107524 11.4692 0.158357C10.2111 0.424237 9.04502 1.0165 8.08819 1.87565C7.13135 2.7348 6.41743 3.83059 6.01811 5.05298C5.00996 5.25971 4.05754 5.67924 3.22451 6.28354C2.39148 6.88783 1.69703 7.66297 1.18756 8.55715C0.408226 9.89685 0.0751446 11.4497 0.236469 12.9912C0.397793 14.5326 1.04516 15.9829 2.08499 17.1322C1.75954 18.1082 1.64627 19.1425 1.75276 20.1658C1.85924 21.1891 2.18302 22.1779 2.70245 23.066C3.47438 24.4084 4.6526 25.4711 6.0673 26.1009C7.48201 26.7307 9.06014 26.895 10.5743 26.5703C11.2573 27.3394 12.0965 27.954 13.036 28.373C13.9755 28.792 14.9935 29.0057 16.0221 29C17.5732 29.0014 19.0846 28.5099 20.3382 27.5965C21.5917 26.683 22.5226 25.3949 22.9964 23.918C24.0044 23.7109 24.9567 23.2912 25.7897 22.6869C26.6227 22.0826 27.3172 21.3076 27.827 20.4137C28.5971 19.0759 28.9244 17.5289 28.7622 15.9939C28.6 14.4589 27.9565 13.0143 26.9237 11.8671ZM16.0221 27.1019C14.7518 27.1039 13.5214 26.6587 12.5465 25.8443L12.718 25.7471L18.4917 22.4143C18.6354 22.33 18.7547 22.2098 18.8379 22.0655C18.9211 21.9212 18.9654 21.7577 18.9662 21.5911V13.4507L21.4071 14.8627C21.4191 14.8688 21.4296 14.8777 21.4376 14.8886C21.4456 14.8995 21.4508 14.9122 21.453 14.9255V21.6712C21.4499 23.1106 20.8768 24.4902 19.8589 25.508C18.8411 26.5258 17.4615 27.0989 16.0221 27.1019ZM4.3488 22.1171C3.71173 21.017 3.483 19.7276 3.70283 18.4755L3.87441 18.5785L9.65387 21.9113C9.79687 21.9952 9.95967 22.0394 10.1255 22.0394C10.2913 22.0394 10.4541 21.9952 10.5971 21.9113L17.6571 17.841V20.6593C17.6565 20.6739 17.6525 20.6882 17.6456 20.7011C17.6386 20.7139 17.6289 20.7251 17.617 20.7336L11.7689 24.1065C10.5209 24.8254 9.03852 25.0198 7.64732 24.6468C6.25612 24.2738 5.06979 23.364 4.3488 22.1171ZM2.82823 9.54049C3.46972 8.43338 4.48224 7.58894 5.68655 7.15669V14.0166C5.68437 14.1824 5.72672 14.3456 5.80916 14.4894C5.89161 14.6332 6.01113 14.7522 6.15526 14.8341L13.181 18.8872L10.74 20.2991C10.7268 20.3061 10.7121 20.3098 10.6971 20.3098C10.6822 20.3098 10.6675 20.3061 10.6542 20.2991L4.81763 16.9321C3.57192 16.21 2.66311 15.0237 2.29024 13.633C1.91737 12.2422 2.11082 10.7604 2.82823 9.51197V9.54049ZM22.8821 14.1996L15.8335 10.1065L18.2688 8.69997C18.282 8.69296 18.2967 8.68929 18.3117 8.68929C18.3267 8.68929 18.3414 8.69296 18.3546 8.69997L24.1912 12.0728C25.0836 12.5877 25.8111 13.3459 26.2888 14.2588C26.7665 15.1717 26.9746 16.2016 26.8889 17.2284C26.8032 18.2551 26.4272 19.2363 25.8048 20.0574C25.1824 20.8785 24.3392 21.5055 23.3738 21.8654V15.0054C23.3687 14.84 23.3207 14.6787 23.2345 14.5374C23.1483 14.3961 23.0269 14.2798 22.8821 14.1996ZM25.3117 10.5467L25.1401 10.4437L19.3721 7.08238C19.2282 6.99794 19.0644 6.95343 18.8976 6.95343C18.7308 6.95343 18.567 6.99794 18.4231 7.08238L11.369 11.1525V8.33433C11.3675 8.32 11.3699 8.30553 11.3759 8.29245C11.3819 8.27937 11.3914 8.26816 11.4033 8.26002L17.2399 4.89288C18.1344 4.37754 19.1572 4.12756 20.1886 4.17217C21.22 4.21678 22.2174 4.55414 23.0641 5.14479C23.9108 5.73544 24.5718 6.55496 24.9699 7.5075C25.3679 8.46005 25.4865 9.50624 25.3118 10.5237L25.3117 10.5467ZM10.0368 15.5428L7.59595 14.1365C7.58374 14.1292 7.5733 14.1192 7.56536 14.1074C7.55743 14.0955 7.5522 14.0821 7.55004 14.068V7.33963C7.55138 6.30744 7.84654 5.29696 8.40101 4.42634C8.95548 3.55571 9.74634 2.86093 10.6811 2.42321C11.6159 1.98549 12.656 1.82294 13.6798 1.95454C14.7035 2.08615 15.6687 2.50649 16.4623 3.16641L16.2908 3.26368L10.5171 6.59626C10.3734 6.68054 10.2541 6.80075 10.1709 6.94509C10.0877 7.08942 10.0435 7.25291 10.0426 7.4195L10.0368 15.5428ZM11.3631 12.6846L14.5071 10.8723L17.6571 12.6846V16.3088L14.5186 18.121L11.3689 16.3088L11.3631 12.6846Z" fill="white"/>
</g>
<defs>
<clipPath id="clip0_333_1116">
<rect width="29" height="29" fill="white"/>
</clipPath>
</defs>
</svg>
