<svg width="58" height="16" viewBox="0 0 58 16" fill="none" xmlns="http://www.w3.org/2000/svg">
<g clip-path="url(#clip0_333_1101)">
<path d="M20.5971 10.4137C19.8698 10.4137 19.1291 10.1046 18.6652 9.49881V12.7715H17.2085V4.69226H18.5257L18.576 5.58099C19.0278 4.89808 19.8302 4.53735 20.5957 4.53735C22.0638 4.53735 23.1452 5.80063 23.1452 7.47554C23.1452 9.15044 22.0652 10.4144 20.5971 10.4137ZM20.146 5.64644C19.2927 5.64644 18.6029 6.32935 18.6029 7.47626C18.6029 8.62317 19.2927 9.30754 20.146 9.30754C20.9994 9.30754 21.6892 8.62463 21.6892 7.47772C21.6892 6.33081 20.9994 5.64644 20.146 5.64644Z" fill="white"/>
<path d="M28.6358 10.262L28.5855 9.37326C28.1337 10.0562 27.3306 10.4169 26.5651 10.4162C25.097 10.4162 24.0156 9.15363 24.0156 7.47872C24.0156 5.80381 25.0949 4.54053 26.5651 4.54126C27.3306 4.54126 28.1337 4.9049 28.5855 5.5849L28.6358 4.69617H29.9558V10.262H28.6358ZM27.0176 5.6489C26.1642 5.6489 25.4745 6.33181 25.4738 7.47872C25.4731 8.62562 26.1635 9.30926 27.0169 9.30926C27.8703 9.30926 28.5607 8.62635 28.5607 7.47944C28.5607 6.33253 27.871 5.6489 27.0176 5.6489Z" fill="white"/>
<path d="M35.0457 10.262V7.18271C35.0457 6.10053 34.6824 5.7398 34.0175 5.7398C33.327 5.7398 32.5742 6.38344 32.5742 7.15653V10.262H31.1182V4.69544H32.4488L32.5119 5.72671C32.8759 5.01762 33.691 4.54126 34.5196 4.54126C35.9621 4.54126 36.5025 5.57253 36.5025 6.95071V10.2627L35.0457 10.262Z" fill="white"/>
<path d="M41.8372 10.2641L41.787 9.37466C41.3351 10.0576 40.5321 10.4183 39.7672 10.4183C38.2992 10.4183 37.2178 9.15502 37.2178 7.48011C37.2178 5.8052 38.297 4.54266 39.7672 4.54266C40.4945 4.54266 41.2346 4.85248 41.6991 5.45757V2.5332H43.1552V10.2641H41.8372ZM40.219 5.65102C39.3692 5.65102 38.6759 6.33393 38.6759 7.48011C38.6759 8.6263 39.3657 9.3092 40.219 9.3092C41.0724 9.3092 41.7622 8.62702 41.7622 7.48011C41.7622 6.3332 41.0745 5.65102 40.219 5.65102Z" fill="white"/>
<path d="M48.6236 10.2647L48.5733 9.37594C48.1215 10.0588 47.3184 10.4188 46.5529 10.4188C45.0848 10.4188 44.0034 9.1563 44.0034 7.48067C44.0034 5.80503 45.0827 4.54321 46.5529 4.54321C47.3184 4.54321 48.1215 4.90685 48.5733 5.58758L48.6236 4.69812H49.9408V10.2639L48.6236 10.2647ZM47.0054 5.65158C46.1556 5.65158 45.4623 6.33448 45.4616 7.48139C45.4609 8.6283 46.152 9.30903 47.0047 9.30903C47.8573 9.30903 48.5485 8.62612 48.5485 7.47921C48.5485 6.3323 47.8588 5.65158 47.0054 5.65158Z" fill="white"/>
<path d="M53.1652 10.4476C52.3995 10.4411 51.6497 10.2228 50.9946 9.81563L51.2333 8.78508C51.6724 9.05563 52.3373 9.40399 53.1404 9.40399C53.7176 9.40399 54.1191 9.22363 54.1191 8.75963C54.1191 8.36036 53.7048 8.21854 52.9648 8.03817C51.6348 7.74145 51.1582 7.01999 51.1582 6.23381C51.1582 5.35745 51.8232 4.53345 53.2913 4.53345C54.1821 4.53345 54.9604 4.93272 55.1325 5.03599L54.8939 6.01563C54.4198 5.72257 53.8792 5.56256 53.326 5.55163C52.7368 5.55163 52.4478 5.75745 52.4478 6.09272C52.4478 6.46581 52.8246 6.63381 53.401 6.77563C54.8316 7.08472 55.4087 7.76763 55.4087 8.51526C55.4115 9.71308 54.5582 10.4476 53.1652 10.4476Z" fill="white"/>
<path d="M7.00874 0.903564H5.30273V4.54138H7.00874V0.903564Z" fill="white"/>
<path d="M7.00874 8.37622H5.30273V12.014H7.00874V8.37622Z" fill="white"/>
<path d="M7.00874 5.60303H5.30273V7.31939H7.00874V5.60303Z" fill="#FFCA00"/>
<path d="M4.269 3.89551H2.56299V15.9879H4.269V3.89551Z" fill="white"/>
<path d="M9.69282 11.3779H7.98682V15.0157H9.69282V11.3779Z" fill="white"/>
<path d="M9.69282 3.89941H7.98682V7.53723H9.69282V3.89941Z" fill="white"/>
<path d="M9.69282 8.59863H7.98682V10.315H9.69282V8.59863Z" fill="#E70488"/>
<path d="M12.3759 -0.0449219H10.6699V12.0474H12.3759V-0.0449219Z" fill="white"/>
</g>
<defs>
<clipPath id="clip0_333_1101">
<rect width="58" height="16" fill="white"/>
</clipPath>
</defs>
</svg>
