<svg width="29" height="29" viewBox="0 0 29 29" fill="none" xmlns="http://www.w3.org/2000/svg">
<g clip-path="url(#clip0_333_859)">
<path d="M28.4517 17.3655C28.2831 16.8549 27.8414 16.4992 27.2702 16.4138C27.0009 16.3736 26.6924 16.3907 26.3274 16.466C25.6912 16.5972 25.2192 16.6472 24.8747 16.6569C26.1749 14.4616 27.2322 11.9581 27.8409 9.60149C28.825 5.79103 28.2991 4.05512 27.6845 3.26987C26.0581 1.19162 23.685 0.0750892 20.8221 0.0408631C19.2949 0.0222239 17.9541 0.323764 17.2548 0.54055C16.6036 0.425728 15.9034 0.361562 15.1687 0.349677C13.7916 0.327725 12.5748 0.627902 11.5351 1.24488C10.9594 1.0503 10.0357 0.775911 8.9688 0.600755C6.45959 0.188808 4.43733 0.509831 2.95814 1.5548C1.16695 2.82006 0.336566 5.01832 0.490161 8.0886C0.538869 9.06342 1.08421 12.0293 1.94279 14.8421C2.43624 16.4588 2.96242 17.8014 3.50673 18.8328C4.2786 20.2955 5.10451 21.1568 6.03173 21.4661C6.55148 21.6393 7.49572 21.7605 8.48892 20.9335C8.61479 21.0859 8.78267 21.2374 9.00563 21.378C9.28866 21.5566 9.63481 21.7024 9.98045 21.7889C11.2263 22.1004 12.3932 22.0224 13.3888 21.5859C13.3949 21.763 13.3996 21.9322 13.4036 22.0782C13.4103 22.3152 13.4168 22.5475 13.4255 22.7648C13.4844 24.2339 13.5844 25.3763 13.8805 26.1755C13.8968 26.2195 13.9187 26.2865 13.9418 26.3574C14.0895 26.8099 14.3366 27.5671 14.965 28.1603C15.616 28.7746 16.4033 28.963 17.1243 28.963C17.4859 28.963 17.8309 28.9156 18.1335 28.8507C19.2123 28.6195 20.4375 28.2673 21.3237 27.0054C22.1615 25.8124 22.5689 24.0157 22.6426 21.1844C22.6521 21.1044 22.661 21.028 22.6695 20.9551C22.6752 20.906 22.681 20.8557 22.687 20.8056L22.8844 20.8229L22.9352 20.8263C24.034 20.8764 25.3774 20.6434 26.2025 20.2601C26.8545 19.9576 28.9436 18.8547 28.4517 17.3655Z" fill="black"/>
<path d="M26.573 17.6552C23.3061 18.3291 23.0815 17.223 23.0815 17.223C26.5308 12.1048 27.9727 5.60804 26.7284 4.01799C23.3337 -0.319364 17.4574 1.73193 17.3593 1.78518L17.3277 1.79083C16.6823 1.65685 15.96 1.57703 15.1482 1.56378C13.67 1.53956 12.5487 1.95131 11.6978 2.59654C11.6978 2.59654 1.21499 -1.72198 1.70253 8.0279C1.80625 10.1021 4.67545 23.7223 8.09773 19.6084C9.34858 18.1041 10.5571 16.8321 10.5571 16.8321C11.1574 17.2309 11.876 17.4343 12.6294 17.3612L12.6879 17.3115C12.6697 17.4983 12.6781 17.681 12.7114 17.8973C11.8297 18.8823 12.0888 19.0552 10.3264 19.418C8.54306 19.7855 9.59069 20.4399 10.2747 20.6109C11.1039 20.8182 13.0223 21.112 14.3186 19.2974L14.2669 19.5045C14.6123 19.7811 14.8549 21.3042 14.8142 22.6848C14.7736 24.0654 14.7464 25.0133 15.0186 25.7537C15.2908 26.494 15.5621 28.1599 17.8789 27.6635C19.8149 27.2486 20.8181 26.1735 20.9576 24.3802C21.0567 23.1052 21.2808 23.2937 21.295 22.1538L21.4747 21.6142C21.682 19.886 21.5077 19.3284 22.7004 19.5877L22.9902 19.6132C23.8681 19.6531 25.017 19.472 25.6914 19.1586C27.1434 18.4847 28.0046 17.3596 26.5729 17.6552H26.573Z" fill="#336791"/>
<path d="M12.3116 8.95519C12.0172 8.91421 11.7506 8.95214 11.6157 9.05424C11.5398 9.11171 11.5163 9.17828 11.51 9.22413C11.4931 9.34551 11.5781 9.47969 11.6304 9.54892C11.7782 9.74486 11.9942 9.87956 12.208 9.90924C12.239 9.91352 12.2697 9.9156 12.3004 9.9156C12.6569 9.9156 12.981 9.63803 13.0096 9.43313C13.0453 9.17653 12.6728 9.00546 12.3116 8.95519Z" fill="white"/>
<path d="M22.0643 8.96365C22.0362 8.76251 21.6782 8.70517 21.3385 8.75238C20.9994 8.79966 20.6704 8.95274 20.6979 9.15433C20.72 9.3111 21.0029 9.57874 21.3381 9.57868C21.3663 9.57868 21.3949 9.57679 21.4237 9.57277C21.6473 9.54179 21.8114 9.39975 21.8894 9.31786C22.0082 9.19316 22.0768 9.05405 22.0643 8.96365Z" fill="white"/>
<path d="M27.6602 17.5784C27.5357 17.2017 27.1348 17.0805 26.4686 17.2181C24.4908 17.6263 23.7825 17.3435 23.5499 17.1722C25.0872 14.8302 26.3519 11.9993 27.0342 9.35792C27.3574 8.10676 27.5359 6.94483 27.5505 5.9978C27.5666 4.95816 27.3896 4.19434 27.0244 3.72771C25.5522 1.84651 23.3915 0.837458 20.776 0.809727C18.9779 0.789529 17.4587 1.24973 17.1642 1.3791C16.544 1.22486 15.8678 1.13017 15.1318 1.11809C13.7819 1.09626 12.6152 1.41943 11.6491 2.0781C11.2295 1.92198 10.1451 1.54971 8.81897 1.33611C6.52615 0.966894 4.70424 1.24661 3.40404 2.16773C1.85263 3.26686 1.13642 5.23158 1.27521 8.0072C1.3219 8.94111 1.85393 11.8138 2.69367 14.565C3.79897 18.186 5.00039 20.236 6.26461 20.6576C6.41256 20.7069 6.58323 20.7415 6.77131 20.7415C7.23249 20.7415 7.79783 20.5336 8.38611 19.8264C9.36321 18.6509 10.2755 17.6659 10.6118 17.308C11.1087 17.5748 11.6546 17.7237 12.2131 17.7386C12.214 17.7532 12.2155 17.7679 12.2168 17.7824C12.1048 17.9153 12.0129 18.0317 11.9346 18.1312C11.5477 18.6223 11.4672 18.7245 10.2218 18.981C9.86757 19.054 8.92658 19.248 8.91288 19.9075C8.89787 20.628 10.025 20.9307 10.1535 20.9628C10.601 21.0748 11.0321 21.1301 11.4433 21.1301C12.4433 21.13 13.3232 20.8014 14.0265 20.1655C14.0048 22.7344 14.112 25.2658 14.4204 26.037C14.673 26.6684 15.2902 28.2115 17.2396 28.2113C17.5256 28.2113 17.8405 28.1781 18.1868 28.1039C20.2213 27.6676 21.1048 26.7685 21.4466 24.7861C21.6294 23.7266 21.9433 21.1966 22.0909 19.8396C22.4024 19.9368 22.8035 19.9812 23.2371 19.9812C24.1414 19.9812 25.1848 19.7891 25.8392 19.4853C26.5742 19.144 27.9008 18.3062 27.6602 17.5784ZM22.8153 8.40817C22.8085 8.80881 22.7534 9.17251 22.6949 9.55218C22.6321 9.96048 22.567 10.3826 22.5506 10.8951C22.5345 11.3938 22.5967 11.9123 22.657 12.4137C22.7787 13.4265 22.9036 14.4692 22.4201 15.498C22.3449 15.3646 22.2724 15.219 22.2059 15.0577C22.1458 14.912 22.0153 14.678 21.8347 14.3541C21.1318 13.0936 19.4857 10.1416 20.3283 8.93695C20.5793 8.57832 21.2163 8.20976 22.8153 8.40817ZM20.8771 1.62102C23.2206 1.67278 25.0743 2.54947 26.3869 4.22662C27.3935 5.51305 26.285 11.3665 23.076 16.4163C23.0443 16.3761 23.0121 16.3354 22.9787 16.2937C22.9654 16.277 22.9518 16.2601 22.9381 16.2429C23.7673 14.8734 23.6051 13.5185 23.4608 12.3171C23.4015 11.8241 23.3456 11.3585 23.3598 10.9212C23.3745 10.4574 23.4358 10.0599 23.4951 9.67544C23.568 9.2016 23.6421 8.7114 23.6216 8.13345C23.6369 8.07286 23.6431 8.00122 23.6351 7.91621C23.5829 7.36197 22.9502 5.70347 21.6605 4.20213C20.9551 3.3811 19.9263 2.46219 18.5217 1.84242C19.1259 1.7172 19.9521 1.60043 20.8771 1.62102ZM7.76361 19.3088C7.11552 20.088 6.66792 19.9387 6.52076 19.8897C5.56171 19.5698 4.44901 17.5429 3.46795 14.3287C2.61905 11.5475 2.12294 8.75095 2.08371 7.96674C1.95973 5.48661 2.56093 3.7581 3.87067 2.82926C6.00217 1.31766 9.50661 2.22241 10.9147 2.68131C10.8945 2.70125 10.8734 2.71996 10.8534 2.74022C8.54269 5.07389 8.5975 9.061 8.60315 9.30467C8.60296 9.39871 8.61082 9.53185 8.62166 9.71499C8.66141 10.3856 8.73538 11.6337 8.53775 13.0471C8.35402 14.3606 8.75889 15.6462 9.64838 16.5742C9.74047 16.6703 9.83659 16.7605 9.93589 16.8454C9.53992 17.2694 8.67946 18.207 7.76361 19.3088ZM10.2329 16.0141C9.51596 15.2661 9.19039 14.2256 9.3395 13.1592C9.54823 11.6661 9.47114 10.3657 9.42977 9.66706C9.42399 9.56932 9.41886 9.48366 9.41581 9.41605C9.7534 9.11678 11.3177 8.27854 12.4333 8.53416C12.9425 8.6508 13.2526 8.99741 13.3816 9.59374C14.0491 12.6808 13.4699 13.9675 13.0046 15.0014C12.9087 15.2144 12.8181 15.4157 12.7407 15.6241L12.6807 15.7851C12.5289 16.1922 12.3876 16.5707 12.3001 16.9302C11.538 16.9279 10.7966 16.6023 10.2329 16.0141ZM10.3499 20.1774C10.1273 20.1218 9.92719 20.0252 9.80977 19.9451C9.90784 19.899 10.0824 19.8362 10.3851 19.7739C11.8502 19.4722 12.0764 19.2594 12.5705 18.632C12.6838 18.4882 12.8122 18.3251 12.9901 18.1265L12.9903 18.1263C13.2552 17.8297 13.3763 17.88 13.596 17.9711C13.7741 18.0448 13.9475 18.268 14.0178 18.5136C14.0511 18.6296 14.0885 18.8498 13.9662 19.0211C12.934 20.4663 11.43 20.4477 10.3499 20.1774ZM18.0171 27.3123C16.2248 27.6963 15.5903 26.7818 15.1721 25.7364C14.9022 25.0614 14.7696 22.0179 14.8637 18.657C14.8649 18.6122 14.8585 18.569 14.8462 18.5284C14.8355 18.45 14.819 18.3707 14.7961 18.2909C14.6561 17.8019 14.3151 17.3928 13.9059 17.2232C13.7434 17.1559 13.4449 17.0323 13.0864 17.124C13.1629 16.8089 13.2955 16.4532 13.4392 16.068L13.4996 15.9059C13.5675 15.7232 13.6526 15.5339 13.7428 15.3336C14.2297 14.2518 14.8967 12.7701 14.1728 9.42261C13.9017 8.16885 12.9964 7.55661 11.6239 7.69877C10.801 7.78392 10.0483 8.11592 9.67286 8.30627C9.59214 8.34718 9.5183 8.38667 9.44932 8.42518C9.55408 7.16187 9.95005 4.80105 11.4311 3.30738C12.3635 2.36698 13.6054 1.90256 15.1184 1.92756C18.0997 1.9764 20.0115 3.50638 21.0905 4.78131C22.0202 5.87999 22.5236 6.98665 22.7245 7.5835C21.2136 7.4299 20.186 7.72819 19.665 8.47292C18.5317 10.0929 20.285 13.2373 21.1277 14.7484C21.2822 15.0254 21.4156 15.2647 21.4575 15.3664C21.7319 16.0315 22.0872 16.4754 22.3466 16.7996C22.4261 16.8989 22.5032 16.9952 22.5619 17.0793C22.1043 17.2113 21.2822 17.5161 21.3571 19.0397C21.2967 19.8043 20.8671 23.3838 20.6488 24.6485C20.3607 26.3193 19.7459 26.9417 18.0171 27.3123ZM25.4983 18.7511C25.0304 18.9683 24.2472 19.1312 23.5033 19.1662C22.6816 19.2047 22.2634 19.0742 22.165 18.9939C22.1187 18.0444 22.4722 17.9452 22.8463 17.8401C22.905 17.8236 22.9624 17.8075 23.0177 17.7882C23.0521 17.8162 23.0898 17.844 23.131 17.8712C23.7915 18.3071 24.9694 18.3541 26.6324 18.0109C26.6385 18.0096 26.6446 18.0084 26.6506 18.0072C26.4264 18.2169 26.0425 18.4984 25.4983 18.7511Z" fill="white"/>
</g>
<defs>
<clipPath id="clip0_333_859">
<rect width="29" height="29" fill="white"/>
</clipPath>
</defs>
</svg>
