<svg width="56" height="17" viewBox="0 0 56 17" fill="none" xmlns="http://www.w3.org/2000/svg">
<path d="M32.146 5.64746C32.4434 5.64746 32.7322 5.6889 33.0125 5.77179C33.2843 5.86297 33.4288 5.97901 33.4288 6.11992C33.4288 6.19452 33.4033 6.26911 33.3523 6.33542C33.3183 6.40173 33.2419 6.45146 33.1654 6.45146C33.055 6.41831 32.9446 6.37687 32.8341 6.32713C32.6217 6.23596 32.3924 6.18623 32.1545 6.19452C31.9082 6.18623 31.6533 6.24425 31.441 6.36858C31.2541 6.49291 31.1521 6.70841 31.1691 6.93221C31.1606 7.13943 31.2456 7.33836 31.407 7.47098C31.5854 7.61188 31.7892 7.72793 32.0101 7.79423C32.248 7.87712 32.4858 7.9683 32.7237 8.07605C32.9615 8.19209 33.1654 8.36615 33.3183 8.58166C33.4882 8.8469 33.5732 9.15358 33.5647 9.46855C33.5647 9.95759 33.4203 10.3306 33.1229 10.5792C32.8001 10.8445 32.3839 10.9771 31.9591 10.9522C31.5769 10.9605 31.1946 10.8693 30.8633 10.687C30.5575 10.4881 30.4046 10.314 30.4046 10.1399C30.4046 10.0571 30.4386 9.98245 30.4895 9.91614C30.532 9.85812 30.5915 9.81668 30.6679 9.80839C30.7359 9.81668 30.7953 9.84983 30.8378 9.89956C30.9058 9.95759 30.9737 10.0239 31.0502 10.0985C31.1521 10.1897 31.2711 10.256 31.3985 10.2974C31.5684 10.3637 31.7553 10.3886 31.9337 10.3886C32.2055 10.4052 32.4688 10.3223 32.6812 10.1648C32.8681 9.99903 32.97 9.75037 32.953 9.50171C32.9615 9.26133 32.8766 9.03754 32.7067 8.86348C32.5368 8.6977 32.3329 8.57337 32.1036 8.49049C31.8657 8.4076 31.6363 8.31642 31.39 8.21696C31.1521 8.11749 30.9482 7.9683 30.7868 7.76937C30.6169 7.54557 30.5235 7.27205 30.5405 6.99023C30.532 6.76644 30.583 6.54264 30.6849 6.33542C30.7699 6.16136 30.9058 6.02045 31.0757 5.92099C31.2371 5.82981 31.407 5.7635 31.5854 5.71377C31.7723 5.67233 31.9591 5.64746 32.146 5.64746ZM27.7966 6.03703C28.0855 6.28569 28.2299 6.68355 28.2299 7.21403V9.3608C28.2299 9.89956 28.0855 10.2891 27.7966 10.5378C27.117 11.0434 26.1826 11.0434 25.503 10.5378C25.2227 10.2891 25.0783 9.89956 25.0783 9.3608V7.21403C25.0783 6.67526 25.2227 6.28569 25.503 6.03703C26.1826 5.53971 27.117 5.53971 27.7966 6.03703ZM48.7876 5.66404C48.9914 5.66404 49.1189 5.73035 49.1613 5.87126L50.6649 10.5958V10.6373C50.6649 10.7119 50.614 10.7782 50.546 10.8113C50.4696 10.8611 50.3761 10.8859 50.2742 10.8776C50.1807 10.8859 50.0873 10.8362 50.0533 10.745L49.7305 9.70064H47.8106L47.4878 10.745C47.4624 10.8362 47.3604 10.8942 47.267 10.8859C47.182 10.8859 47.0971 10.8611 47.0206 10.8113C46.9442 10.7782 46.9017 10.7119 46.9017 10.629C46.9017 10.6124 46.9102 10.5875 46.9187 10.5709L48.4138 5.87126C48.4563 5.73035 48.5837 5.66404 48.7876 5.66404ZM41.2101 5.66404C41.4055 5.66404 41.5669 5.78837 41.7028 6.04532L42.8496 8.19209L44.0049 6.04532C44.1493 5.79666 44.3107 5.66404 44.4976 5.66404C44.642 5.63917 44.778 5.73864 44.8035 5.87954C44.8119 5.90441 44.8119 5.92928 44.8035 5.95414V10.6538C44.8035 10.7201 44.7695 10.7782 44.71 10.8113C44.5741 10.8859 44.4127 10.8859 44.2768 10.8113C44.2173 10.7782 44.1833 10.7201 44.1833 10.6538V6.91563L43.079 8.93808C43.045 9.03754 42.9516 9.11214 42.8411 9.11214C42.7392 9.10385 42.6457 9.03754 42.6118 8.93808L41.5074 6.87419V10.6538C41.5074 10.7201 41.4734 10.7782 41.414 10.8113C41.3545 10.8528 41.2781 10.8776 41.2101 10.8776C41.1336 10.8776 41.0572 10.8611 40.9977 10.8196C40.9298 10.7947 40.8873 10.7284 40.8958 10.6621V5.96243C40.8703 5.82152 40.9722 5.6889 41.1167 5.66404C41.1506 5.65575 41.1846 5.65575 41.2101 5.66404ZM53.086 5.65575C53.1794 5.65575 53.2729 5.6889 53.3493 5.74693C53.4343 5.82981 53.5107 5.92928 53.5532 6.03703L55.3796 9.51828V5.86297C55.3796 5.79666 55.4136 5.73864 55.4731 5.71377C55.609 5.63917 55.7704 5.63917 55.9063 5.71377C55.9658 5.74693 55.9997 5.80495 55.9997 5.86297V10.6621C55.9997 10.7284 55.9658 10.7865 55.9063 10.8196C55.8383 10.8611 55.7704 10.8776 55.6939 10.8776C55.524 10.8693 55.3711 10.7616 55.3117 10.6041L53.3918 7.0151V10.6621C53.3918 10.7284 53.3578 10.7865 53.3069 10.8196C53.1709 10.8942 53.0095 10.8942 52.8736 10.8196C52.8142 10.7865 52.7802 10.7284 52.7802 10.6621V5.86297C52.7802 5.72206 52.8821 5.65575 53.086 5.65575ZM19.9983 5.65575H21.383C21.7907 5.63917 22.1985 5.77179 22.5128 6.02874C22.7931 6.2774 22.9375 6.66697 22.9375 7.19745V7.26376C22.9375 7.79423 22.7931 8.19209 22.5043 8.44075C22.1815 8.6977 21.7737 8.83861 21.3575 8.81374H20.3721V10.6621C20.3721 10.7284 20.3381 10.7865 20.2786 10.8196C20.1427 10.8942 19.9813 10.8942 19.8454 10.8196C19.7859 10.7865 19.752 10.7284 19.752 10.6621V5.86297C19.752 5.80495 19.7774 5.75521 19.8199 5.71377C19.8709 5.67233 19.9303 5.64746 19.9983 5.65575ZM38.5852 5.65575C38.6531 5.65575 38.7126 5.68062 38.7466 5.73864C38.7891 5.78837 38.806 5.85468 38.806 5.92099C38.806 5.9873 38.7891 6.0619 38.7466 6.11992C38.7126 6.17794 38.6531 6.2028 38.5852 6.2028H37.4214V10.6621C37.4214 10.7284 37.3874 10.7865 37.3279 10.8196C37.192 10.8942 37.0306 10.8942 36.8947 10.8196C36.8352 10.7865 36.8012 10.7284 36.8012 10.6621V6.2028H35.6204C35.5525 6.2028 35.493 6.17794 35.459 6.11992C35.4166 6.0619 35.3911 5.99559 35.3911 5.92099C35.3911 5.85468 35.4081 5.78837 35.4506 5.73864C35.4845 5.68062 35.544 5.65575 35.612 5.65575H38.5852ZM26.6583 6.19452C26.0212 6.19452 25.7069 6.52606 25.7069 7.20574L25.6984 9.3608C25.6984 10.0322 26.0127 10.372 26.6583 10.372C26.9217 10.3886 27.1765 10.2974 27.3719 10.1234C27.5588 9.91614 27.6437 9.64261 27.6267 9.3608V7.20574C27.6522 6.93221 27.5588 6.65868 27.3719 6.44318C27.1765 6.26911 26.9217 6.17794 26.6583 6.19452ZM48.7876 6.53435L47.9636 9.20331H49.6031L48.7876 6.53435ZM21.3575 6.2028H20.3721L20.3636 8.31642H21.3575C21.6208 8.333 21.8842 8.24182 22.0711 8.05947C22.258 7.85226 22.3514 7.57873 22.3259 7.29691V7.21403C22.3514 6.9405 22.258 6.66697 22.0711 6.45146C21.8757 6.2774 21.6208 6.18623 21.3575 6.2028Z" fill="#FF6C37"/>
<path d="M16.9234 9.34286C17.518 4.80065 14.2305 0.648013 9.58379 0.0678035C4.93708 -0.512406 0.664134 2.69532 0.0694904 7.22924C-0.525154 11.7632 2.76238 15.9241 7.4091 16.5126C12.0643 17.0928 16.3203 13.8851 16.9234 9.34286Z" fill="#FF6C37"/>
<path d="M11.563 5.32341L7.97818 8.82124L6.96729 7.83489C10.4927 4.39507 10.841 4.69347 11.563 5.32341Z" fill="white"/>
<path d="M7.97836 8.9045C7.95288 8.9045 7.93589 8.89621 7.9189 8.87963L6.89951 7.89328C6.86553 7.86012 6.86553 7.81039 6.89951 7.77724C10.4844 4.27941 10.8581 4.61095 11.6142 5.27405C11.6312 5.29063 11.6397 5.3072 11.6397 5.33207C11.6397 5.35694 11.6312 5.37351 11.6142 5.39009L8.02933 8.87963C8.02084 8.89621 7.99535 8.9045 7.97836 8.9045ZM7.0864 7.83526L7.97836 8.70557L11.4358 5.33207C10.8072 4.78502 10.3824 4.61924 7.0864 7.83526Z" fill="#FF6C37"/>
<path d="M9.00621 9.82408L8.0293 8.87088L11.6141 5.37305C12.5741 6.31796 11.1384 7.85137 9.00621 9.82408Z" fill="white"/>
<path d="M9.00601 9.90685C8.98052 9.90685 8.96353 9.89856 8.94654 9.88198L7.96963 8.92878C7.95264 8.9122 7.95264 8.89562 7.95264 8.87076C7.95264 8.84589 7.96113 8.82931 7.97812 8.81274L11.563 5.31491C11.597 5.28175 11.6479 5.28175 11.6819 5.31491C11.9028 5.51383 12.0217 5.79565 12.0132 6.08575C11.9962 7.0058 10.9259 8.17451 9.07397 9.88198C9.04848 9.89856 9.023 9.90685 9.00601 9.90685ZM8.14802 8.87076C8.69169 9.40952 8.92106 9.62503 9.00601 9.70792C10.4332 8.38172 11.8178 7.02238 11.8263 6.08575C11.8348 5.87025 11.7499 5.65474 11.6054 5.48897L8.14802 8.87076Z" fill="#FF6C37"/>
<path d="M6.9844 7.85865L7.70647 8.56319C7.72346 8.57976 7.72346 8.59634 7.70647 8.61292C7.69797 8.62121 7.69797 8.62121 7.68948 8.62121L6.19437 8.93618C6.11792 8.94447 6.04996 8.89473 6.03297 8.82013C6.02448 8.77869 6.04147 8.73725 6.06695 8.71238L6.93343 7.86693C6.95042 7.85036 6.97591 7.84207 6.9844 7.85865Z" fill="white"/>
<path d="M6.16911 9.01953C6.04169 9.01953 5.94824 8.92006 5.94824 8.79573C5.94824 8.73771 5.97373 8.67969 6.0162 8.63825L6.88268 7.7928C6.93365 7.75136 7.00161 7.75136 7.05258 7.7928L7.77465 8.49734C7.82562 8.53878 7.82562 8.61338 7.77465 8.66312C7.75766 8.67969 7.74067 8.68798 7.71518 8.69627L6.22008 9.01124C6.20309 9.01124 6.1861 9.01953 6.16911 9.01953ZM6.95914 7.95029L6.12664 8.76258C6.10965 8.77916 6.10115 8.80402 6.11814 8.82889C6.12664 8.85375 6.15212 8.86204 6.1776 8.85376L7.57927 8.55536L6.95914 7.95029Z" fill="#FF6C37"/>
<path d="M13.4574 3.38409C12.9137 2.87019 12.0387 2.88677 11.5121 3.42554C10.9854 3.9643 11.0024 4.80975 11.5545 5.32365C12.0048 5.74637 12.6844 5.82097 13.2195 5.506L12.2511 4.56109L13.4574 3.38409Z" fill="white"/>
<path d="M12.506 5.77905C11.699 5.77905 11.0449 5.14082 11.0449 4.35339C11.0449 3.56596 11.699 2.92773 12.506 2.92773C12.8798 2.92773 13.2451 3.06864 13.5169 3.32559C13.5339 3.34217 13.5424 3.35875 13.5424 3.38361C13.5424 3.40848 13.5339 3.42506 13.5169 3.44163L12.3701 4.56061L13.2706 5.43921C13.3046 5.47237 13.3046 5.5221 13.2706 5.55525C13.2621 5.56354 13.2621 5.56354 13.2536 5.57183C13.0327 5.70445 12.7694 5.77905 12.506 5.77905ZM12.506 3.1018C11.7925 3.1018 11.2148 3.66543 11.2233 4.36168C11.2233 5.05793 11.801 5.62156 12.5145 5.61327C12.7099 5.61327 12.9053 5.57183 13.0837 5.48065L12.1917 4.61863C12.1747 4.60205 12.1663 4.58547 12.1663 4.56061C12.1663 4.53574 12.1747 4.51917 12.1917 4.50259L13.3301 3.3919C13.1007 3.20126 12.8119 3.1018 12.506 3.1018Z" fill="#FF6C37"/>
<path d="M13.4832 3.40818L13.4662 3.3916L12.2515 4.56031L13.2114 5.49693C13.3048 5.43891 13.3983 5.3726 13.4747 5.298C14.0184 4.77581 14.0184 3.93037 13.4832 3.40818Z" fill="white"/>
<path d="M13.2194 5.58846C13.1939 5.58846 13.1769 5.58017 13.1599 5.5636L12.1915 4.61868C12.1745 4.60211 12.166 4.58553 12.166 4.56066C12.166 4.5358 12.1745 4.51922 12.1915 4.50264L13.3978 3.32565C13.4318 3.29249 13.4827 3.29249 13.5167 3.32565L13.5422 3.34222C14.1114 3.89757 14.1114 4.79275 13.5507 5.35638C13.4657 5.43927 13.3723 5.51386 13.2704 5.57189C13.2449 5.58017 13.2279 5.58846 13.2194 5.58846ZM12.3699 4.56066L13.2279 5.39782C13.2958 5.35638 13.3638 5.29836 13.4148 5.24863C13.899 4.77617 13.9245 4.00532 13.4572 3.508L12.3699 4.56066Z" fill="#FF6C37"/>
<path d="M11.7078 5.47244C11.5039 5.27351 11.1726 5.27351 10.9687 5.47244L7.76611 8.59728L8.30129 9.11947L11.6908 6.21842C11.9116 6.03607 11.9286 5.71281 11.7417 5.4973C11.7247 5.48902 11.7162 5.48073 11.7078 5.47244Z" fill="white"/>
<path d="M8.29249 9.20126C8.26701 9.20126 8.25002 9.19297 8.23303 9.17639L7.69785 8.6542C7.66387 8.62105 7.66387 8.57132 7.69785 8.53816L10.9004 5.41332C11.1383 5.18124 11.5206 5.18124 11.7584 5.41332C11.9963 5.6454 11.9963 6.0184 11.7584 6.25048C11.7499 6.25877 11.7414 6.26706 11.7329 6.27535L8.34346 9.17639C8.33497 9.19297 8.31798 9.20126 8.29249 9.20126ZM7.88474 8.59618L8.30099 9.00233L11.631 6.15102C11.8179 6.00182 11.8349 5.72829 11.682 5.54594C11.5291 5.36359 11.2487 5.34701 11.0618 5.49621C11.0533 5.5045 11.0448 5.51279 11.0279 5.52107L7.88474 8.59618Z" fill="#FF6C37"/>
<path d="M5.31098 12.1533C5.277 12.1699 5.26001 12.203 5.2685 12.2362L5.41291 12.833C5.44689 12.9158 5.39593 13.0153 5.30248 13.0402C5.23452 13.065 5.15807 13.0402 5.11559 12.9904L4.18115 12.087L7.23083 9.11133L8.2842 9.12791L8.99777 9.82416C8.82787 9.96506 7.79999 10.9348 5.31098 12.1533Z" fill="white"/>
<path d="M5.2431 13.1229C5.17515 13.1229 5.10719 13.0981 5.06471 13.0483L4.13877 12.1449C4.12178 12.1283 4.11328 12.1117 4.11328 12.0869C4.11328 12.062 4.12178 12.0454 4.13877 12.0288L7.18844 9.05319C7.20543 9.03661 7.23091 9.02832 7.2479 9.02832L8.30127 9.0449C8.32676 9.0449 8.34375 9.05319 8.36074 9.06976L9.07431 9.76601C9.0913 9.78259 9.0998 9.80746 9.0998 9.83232C9.0998 9.85719 9.0913 9.87377 9.06582 9.89035L9.00635 9.94008C8.10589 10.7109 6.88262 11.4818 5.36203 12.2195L5.50645 12.808C5.53193 12.9157 5.48096 13.0318 5.37902 13.0898C5.32805 13.1146 5.28558 13.1229 5.2431 13.1229ZM4.30866 12.0869L5.18364 12.9323C5.20913 12.9737 5.26009 12.9903 5.30257 12.9655C5.34504 12.9406 5.36203 12.8909 5.33655 12.8494L5.19214 12.2526C5.17515 12.178 5.20913 12.1117 5.27708 12.0786C6.78068 11.3409 7.99546 10.5783 8.88742 9.82404L8.2588 9.21067L7.28188 9.19409L4.30866 12.0869Z" fill="#FF6C37"/>
<path d="M3.45873 12.7997L4.18929 12.0869L5.27664 13.1479L3.54368 13.0318C3.46723 13.0235 3.41626 12.9572 3.42475 12.8826C3.42475 12.8495 3.43325 12.8163 3.45873 12.7997Z" fill="white"/>
<path d="M5.27697 13.2218L3.53552 13.1058C3.40809 13.0975 3.32314 12.9898 3.33164 12.8654C3.34013 12.8157 3.35712 12.766 3.3996 12.7328L4.13016 12.02C4.16414 11.9868 4.21511 11.9868 4.24909 12.02L5.33644 13.0809C5.36192 13.1058 5.37042 13.139 5.35343 13.1721C5.33644 13.2053 5.31095 13.2218 5.27697 13.2218ZM4.18963 12.2023L3.51853 12.8571C3.49304 12.8737 3.49304 12.9152 3.51853 12.9317C3.52702 12.94 3.53552 12.9483 3.55251 12.9483L5.05611 13.0478L4.18963 12.2023Z" fill="#FF6C37"/>
<path d="M6.93309 9.49224C6.88212 9.49224 6.84814 9.4508 6.84814 9.40935C6.84814 9.38449 6.85664 9.36791 6.87363 9.35133L7.69764 8.54733C7.73162 8.51417 7.78258 8.51417 7.81656 8.54733L8.35174 9.06951C8.37723 9.09438 8.38572 9.11925 8.37723 9.1524C8.36873 9.17727 8.34325 9.20213 8.30927 9.21042L6.95008 9.49224C6.94159 9.49224 6.93309 9.49224 6.93309 9.49224ZM7.7571 8.72139L7.19644 9.26844L8.11389 9.0778L7.7571 8.72139Z" fill="#FF6C37"/>
<path d="M8.28426 9.12816L7.34982 9.32709C7.28186 9.34366 7.2139 9.30222 7.19691 9.23591C7.18842 9.19447 7.19691 9.15302 7.23089 9.11987L7.74908 8.61426L8.28426 9.12816Z" fill="white"/>
<path d="M7.33249 9.40935C7.21356 9.40935 7.12012 9.31818 7.12012 9.20213C7.12012 9.14411 7.1456 9.09438 7.17958 9.05294L7.69777 8.54733C7.73175 8.51417 7.78272 8.51417 7.8167 8.54733L8.35188 9.06951C8.37736 9.09438 8.38586 9.11925 8.37736 9.1524C8.36887 9.17727 8.34338 9.20213 8.30941 9.21042L7.37496 9.40935C7.35798 9.40935 7.34099 9.40935 7.33249 9.40935ZM7.75724 8.72139L7.29851 9.16898C7.28152 9.18556 7.28152 9.20213 7.29002 9.21871C7.29851 9.23529 7.3155 9.24358 7.34099 9.24358L8.12252 9.0778L7.75724 8.72139Z" fill="#FF6C37"/>
<path d="M13.4913 4.20474C13.4743 4.155 13.4149 4.13014 13.3639 4.14672C13.3129 4.16329 13.2875 4.22131 13.3044 4.27105C13.3044 4.27934 13.3129 4.28762 13.3129 4.29591C13.3639 4.39538 13.3469 4.51971 13.279 4.61088C13.245 4.65233 13.2535 4.71035 13.2875 4.7435C13.3299 4.77666 13.3894 4.76837 13.4234 4.72693C13.5508 4.56944 13.5763 4.37051 13.4913 4.20474Z" fill="#FF6C37"/>
</svg>
