<svg width="29" height="29" viewBox="0 0 29 29" fill="none" xmlns="http://www.w3.org/2000/svg">
<g clip-path="url(#clip0_333_1004)">
<path fill-rule="evenodd" clip-rule="evenodd" d="M11.4098 0C9.13427 0 7.28962 1.78612 7.28962 3.98942V6.75132H14.4208V7.51852H4.12022C1.84468 7.51852 0 9.30465 0 11.5079V17.4921C0 19.6954 1.84468 21.4814 4.12022 21.4814H6.49726V18.1058C6.49726 15.9026 8.34195 14.1164 10.6175 14.1164H18.224C20.1495 14.1164 21.7103 12.6051 21.7103 10.7408V3.98942C21.7103 1.78612 19.8657 0 17.5902 0H11.4098ZM10.4591 4.91005C11.2467 4.91005 11.8852 4.29177 11.8852 3.5291C11.8852 2.76642 11.2467 2.14814 10.4591 2.14814C9.67129 2.14814 9.03277 2.76642 9.03277 3.5291C9.03277 4.29177 9.67129 4.91005 10.4591 4.91005Z" fill="url(#paint0_linear_333_1004)"/>
<path fill-rule="evenodd" clip-rule="evenodd" d="M17.5901 29.001C19.8656 29.001 21.7103 27.2149 21.7103 25.0116V22.2497H14.5791V21.4825H24.8797C27.1553 21.4825 28.9999 19.6963 28.9999 17.4931V11.5089C28.9999 9.30564 27.1553 7.51953 24.8797 7.51953H22.5027V10.8952C22.5027 13.0985 20.6579 14.8846 18.3825 14.8846H10.7759C8.85038 14.8846 7.28955 16.3959 7.28955 18.2602V25.0116C7.28955 27.2149 9.13427 29.001 11.4097 29.001H17.5901ZM18.5409 24.091C17.7532 24.091 17.1147 24.7092 17.1147 25.4719C17.1147 26.2346 17.7532 26.8528 18.5409 26.8528C19.3286 26.8528 19.9671 26.2346 19.9671 25.4719C19.9671 24.7092 19.3286 24.091 18.5409 24.091Z" fill="url(#paint1_linear_333_1004)"/>
</g>
<defs>
<linearGradient id="paint0_linear_333_1004" x1="10.8552" y1="0" x2="10.8552" y2="21.4814" gradientUnits="userSpaceOnUse">
<stop stop-color="#327EBD"/>
<stop offset="1" stop-color="#1565A7"/>
</linearGradient>
<linearGradient id="paint1_linear_333_1004" x1="18.1448" y1="7.51953" x2="18.1448" y2="29.001" gradientUnits="userSpaceOnUse">
<stop stop-color="#FFDA4B"/>
<stop offset="1" stop-color="#F9C600"/>
</linearGradient>
<clipPath id="clip0_333_1004">
<rect width="29" height="29" fill="white"/>
</clipPath>
</defs>
</svg>
