<svg width="34" height="29" viewBox="0 0 34 29" fill="none" xmlns="http://www.w3.org/2000/svg">
<g clip-path="url(#clip0_384_342)">
<path d="M17.0001 17.3836C18.6766 17.3836 20.0358 16.079 20.0358 14.4697C20.0358 12.8603 18.6766 11.5557 17.0001 11.5557C15.3235 11.5557 13.9644 12.8603 13.9644 14.4697C13.9644 16.079 15.3235 17.3836 17.0001 17.3836Z" fill="#00D8FF"/>
<path d="M17 21.1504C13.3512 21.2352 9.71161 20.763 6.21714 19.7517C4.6029 19.2605 3.09732 18.4868 1.7765 17.4695C1.27249 17.122 0.852758 16.6739 0.546115 16.156C0.239472 15.6382 0.0531731 15.0627 0 14.4693C0 12.5425 2.20514 10.6543 5.899 9.41873C9.48689 8.32395 13.2356 7.79336 17 7.84751C20.7141 7.7977 24.4127 8.3187 27.9553 9.39076C29.5099 9.86651 30.9644 10.6029 32.2514 11.5658C32.7468 11.8971 33.1603 12.3289 33.4624 12.8307C33.7646 13.3324 33.9481 13.8918 34 14.4693C34 16.4717 31.535 18.501 27.5643 19.7622C24.1375 20.7406 20.5747 21.2088 17 21.1504ZM17 9.24156C13.3986 9.19536 9.81243 9.69976 6.37621 10.7359C2.97621 11.8746 1.45229 13.4319 1.45229 14.4658C1.45229 15.5474 3.09036 17.248 6.68707 18.4288C10.0301 19.3914 13.5109 19.8395 17 19.7564C20.4199 19.8151 23.8291 19.3709 27.1089 18.4393C30.8429 17.2515 32.5429 15.5486 32.5429 14.4693C32.4816 14.0989 32.341 13.7447 32.1299 13.4291C31.9188 13.1135 31.6418 12.8434 31.3164 12.6358C30.165 11.7816 28.8656 11.1289 27.4781 10.7079C24.089 9.68654 20.5518 9.19153 17 9.24156Z" fill="#00D8FF"/>
<path d="M10.1031 29.0035C9.53662 29.016 8.97684 28.8841 8.4808 28.6212C6.74194 27.6584 6.13965 24.882 6.86944 21.1929C7.67408 17.6624 9.06827 14.2801 10.998 11.1769C12.8082 8.06375 15.1256 5.24862 17.8624 2.83827C19.0683 1.78306 20.4596 0.941311 21.9715 0.352053C22.5184 0.106041 23.1149 -0.0214844 23.7189 -0.0214844C24.3228 -0.0214844 24.9194 0.106041 25.4662 0.352053C27.2743 1.35213 27.8729 4.41532 27.029 8.34687C26.1995 11.6858 24.8416 14.8829 23.0024 17.8267C21.256 20.9031 19.0115 23.6937 16.353 26.0942C15.1032 27.1908 13.6528 28.0559 12.0751 28.6457C11.4434 28.8707 10.7767 28.9917 10.1031 29.0035ZM12.256 11.8693C10.4153 14.8408 9.07903 18.0746 8.29744 21.4493C7.62594 24.847 8.27072 26.8903 9.20815 27.4102C10.1796 27.9498 12.5377 27.4381 15.401 25.037C17.9389 22.7372 20.0812 20.066 21.7481 17.1226C23.5099 14.3083 24.8126 11.2517 25.6107 8.05897C26.4049 4.3582 25.7188 2.09229 24.7449 1.55378C24.3799 1.41954 23.9899 1.35944 23.5995 1.3773C23.209 1.39515 22.8267 1.49057 22.4767 1.65752C21.1308 2.1906 19.8935 2.9474 18.8217 3.89313C16.2069 6.20193 13.9933 8.89696 12.2645 11.8763L12.256 11.8693Z" fill="#00D8FF"/>
<path d="M23.8936 29.0183C22.2483 29.0183 20.1585 28.0625 17.9825 26.2664C15.1978 23.8341 12.8412 20.9855 11.004 17.8309C9.09844 14.7705 7.71529 11.4371 6.90698 7.9572C6.55643 6.42617 6.49147 4.84761 6.71512 3.29482C6.76683 2.71879 6.94956 2.16066 7.25042 1.65979C7.55128 1.15893 7.96296 0.727515 8.45641 0.395982C10.2621 -0.607595 13.3257 0.423957 16.4525 3.08851C19.0518 5.44555 21.2591 8.17132 22.9975 11.1707C24.9018 14.1597 26.2995 17.4201 27.1382 20.83C27.5038 22.4172 27.5602 24.0557 27.3045 25.6626C27.2437 26.2552 27.0501 26.8281 26.737 27.3422C26.4238 27.8562 25.9986 28.2992 25.4904 28.6407C25.0025 28.9003 24.4514 29.0306 23.8936 29.0183ZM12.2608 17.1293C14.0232 20.144 16.2743 22.8702 18.9296 25.2057C21.6605 27.4611 23.8268 27.946 24.7582 27.4203C25.7296 26.8783 26.446 24.666 25.7078 21.0865C24.8989 17.8309 23.5583 14.7187 21.7358 11.8654C20.0769 8.99472 17.97 6.38465 15.4883 4.12589C12.5449 1.61753 10.1576 1.05687 9.18498 1.59771C8.88183 1.83419 8.63305 2.12843 8.45435 2.46187C8.27565 2.7953 8.17092 3.16068 8.14677 3.53493C7.9537 4.91976 8.01659 6.32642 8.33255 7.69027C9.11006 11.0182 10.4366 14.2055 12.262 17.1316L12.2608 17.1293Z" fill="#00D8FF"/>
</g>
<defs>
<clipPath id="clip0_384_342">
<rect width="34" height="29" fill="white"/>
</clipPath>
</defs>
</svg>
