<svg width="29" height="29" viewBox="0 0 29 29" fill="none" xmlns="http://www.w3.org/2000/svg">
<g clip-path="url(#clip0_228_88)">
<path d="M27.8638 22.2143C26.3162 23.1537 18.299 26.9922 16.5921 28.0283C14.8854 29.0646 13.9372 29.0546 12.5889 28.304C11.2406 27.5534 2.70887 23.5403 1.17204 22.6849C0.40386 22.2574 0 21.8966 0 21.5557V18.1423C0 18.1423 11.1071 15.3265 12.9003 14.5775C14.6934 13.8284 15.3155 13.8013 16.8415 14.4522C18.3675 15.1032 27.4918 17.0202 29 17.6635C29 17.6635 28.9993 20.7121 28.9993 21.0286C28.9995 21.366 28.6515 21.7362 27.8638 22.2143Z" fill="#912626"/>
<path d="M27.8632 18.8189C26.3157 19.7578 18.2988 23.5965 16.592 24.6326C14.8853 25.669 13.9371 25.6589 12.5888 24.9083C11.2405 24.1582 2.70914 20.1445 1.17236 19.2895C-0.364408 18.4341 -0.396693 17.8453 1.113 17.157C2.62259 16.4684 11.1071 12.5921 12.9005 11.843C14.6935 11.0941 15.3155 11.0668 16.8414 11.7179C18.3674 12.3688 26.3365 16.0625 27.8445 16.7056C29.3529 17.3495 29.4107 17.8795 27.8632 18.8189Z" fill="#C6302B"/>
<path d="M27.8638 16.6908C26.3162 17.6302 18.299 21.4687 16.5921 22.5052C14.8854 23.5412 13.9372 23.5311 12.5889 22.7805C11.2405 22.0303 2.70887 18.0168 1.17204 17.1615C0.40386 16.7339 0 16.3735 0 16.0326V12.6189C0 12.6189 11.1071 9.8032 12.9003 9.05403C14.6934 8.305 15.3155 8.27782 16.8415 8.92871C18.3675 9.57973 27.4918 11.4964 29 12.1397C29 12.1397 28.9993 15.1884 28.9993 15.5052C28.9995 15.8425 28.6515 16.2127 27.8638 16.6908Z" fill="#912626"/>
<path d="M27.8632 13.2954C26.3157 14.2346 18.2988 18.073 16.592 19.1095C14.8853 20.1455 13.9371 20.1354 12.5888 19.3848C11.2405 18.6347 2.70914 14.6211 1.17236 13.766C-0.364408 12.9108 -0.396693 12.322 1.113 11.6334C2.62259 10.9452 11.1071 7.06863 12.9005 6.31962C14.6935 5.57061 15.3155 5.54344 16.8414 6.19443C18.3674 6.8453 26.3365 10.5388 27.8445 11.1821C29.3529 11.8257 29.4107 12.3561 27.8632 13.2954Z" fill="#C6302B"/>
<path d="M27.8638 10.9619C26.3162 11.9013 18.299 15.74 16.5921 16.7765C14.8854 17.8126 13.9372 17.8024 12.5889 17.0518C11.2405 16.3016 2.70887 12.288 1.17204 11.4329C0.40386 11.0052 0 10.6447 0 10.304V6.89013C0 6.89013 11.1071 4.07459 12.9003 3.32556C14.6934 2.5764 15.3155 2.54936 16.8415 3.20024C18.3675 3.85126 27.4918 5.7679 29 6.41126C29 6.41126 28.9993 9.45989 28.9993 9.77663C28.9995 10.1137 28.6515 10.4838 27.8638 10.9619Z" fill="#912626"/>
<path d="M27.8632 7.56864C26.3157 8.50787 18.2988 12.3466 16.592 13.3828C14.8853 14.4188 13.9371 14.4086 12.5888 13.6583C11.2406 12.908 2.70914 8.89464 1.17236 8.03944C-0.364408 7.18425 -0.396693 6.59525 1.113 5.90679C2.62259 5.21846 11.1071 1.3423 12.9005 0.593031C14.6935 -0.156108 15.3155 -0.183019 16.8414 0.467977C18.3674 1.11897 26.3365 4.81243 27.8445 5.45578C29.3529 6.09899 29.4107 6.62942 27.8632 7.56864Z" fill="#C6302B"/>
<path d="M18.0439 4.24739L15.5507 4.54883L14.9925 6.11272L14.0909 4.36755L11.2119 4.06623L13.3602 3.16413L12.7156 1.7793L14.7269 2.69528L16.623 1.97236L16.1106 3.40432L18.0439 4.24739Z" fill="white"/>
<path d="M14.8432 11.8357L10.1899 9.58825L16.8578 8.39648L14.8432 11.8357Z" fill="white"/>
<path d="M8.39198 5.11719C10.3603 5.11719 11.9558 5.83748 11.9558 6.72584C11.9558 7.61434 10.3603 8.3345 8.39198 8.3345C6.4238 8.3345 4.82812 7.61434 4.82812 6.72584C4.82812 5.83748 6.4238 5.11719 8.39198 5.11719Z" fill="white"/>
<path d="M20.9902 4.67578L24.9365 6.49177L20.9936 8.30593L20.9902 4.67578Z" fill="#621B1C"/>
<path d="M16.6245 6.6868L20.9904 4.67578L20.9937 8.30593L20.5657 8.50095L16.6245 6.6868Z" fill="#9A2928"/>
</g>
<defs>
<clipPath id="clip0_228_88">
<rect width="29" height="29" fill="white"/>
</clipPath>
</defs>
</svg>
