<svg width="29" height="29" viewBox="0 0 29 29" fill="none" xmlns="http://www.w3.org/2000/svg">
<g clip-path="url(#clip0_228_69)">
<path d="M24.1667 0.402778L2.4501 0C1.80085 0.0019408 1.17871 0.279067 0.719618 0.770825C0.260528 1.26258 0.00181187 1.92899 0 2.62444V26.3756C0.00181187 27.071 0.260528 27.7374 0.719618 28.2292C1.17871 28.7209 1.80085 28.9981 2.4501 29H16.5139C16.3628 21.9418 13.2917 10.6381 24.1667 0.402778Z" fill="#0F80CC"/>
<path d="M24.1668 0.804688H2.52691C2.07059 0.805257 1.63313 0.977185 1.31047 1.28277C0.987803 1.58836 0.806265 2.00266 0.805664 2.43482V21.7491C5.73736 19.9876 10.9433 19.0123 16.2117 18.8631C17.6051 12.7273 21.8726 6.6927 24.1668 0.804688Z" fill="url(#paint0_linear_228_69)"/>
<path d="M27.5754 0.629948C26.1856 -0.481373 24.4947 -0.0349802 22.827 1.28659C22.5803 1.48338 22.3336 1.70088 22.0881 1.93391C18.9508 5.25211 16.7814 9.21362 15.7738 13.4645C16.0849 14.0713 16.3307 14.7032 16.5081 15.3516C16.5498 15.4966 16.588 15.6333 16.6239 15.7493C16.6957 16.0238 16.7397 16.2019 16.7397 16.2019C16.7397 16.2019 16.7143 16.1159 16.6089 15.8436L16.5405 15.6675C16.529 15.6395 16.5139 15.6064 16.4965 15.5701C16.3112 15.1838 15.8016 14.3687 15.57 14.0166C15.3766 14.5272 15.2052 15.0046 15.0627 15.4365C15.5436 16.3614 15.8967 17.3353 16.1143 18.3365C16.1143 18.3365 16.0796 18.2174 15.9163 17.8031C15.6025 17.1981 15.2546 16.6076 14.874 16.0341C14.6278 16.6023 14.5234 17.2117 14.5682 17.8197C14.8233 18.2745 15.015 18.7555 15.1392 19.2521C15.526 20.5809 15.7947 22.1997 15.7947 22.1997C15.7947 22.1997 15.804 22.3033 15.8179 22.4721C15.767 23.5789 15.7921 24.6875 15.8931 25.7916C15.9506 26.8847 16.1782 27.9654 16.5695 29.0023L16.778 28.8987C16.2927 27.3403 16.1055 25.7197 16.2244 24.1054C16.4424 20.6832 17.198 17.3054 18.4689 14.0714C20.7967 8.57388 24.028 4.16173 26.9812 2.05716C24.2874 4.23216 20.6415 11.275 19.5494 13.8829C18.3994 16.5681 17.5256 19.3415 16.9389 22.1687C17.6372 20.5909 19.0042 19.3237 20.7423 18.6431C20.7423 18.6431 22.1703 17.0678 23.8392 14.8182C22.761 15.0193 21.6959 15.2727 20.6485 15.5774C19.8378 15.8819 19.6189 15.9854 19.6189 15.9854C21.1665 15.152 22.8014 14.4558 24.5005 13.9068C27.5997 9.54123 30.9768 3.34248 27.5765 0.62477" fill="#D8F3FF"/>
</g>
<defs>
<linearGradient id="paint0_linear_228_69" x1="11.2536" y1="1.27722" x2="11.2536" y2="20.6308" gradientUnits="userSpaceOnUse">
<stop stop-color="#97D9F6"/>
<stop offset="0.92" stop-color="#0F80CC"/>
<stop offset="1" stop-color="#0F80CC"/>
</linearGradient>
<clipPath id="clip0_228_69">
<rect width="29" height="29" fill="white"/>
</clipPath>
</defs>
</svg>
