<svg width="59" height="65" viewBox="0 0 59 65" fill="none" xmlns="http://www.w3.org/2000/svg">
<g clip-path="url(#clip0_2315_3047)">
<path d="M37.1815 30.3779L24.3645 34.5629L13.2145 39.4839L10.0945 40.3079C9.27109 41.0944 8.42799 41.8599 7.56602 42.6039C6.57802 43.4559 5.65802 44.2314 4.95102 44.7929C4.16602 45.4129 3.00352 46.5754 2.41252 47.3119C1.53052 48.4164 0.833524 49.5884 0.533024 50.4894C2.36034e-05 52.1169 0.262024 53.7639 1.28852 55.2849C2.60652 57.2224 5.23152 59.1989 8.29252 60.5449C9.85252 61.2334 12.4775 62.1149 14.4545 62.6084C17.738 63.4419 24.0935 64.3434 27.5905 64.4784C28.2975 64.5079 29.247 64.5079 29.2855 64.4784C29.3635 64.4299 29.906 63.3934 30.536 62.1054C32.686 57.7164 34.236 53.5994 35.0795 50.0824C35.583 47.9514 35.98 45.1129 36.2415 41.7514C36.3095 40.8114 36.3385 37.6629 36.2805 36.5974C36.193 34.8539 36.038 33.4394 35.7955 32.0544C35.757 31.8504 35.7475 31.6664 35.767 31.6564C35.8055 31.6279 35.922 31.5889 37.501 31.1334L37.1815 30.3779ZM34.256 32.0929C34.3725 32.0929 34.682 35.0664 34.7595 36.9459C34.779 37.3434 34.7695 37.6049 34.7495 37.6049C34.6725 37.6049 33.1125 36.6849 31.999 35.9869C31.03 35.3769 29.189 34.1564 28.899 33.9234C28.8015 33.8559 28.811 33.8459 29.6055 33.5749C30.952 33.1199 34.1495 32.0924 34.2555 32.0924L34.256 32.0929ZM27.726 34.2429C27.8135 34.2429 28.036 34.3689 28.569 34.6984C30.5645 35.9484 33.2775 37.4599 34.44 37.9634C34.798 38.1184 34.837 38.0599 34.0135 38.6224C32.2505 39.8234 30.0515 41.0054 27.3585 42.1969C26.8835 42.4099 26.486 42.5744 26.4765 42.5744C26.457 42.5744 26.5155 42.3324 26.593 42.0419C27.2415 39.6294 27.61 37.1884 27.6295 35.2314C27.6395 34.2624 27.6395 34.2624 27.7265 34.2334C27.7065 34.2434 27.7165 34.2434 27.7265 34.2434L27.726 34.2429ZM26.38 34.7564C26.438 34.8149 26.399 36.9849 26.3215 37.5759C26.1479 39.0039 25.8498 40.4139 25.4305 41.7899C25.324 42.1484 25.227 42.4489 25.2075 42.4679C25.1685 42.5164 23.8415 41.2179 23.4055 40.7144C22.65 39.8424 22.059 38.9709 21.623 38.1184C21.4005 37.6824 21.0515 36.8299 21.0805 36.8009C21.2355 36.6939 26.341 34.7179 26.38 34.7564ZM20.044 37.2464C20.0535 37.2464 20.063 37.2464 20.073 37.2559C20.0925 37.2754 20.1605 37.4309 20.2185 37.6049C20.5285 38.4474 21.2255 39.6874 21.8265 40.4819C22.4855 41.3539 23.3475 42.2844 24.0645 42.8944C24.297 43.0879 24.51 43.2719 24.539 43.3009C24.597 43.3594 24.6165 43.3494 23.037 43.9504C21.207 44.6479 19.211 45.3454 16.9245 46.0814C16.3784 46.2576 15.8327 46.4352 15.2875 46.6144C15.2 46.6434 15.2295 46.5944 15.481 46.1974C16.6145 44.4254 18.3385 40.9474 19.3075 38.4864C19.4725 38.0599 19.6375 37.6339 19.6665 37.5369C19.705 37.4014 19.7535 37.3529 19.879 37.2849C19.947 37.2659 20.015 37.2464 20.044 37.2464ZM18.1065 38.0504C18.1355 38.0699 17.6415 39.1064 17.157 40.0554C16.217 41.8869 15.1905 43.6889 13.815 45.8784C13.582 46.2559 13.36 46.6049 13.33 46.6434C13.282 46.7114 13.263 46.6919 13.1075 46.3919C12.778 45.7424 12.507 44.9094 12.3615 44.1439C12.2165 43.3884 12.2455 42.0709 12.4105 41.2569C12.5355 40.6569 12.5265 40.6664 12.817 40.5209C14.057 39.8909 18.0675 38.0119 18.1065 38.0504ZM34.8175 38.7289V39.1354C34.8175 41.2959 34.585 44.2604 34.246 46.4204C34.188 46.7984 34.1395 47.1084 34.13 47.1184C34.13 47.1184 33.849 47.0409 33.52 46.9439C31.976 46.4537 30.4833 45.8145 29.063 45.0354C28.123 44.5219 26.758 43.6789 26.7965 43.6404C26.806 43.6304 27.213 43.4174 27.6875 43.1654C29.5865 42.1774 31.4075 41.1119 32.987 40.0554C33.578 39.6584 34.469 39.0194 34.6625 38.8449L34.8175 38.7289ZM10.7925 41.5959C10.831 41.5959 10.821 41.6734 10.763 42.0224C10.7145 42.3663 10.6789 42.7119 10.6565 43.0584C10.579 44.4734 10.8115 45.5199 11.509 46.9534C11.703 47.3504 11.858 47.6799 11.848 47.6894C11.7805 47.7479 5.36702 49.6274 3.35202 50.1794C2.75152 50.3444 2.22852 50.4894 2.18952 50.4989C2.12152 50.5189 2.11202 50.5089 2.14102 50.3439C2.36402 48.9199 3.44902 47.0599 4.96052 45.4904C5.96752 44.4439 6.77202 43.8339 8.14752 43.0494C9.13552 42.4874 10.6565 41.6444 10.7725 41.6059C10.7725 41.5959 10.7825 41.5959 10.7925 41.5959ZM25.905 44.2989C25.915 44.2889 26.147 44.4154 26.428 44.5799C28.5015 45.7814 31.388 46.8954 33.8485 47.4669L34.0715 47.5154L33.7615 47.6899C32.4735 48.4069 28.2395 50.1699 23.9095 51.7874C23.2795 52.0199 22.6595 52.2524 22.5435 52.3009C22.427 52.3494 22.3205 52.3784 22.3205 52.3684C22.3205 52.3584 22.495 52.0199 22.7175 51.6034C23.9285 49.3364 25.149 46.5754 25.7695 44.6574C25.847 44.4734 25.895 44.3089 25.9045 44.2989H25.905ZM24.365 44.8024C24.3745 44.8124 24.297 45.0159 24.2 45.2484C23.357 47.2924 22.2525 49.5209 20.838 52.0199C20.48 52.6599 20.1795 53.1729 20.17 53.1729C20.16 53.1729 19.8695 52.9984 19.5205 52.7854C17.467 51.5259 15.6455 49.9759 14.4545 48.4744L14.2795 48.2614L15.1615 48.0189C18.3195 47.1569 21.003 46.2269 23.667 45.0839C24.045 44.9289 24.3555 44.8024 24.365 44.8024ZM33.936 48.1449C33.946 48.3679 33.4515 50.3634 33.0445 51.8069C32.7055 53.0179 32.415 53.9669 31.882 55.6429C31.65 56.3799 31.447 56.9894 31.437 56.9894C31.427 56.9894 31.369 56.9804 31.3105 56.9609C28.4335 56.4374 25.8565 55.7109 23.4345 54.7424C22.7565 54.4709 21.788 54.0349 21.7295 53.9864C21.7105 53.9669 22.2915 53.6959 23.028 53.3764C27.436 51.4484 32.008 49.2589 33.578 48.3194C33.762 48.2029 33.907 48.1449 33.936 48.1449ZM11.8385 48.9004C11.858 48.9204 10.6275 50.6929 8.90352 53.1054C8.30252 53.9479 7.60502 54.9359 7.34352 55.3039C7.04095 55.7308 6.74706 56.1637 6.46202 56.6024L6.05502 57.2324L5.61902 56.8639C5.10552 56.4374 4.21452 55.5269 3.81702 55.0234C2.98402 53.9869 2.42202 52.8919 2.19952 51.8944C2.09252 51.4294 2.09252 51.1964 2.18952 51.1679C3.90605 50.7579 5.62406 50.354 7.34352 49.9564C8.50064 49.69 9.65665 49.4189 10.8115 49.1429C11.3735 49.0074 11.829 48.9004 11.8385 48.9004ZM13.0785 49.3754L13.3885 49.7239C14.7835 51.2839 16.2075 52.4369 17.932 53.4439C18.242 53.6189 18.4745 53.7739 18.455 53.7839C18.3875 53.8319 12.468 55.9339 9.72652 56.8834C8.78897 57.2157 7.84929 57.5418 6.90752 57.8619C6.89802 57.8619 6.81052 57.8034 6.71402 57.7359L6.53952 57.6099L6.82052 57.2029C7.73052 55.8854 8.87402 54.4419 11.3635 51.4389L13.0785 49.3754ZM20.8095 54.9069C20.819 54.8969 21.245 55.0519 21.7685 55.2464C23.028 55.7209 24.0255 56.0214 25.3625 56.3604C27.0095 56.7769 29.3925 57.1839 30.7975 57.3004C31.0105 57.3194 31.1265 57.3389 31.088 57.3679C31.02 57.4064 29.596 57.8814 28.55 58.2104C26.8835 58.7339 21.7975 60.2354 17.651 61.4269C17.1645 61.5693 16.677 61.7083 16.1885 61.8439C16.0915 61.8629 15.7715 61.7754 15.7715 61.7369C15.7715 61.7179 16.004 61.4174 16.285 61.0879C17.68 59.4214 19.0655 57.5614 20.2185 55.7984C20.5385 55.3139 20.8095 54.9164 20.8095 54.9069ZM19.1045 54.9554C19.114 54.9654 18.426 56.0694 17.2245 57.9684C16.7115 58.7724 16.1395 59.6834 15.9365 60.0029C15.7425 60.3129 15.4515 60.7974 15.2875 61.0684L15.0065 61.5624L14.861 61.5239C14.512 61.4269 12.061 60.5644 11.412 60.3029C10.6424 59.9966 9.88906 59.6508 9.15502 59.2669C8.38002 58.8499 7.41152 58.2299 7.48902 58.2104C7.50802 58.2004 8.83552 57.8424 10.434 57.4064C14.6765 56.2534 17.031 55.5854 18.5715 55.1009C18.8525 55.0134 19.0945 54.9459 19.104 54.9559L19.1045 54.9554ZM31.1655 57.7839H31.1755C31.214 57.8814 29.6445 62.2404 29.0725 63.6159C28.947 63.9259 28.8985 64.0039 28.8305 63.9939C28.666 63.9839 26.3895 63.6649 25.004 63.4614C22.592 63.0934 18.542 62.3859 17.5255 62.1534L17.2925 62.1049L18.736 61.7754C21.836 61.0779 23.328 60.7004 24.8395 60.2354C26.7912 59.6382 28.698 58.9032 30.5455 58.0359C30.8455 57.9009 31.0975 57.7934 31.1655 57.7839Z" fill="url(#paint0_linear_2315_3047)"/>
<path d="M23.9675 0.5005C23.7545 0.4715 20.315 1.7115 18.097 2.6125C15.103 3.833 12.7785 4.9955 11.3445 6.003C10.8115 6.381 10.143 7.0495 10.0365 7.311C9.99689 7.41628 9.97722 7.52802 9.97851 7.6405L11.277 8.8705L14.367 9.859L21.72 11.1765L30.1285 12.62L30.216 11.8935C30.187 11.8935 30.1675 11.8835 30.1385 11.8835L29.034 11.7095L28.8115 11.312C27.668 9.297 26.409 6.7975 25.6725 5.112C25.1015 3.804 24.5585 2.293 24.2585 1.208C24.0935 0.549 24.0745 0.51 23.9675 0.5V0.5005ZM23.8125 0.9945H23.8225C23.832 1.0045 23.8705 1.276 23.9095 1.5955C24.0745 2.9515 24.3745 4.2595 24.8495 5.674C25.2075 6.739 25.2075 6.6815 24.791 6.5555C23.803 6.2845 19.376 5.519 16.169 5.073C15.6555 5.0055 15.2195 4.938 15.2195 4.928C15.181 4.889 17.5345 3.659 18.5715 3.1745C19.8985 2.5645 23.5415 1.043 23.8125 0.9945ZM14.4735 5.335L14.8515 5.461C16.9055 6.1585 22.0685 7.147 24.917 7.3795C25.2365 7.4085 25.508 7.4375 25.517 7.4375C25.527 7.4475 25.256 7.5925 24.907 7.757C23.5315 8.445 22.02 9.288 20.974 9.937C20.664 10.1305 20.383 10.286 20.344 10.286C20.3055 10.286 20.102 10.247 19.889 10.2175L19.5015 10.1595L18.5325 9.21C17.3545 8.06274 16.1695 6.92271 14.9775 5.79L14.4735 5.335ZM14.086 5.6355L15.452 7.3405C16.198 8.2805 16.954 9.2005 17.1185 9.404C17.2835 9.6075 17.4185 9.772 17.4085 9.782C17.37 9.811 15.4325 9.433 14.406 9.201C13.35 8.9585 12.914 8.842 12.265 8.6385L11.732 8.464V8.329C11.742 7.679 12.5655 6.7105 13.96 5.723L14.086 5.6355ZM25.692 7.9605C25.7305 7.9605 25.779 8.0475 25.895 8.309C26.225 9.0355 27.2515 10.9925 27.5035 11.3705C27.581 11.4965 27.7165 11.5065 26.3505 11.2835C23.0665 10.7505 22.0105 10.576 22.0105 10.557C22.0105 10.547 22.1075 10.4795 22.2335 10.4115C23.251 9.8495 24.2775 9.133 25.1885 8.3675C25.411 8.1835 25.6145 8.009 25.6535 7.98C25.663 7.9605 25.682 7.951 25.692 7.9605Z" fill="url(#paint1_linear_2315_3047)"/>
<path d="M10.1045 7.1748C10.1045 7.1748 9.89152 7.5143 10.0945 8.0183C10.2205 8.3283 10.5885 8.7058 11.0055 9.0933C11.0055 9.0933 15.316 13.2978 15.8395 13.8983C18.2225 16.6498 19.2595 19.3623 19.356 23.1018C19.4145 25.5043 18.959 27.6163 17.8255 30.0673C15.8105 34.4653 11.5575 39.3193 4.99902 44.7053L5.95802 44.3853C6.57802 43.9203 7.42102 43.4268 9.39752 42.3418C13.96 39.8418 19.0945 37.5463 25.3915 35.1818C34.459 31.7718 49.3685 27.7808 57.8545 26.4828L58.7365 26.3473L58.6005 26.1338C57.8255 24.9323 57.2925 24.1868 56.653 23.3923C54.793 21.0868 52.5365 19.2173 49.775 17.6673C45.9775 15.5453 41.066 13.8888 34.8465 12.6588C33.674 12.4258 31.097 11.9803 29.0045 11.6608C25.512 11.1235 22.0244 10.5551 18.542 9.9558C17.4085 9.7618 15.713 9.4713 14.5895 9.2288C14.008 9.1028 12.8945 8.8413 12.0225 8.5413C11.325 8.2698 10.3175 7.9988 10.104 7.1753L10.1045 7.1748ZM12.604 9.5968C12.6135 9.5878 12.7685 9.6458 12.972 9.7133C13.4361 9.86911 13.9046 10.0113 14.377 10.1398C14.8021 10.2567 15.2283 10.3698 15.6555 10.4788C16.2365 10.6238 16.721 10.7593 16.7305 10.7593C16.7985 10.8273 17.777 13.9563 18.1065 15.1578C18.2325 15.6128 18.3295 16.0003 18.32 16.0003C18.31 16.0103 18.2035 15.8453 18.0775 15.6228C16.944 13.6273 15.152 11.6028 13.0785 9.9748C12.8075 9.7813 12.604 9.6068 12.604 9.5968ZM17.37 10.9148C17.419 10.9148 17.632 10.9438 17.8935 11.0018C19.54 11.3698 22.495 11.9318 24.3835 12.2518C24.7035 12.3003 24.9555 12.3583 24.9555 12.3773C24.9555 12.3973 24.8395 12.4648 24.694 12.5423C24.374 12.7068 23.086 13.4723 22.6595 13.7623C21.5845 14.4798 20.6155 15.2548 19.918 15.9523C19.637 16.2333 19.395 16.4658 19.395 16.4658C19.395 16.4658 19.337 16.3008 19.288 16.0978C18.9395 14.7508 18.213 12.7553 17.554 11.3503C17.4475 11.1278 17.3605 10.9243 17.3605 10.9053C17.3605 10.9243 17.36 10.9148 17.37 10.9148ZM25.76 12.5128C25.818 12.5328 25.915 12.8618 26.1085 13.5883C26.4717 15.038 26.6283 16.5318 26.5735 18.0253C26.554 18.4323 26.5345 18.8103 26.515 18.8588L26.486 18.9553L25.9825 18.7903C24.946 18.4613 23.2605 17.9673 21.817 17.5603C20.9935 17.3373 20.325 17.1343 20.325 17.1153C20.325 17.0568 21.5265 15.8553 22.04 15.4003C23.018 14.5378 25.6725 12.4843 25.76 12.5128ZM26.428 12.6098C26.457 12.5808 30.439 13.2683 32.2505 13.6173C33.5975 13.8788 35.554 14.2858 35.6705 14.3343C35.728 14.3538 35.525 14.4693 34.8755 14.7608C32.318 15.9133 30.4195 16.9498 28.5305 18.2093C28.0365 18.5388 27.6195 18.8103 27.6105 18.8103C27.6005 18.8103 27.5905 18.5293 27.5905 18.1903C27.5905 16.3498 27.223 14.4893 26.5445 12.9203C26.4765 12.7653 26.4185 12.6198 26.428 12.6103V12.6098ZM36.726 14.6448C36.755 14.6733 36.6295 15.4583 36.513 15.9233C36.164 17.3668 35.2245 19.5078 34.072 21.5228C33.868 21.8813 33.684 22.1718 33.6645 22.1813C33.6455 22.1913 33.3845 22.0458 33.0835 21.8713C31.96 21.2123 30.681 20.5928 29.286 20.0113C28.8985 19.8463 28.5595 19.7113 28.55 19.6913C28.482 19.6338 31.6015 17.5703 33.248 16.5818C34.5565 15.7873 36.688 14.6058 36.726 14.6443V14.6448ZM37.4625 14.7608C37.5495 14.7608 39.3125 15.2448 40.233 15.5163C42.5095 16.1943 45.1255 17.1533 46.8305 17.9283L47.5375 18.2483L47.0435 18.3643C42.8785 19.3233 39.313 20.4283 35.8735 21.8228C35.5925 21.9393 35.3405 22.0363 35.3215 22.0363C35.302 22.0363 35.399 21.8133 35.525 21.5423C36.5615 19.3428 37.23 17.0473 37.395 15.0898C37.4045 14.9058 37.4335 14.7608 37.4625 14.7608ZM19.9085 18.7908C19.9375 18.7618 21.2835 19.0813 22.0105 19.2848C23.1155 19.5948 25.4595 20.3798 25.4595 20.4373C25.4595 20.4473 25.198 20.6703 24.888 20.9413C23.619 21.9973 22.398 23.1113 20.935 24.5258C20.4995 24.9423 20.1315 25.2813 20.112 25.2813C20.092 25.2813 20.083 25.2233 20.092 25.1458C20.315 23.5183 20.267 21.4258 19.957 19.3043C19.9275 19.0328 19.899 18.8003 19.9085 18.7908ZM48.206 18.8198C48.225 18.8393 47.586 19.8463 47.179 20.4178C46.598 21.2513 45.745 22.3558 43.8175 24.7778C42.9681 25.844 42.1221 26.9128 41.2795 27.9843C40.892 28.4688 40.5725 28.8753 40.562 28.8753C40.553 28.8753 40.427 28.7013 40.291 28.4883C39.206 26.8603 37.908 25.4363 36.3675 24.1578C36.1327 23.959 35.8938 23.7652 35.651 23.5763C35.544 23.4988 35.457 23.4213 35.457 23.4113C35.457 23.3828 37.1035 22.6753 38.3535 22.1718C40.5435 21.2803 43.5265 20.2148 45.765 19.5268C46.937 19.1588 48.1865 18.8003 48.206 18.8198ZM48.952 19.0133C48.9905 19.0038 49.2235 19.1203 49.504 19.2848C51.8585 20.6313 54.164 22.3658 55.985 24.1478C56.4985 24.6518 57.768 25.9693 57.7485 25.9788C57.7485 25.9788 57.3025 26.0178 56.7795 26.0563C52.701 26.3663 47.4795 27.2283 42.4615 28.4393C42.122 28.5168 41.8215 28.5843 41.8025 28.5843C41.7835 28.5843 42.161 28.2068 42.636 27.7518C45.581 24.9133 46.9275 23.1213 48.516 19.9238C48.739 19.4498 48.9325 19.0423 48.952 19.0133C48.942 19.0133 48.942 19.0133 48.952 19.0133ZM27.3775 21.2223C27.513 21.2513 28.7725 21.8423 29.722 22.3173C30.594 22.7528 31.902 23.4503 31.9695 23.5088C31.9795 23.5183 31.5145 23.7603 30.9425 24.0418C29.2348 24.8908 27.5638 25.8118 25.934 26.8023C25.469 27.0833 25.0815 27.3158 25.072 27.3158C25.033 27.3158 25.043 27.2768 25.3045 26.8023C26.1765 25.2138 26.874 23.3148 27.271 21.4643C27.3095 21.3193 27.3485 21.2223 27.3775 21.2223ZM26.118 21.4548C26.147 21.4838 25.818 22.6753 25.6145 23.3248C25.217 24.5548 24.5485 26.0948 23.8995 27.2578C23.7445 27.5288 23.512 27.9263 23.386 28.1488L23.144 28.5363L22.6015 28.0133C21.9715 27.4033 21.4585 27.0253 20.8 26.6858C20.538 26.5508 20.3345 26.4343 20.3345 26.4148C20.3345 26.3373 21.9915 24.8358 23.2605 23.7508C24.1705 22.9658 26.089 21.4258 26.118 21.4548ZM33.82 24.6228L34.295 24.9328C35.38 25.6403 36.6585 26.5798 37.637 27.4028C38.189 27.8578 39.2545 28.8178 39.468 29.0498L39.584 29.1758L38.799 29.3988C34.3625 30.6288 30.933 31.7238 26.932 33.1963C26.486 33.3613 26.1085 33.4963 26.0795 33.4963C26.0215 33.4963 25.973 33.5448 26.971 32.6243C29.5285 30.2708 31.795 27.6743 33.481 25.1458L33.82 24.6228ZM31.795 25.1263C31.815 25.1458 30.4875 27.0153 29.693 28.0713C28.7435 29.3308 27.058 31.4428 25.895 32.8183C25.411 33.3903 24.995 33.8648 24.975 33.8743C24.946 33.8843 24.936 33.7393 24.936 33.5158C24.936 32.3438 24.636 31.0938 24.113 30.0283C23.89 29.5828 23.851 29.4763 23.9 29.4278C24.084 29.2628 26.903 27.6548 28.685 26.6958C29.887 26.0563 31.766 25.1073 31.795 25.1263ZM19.55 28.1298C19.579 28.1298 19.8015 28.2458 20.054 28.3813C20.6436 28.7026 21.2014 29.0789 21.72 29.5053C21.7395 29.5243 21.4875 29.7283 21.158 29.9703C20.238 30.6288 18.843 31.6853 18.029 32.3343C17.1765 33.0123 17.1475 33.0313 17.244 32.8863C17.884 31.9078 18.2035 31.3558 18.5425 30.6483C18.8543 29.9903 19.126 29.3141 19.356 28.6233C19.4335 28.3433 19.5305 28.1298 19.55 28.1298ZM22.815 30.6868C22.863 30.6778 22.9215 30.7648 23.1825 31.1523C23.7345 31.9758 24.161 33.0803 24.2675 33.9713L24.2875 34.1648L22.96 34.6788C20.5865 35.5988 18.397 36.5093 16.915 37.1878C16.3736 37.4417 15.8342 37.7 15.297 37.9628C14.822 38.2048 14.435 38.3888 14.435 38.3793C14.435 38.3693 14.735 38.1468 15.103 37.8753C18 35.7733 20.509 33.4673 22.3885 31.1618C22.592 30.9198 22.776 30.6968 22.795 30.6873L22.815 30.6868ZM21.313 31.0553C21.352 31.0938 20.2475 32.3438 19.492 33.1093C17.622 35.0173 15.772 36.5093 13.476 37.9623C13.185 38.1463 12.9235 38.3113 12.8945 38.3303C12.827 38.3693 12.9135 38.2723 13.9215 37.1778C14.5125 36.5438 15.0719 35.881 15.5975 35.1918C15.9655 34.7168 16.033 34.6493 16.566 34.2718C17.9905 33.2443 21.2745 31.0168 21.313 31.0553Z" fill="url(#paint2_radial_2315_3047)"/>
</g>
<defs>
<linearGradient id="paint0_linear_2315_3047" x1="9.91427" y1="58.172" x2="14.5465" y2="55.4349" gradientUnits="userSpaceOnUse">
<stop stop-color="#909CA9"/>
<stop offset="1" stop-color="#EDEDEE"/>
</linearGradient>
<linearGradient id="paint1_linear_2315_3047" x1="10.0203" y1="6.56916" x2="13.7476" y2="6.56916" gradientUnits="userSpaceOnUse">
<stop stop-color="#939FAB"/>
<stop offset="1" stop-color="#DCDEE1"/>
</linearGradient>
<radialGradient id="paint2_radial_2315_3047" cx="0" cy="0" r="1" gradientUnits="userSpaceOnUse" gradientTransform="translate(28.8697 23.7297) rotate(-171.408) scale(4.80952 9.6197)">
<stop stop-color="#EE352C"/>
<stop offset="1" stop-color="#A91D22"/>
</radialGradient>
<clipPath id="clip0_2315_3047">
<rect width="58" height="64" fill="white" transform="translate(0.5 0.5)"/>
</clipPath>
</defs>
</svg>
