<svg width="34" height="30" viewBox="0 0 34 30" fill="none" xmlns="http://www.w3.org/2000/svg">
<g clip-path="url(#clip0_384_361)">
<path d="M23.0512 9.5459L19.2964 10.8856L16.0298 12.461L15.1159 12.7246C14.8832 12.9666 14.6391 13.2116 14.3752 13.4597C14.0857 13.7325 13.8161 13.9807 13.6088 14.1605C13.379 14.359 13.0384 14.7311 12.8653 14.9668C12.607 15.3203 12.4027 15.6955 12.3147 15.984C12.1586 16.505 12.2352 17.0322 12.5361 17.5191C12.9221 18.1393 13.6912 18.7719 14.588 19.203C15.045 19.4232 15.8141 19.7054 16.393 19.8636C17.3551 20.1303 19.2169 20.4187 20.2415 20.4621C20.4486 20.4714 20.7268 20.4714 20.7381 20.4621C20.7608 20.4466 20.9198 20.1148 21.1043 19.7024C21.7343 18.2975 22.1884 16.9795 22.4353 15.8538C22.5829 15.1715 22.6993 14.2629 22.7759 13.1868C22.7958 12.886 22.8042 11.8781 22.7872 11.5369C22.7617 10.9787 22.7162 10.526 22.6453 10.0825C22.634 10.0174 22.6311 9.95843 22.6368 9.95534C22.6481 9.94605 22.6822 9.93365 23.1448 9.78785L23.0512 9.546V9.54593H23.0512V9.5459ZM22.1941 10.0948C22.2282 10.0948 22.319 11.0469 22.3417 11.6486C22.3474 11.7757 22.3445 11.8594 22.3388 11.8594C22.3162 11.8594 21.8592 11.5648 21.5329 11.3416C21.249 11.1462 20.7098 10.7554 20.6247 10.681C20.5963 10.6593 20.5991 10.6562 20.8318 10.5693C21.2263 10.4236 22.1629 10.0948 22.1941 10.0948ZM20.2812 10.7833C20.3068 10.7833 20.372 10.8236 20.5281 10.9291C21.1128 11.3291 21.9075 11.8129 22.248 11.9742C22.353 12.0238 22.3644 12.0052 22.1232 12.1851C21.6066 12.5696 20.9623 12.9479 20.1733 13.3294C20.0343 13.3976 19.918 13.4503 19.9151 13.4503C19.9095 13.4503 19.9264 13.3728 19.9491 13.2798C20.1393 12.5075 20.2472 11.7261 20.2529 11.0996C20.2557 10.7895 20.2557 10.7895 20.2812 10.7802C20.2755 10.7833 20.2784 10.7833 20.2812 10.7833ZM19.8868 10.9477C19.9037 10.9662 19.8924 11.6609 19.8697 11.8501C19.8186 12.3029 19.7392 12.7246 19.6086 13.1992C19.5774 13.3138 19.549 13.41 19.5434 13.4162C19.532 13.4317 19.1431 13.0161 19.0154 12.8549C18.794 12.5758 18.621 12.2967 18.4932 12.0238C18.428 11.8842 18.3258 11.6113 18.3343 11.602C18.3797 11.5679 19.8754 10.9353 19.8868 10.9477ZM18.0306 11.7447C18.0334 11.7447 18.0363 11.7447 18.0391 11.7477C18.0448 11.754 18.0647 11.8036 18.0817 11.8594C18.1725 12.1292 18.3768 12.5262 18.5528 12.7805C18.7458 13.0596 18.9984 13.3573 19.2084 13.5526C19.2766 13.6147 19.339 13.6736 19.3475 13.6829C19.3645 13.7015 19.3702 13.6984 18.9076 13.8907C18.3712 14.114 17.7865 14.3372 17.1167 14.5729C16.9567 14.6293 16.7969 14.6861 16.6372 14.7435C16.6116 14.7528 16.6201 14.7373 16.6939 14.6102C17.0259 14.0426 17.5311 12.9293 17.8149 12.1416C17.8632 12.0051 17.9114 11.8687 17.92 11.8377C17.9313 11.7943 17.9455 11.7788 17.9824 11.757C18.0022 11.7509 18.0221 11.7447 18.0306 11.7447ZM17.463 12.0021C17.4715 12.0083 17.3268 12.3401 17.1849 12.644C16.9096 13.2301 16.6087 13.807 16.2057 14.5078C16.1376 14.6288 16.0724 14.7404 16.0638 14.7528C16.0497 14.7746 16.044 14.7683 15.9986 14.6722C15.9021 14.4644 15.8226 14.1977 15.78 13.9527C15.7374 13.7108 15.746 13.2891 15.7942 13.0286C15.8311 12.8363 15.8283 12.8394 15.9134 12.7929C16.2767 12.5913 17.4517 11.9897 17.463 12.0021ZM22.3587 12.2192V12.3494C22.3587 13.041 22.2906 13.9899 22.1913 14.6815C22.1742 14.8025 22.16 14.9017 22.1572 14.9048C22.1572 14.9048 22.0749 14.88 21.9784 14.849C21.5527 14.7032 21.0901 14.4892 20.6729 14.2381C20.3975 14.0737 19.9974 13.8038 20.0088 13.7914C20.0116 13.7884 20.1308 13.7201 20.2698 13.6395C20.8262 13.3232 21.3597 12.9821 21.8223 12.644C21.9954 12.5169 22.2565 12.3122 22.3133 12.2564L22.3587 12.2192ZM15.3202 13.1371C15.3316 13.1371 15.3287 13.1619 15.3117 13.2735C15.3004 13.3542 15.2862 13.503 15.2805 13.6053C15.2578 14.0581 15.3259 14.3931 15.5303 14.852C15.587 14.9792 15.6325 15.0846 15.6296 15.0877C15.6097 15.1063 13.7309 15.708 13.1406 15.8847C12.9646 15.9374 12.8114 15.984 12.8 15.987C12.7802 15.9933 12.7773 15.9902 12.7858 15.9374C12.8511 15.4816 13.169 14.8861 13.6117 14.3837C13.9069 14.0488 14.1424 13.8534 14.5454 13.6022C14.8349 13.4224 15.2805 13.1526 15.3146 13.1402C15.3146 13.1371 15.3174 13.1371 15.3202 13.1371ZM19.7477 14.0023C19.7505 13.9992 19.8186 14.0396 19.9009 14.0922C20.5083 14.4768 21.354 14.8335 22.0749 15.0164L22.1402 15.0319L22.0493 15.0877C21.6719 15.3172 20.4316 15.8816 19.163 16.3995C18.9785 16.4739 18.7969 16.5484 18.7628 16.5639C18.7288 16.5794 18.6975 16.5887 18.6975 16.5856C18.6975 16.5824 18.7486 16.4739 18.8139 16.3406C19.1686 15.6149 19.5263 14.7311 19.7079 14.117C19.7307 14.0581 19.7448 14.0054 19.7477 14.0023ZM19.2964 14.1636C19.2993 14.1667 19.2766 14.2318 19.2482 14.3062C19.0013 14.9606 18.6777 15.6739 18.2633 16.474C18.1584 16.6787 18.0704 16.843 18.0675 16.843C18.0647 16.843 17.9795 16.7872 17.8774 16.719C17.2756 16.3158 16.7421 15.8196 16.393 15.3389L16.3419 15.2707L16.6002 15.1932C17.5254 14.9172 18.3115 14.6195 19.0921 14.2536C19.2028 14.2039 19.2936 14.1636 19.2964 14.1636ZM22.1005 15.2335C22.1033 15.3048 21.9585 15.9437 21.8393 16.4057C21.74 16.7934 21.6548 17.0973 21.4988 17.6338C21.4307 17.8695 21.3711 18.0648 21.3682 18.0648C21.3654 18.0648 21.3484 18.0617 21.3313 18.0556C20.4884 17.8881 19.7335 17.6555 19.024 17.3454C18.8253 17.2585 18.5415 17.119 18.5245 17.1035C18.5188 17.0972 18.6891 17.0104 18.9048 16.9081C20.1961 16.291 21.5357 15.5901 21.9954 15.2893C22.0493 15.2521 22.0919 15.2335 22.1005 15.2335ZM15.6268 15.4754C15.6325 15.4816 15.272 16.0491 14.7668 16.8213C14.5909 17.0911 14.3865 17.4074 14.3099 17.5252C14.2333 17.6431 14.1169 17.8292 14.0516 17.9408L13.9324 18.1424L13.8047 18.0246C13.6542 17.8881 13.3932 17.5966 13.2768 17.4353C13.0327 17.1035 12.8681 16.7531 12.8029 16.4337C12.7716 16.2848 12.7716 16.2104 12.8 16.2011C12.8425 16.1887 13.6003 15.9933 14.3099 15.8134C14.7044 15.7142 15.1613 15.5964 15.3259 15.553C15.4905 15.5095 15.6239 15.4754 15.6268 15.4754ZM15.99 15.6274L16.0808 15.739C16.4896 16.2383 16.9067 16.6074 17.4119 16.9298C17.5028 16.9857 17.5709 17.0353 17.5652 17.0384C17.5453 17.0539 15.8112 17.7268 15.008 18.0308C14.5568 18.2044 14.185 18.344 14.1822 18.344C14.1794 18.344 14.1538 18.3254 14.1254 18.3037L14.0743 18.2633L14.1566 18.1331C14.4234 17.7113 14.7583 17.2493 15.4877 16.2879L15.99 15.6274ZM18.2549 17.3981C18.2577 17.395 18.3825 17.4446 18.5358 17.5067C18.9048 17.6586 19.1971 17.7547 19.5887 17.8633C20.0712 17.9967 20.7694 18.1269 21.1809 18.1641C21.2434 18.1703 21.2774 18.1765 21.2661 18.1858C21.2462 18.1983 20.829 18.3502 20.5225 18.4557C20.0343 18.6231 18.5443 19.1038 17.3296 19.4852C17.1054 19.5566 16.9124 19.6155 16.9011 19.6186C16.8727 19.6248 16.779 19.5968 16.779 19.5844C16.779 19.5783 16.8471 19.4821 16.9295 19.3767C17.3381 18.8433 17.744 18.2479 18.0817 17.6834C18.1754 17.5283 18.2549 17.4012 18.2549 17.3981ZM17.7553 17.4136C17.7581 17.4167 17.5567 17.7702 17.2048 18.3781C17.0543 18.6355 16.8869 18.927 16.8273 19.0293C16.7705 19.1286 16.6854 19.2836 16.6371 19.3705L16.5548 19.5286L16.5123 19.5162C16.4101 19.4852 15.692 19.2092 15.5019 19.1255C15.2663 19.0231 15.0222 18.8991 14.8406 18.7937C14.6136 18.6603 14.3298 18.4618 14.3524 18.4556C14.3581 18.4525 14.7469 18.3377 15.2152 18.1982C16.4583 17.8291 17.1479 17.6152 17.5992 17.4601C17.6816 17.4322 17.7525 17.4105 17.7553 17.4136ZM21.2888 18.3191H21.2916C21.3029 18.3502 20.8432 19.7457 20.6757 20.1861C20.6388 20.2853 20.6247 20.3101 20.6048 20.307C20.5565 20.3039 19.8896 20.2016 19.4837 20.1364C18.7771 20.0186 17.5907 19.7922 17.2927 19.7178L17.2246 19.7023L17.6475 19.5968C18.5557 19.3735 18.9927 19.2526 19.4355 19.1037C19.9946 18.9177 20.548 18.6851 21.1071 18.3998C21.1951 18.3563 21.2689 18.3222 21.2888 18.3191Z" fill="url(#paint0_linear_384_361)"/>
<path d="M19.1802 -0.0183958C19.1178 -0.0276484 18.1102 0.369296 17.4603 0.65767C16.5834 1.04847 15.9023 1.42063 15.4822 1.74308C15.3261 1.86408 15.1303 2.07803 15.0991 2.16175C15.0877 2.19277 15.082 2.22998 15.082 2.26719L15.4624 2.66104L16.3677 2.97736L18.5218 3.39913L20.9853 3.86121L21.0108 3.62863C21.0023 3.62863 20.9966 3.62554 20.9882 3.62554L20.6645 3.56969L20.5993 3.44256C20.2644 2.7975 19.8955 1.99739 19.6798 1.45778C19.5123 1.03911 19.3534 0.555377 19.2654 0.208027C19.2171 -0.00285108 19.2115 -0.0152497 19.1803 -0.0183387V-0.0184103H19.1802V-0.0183958ZM19.1348 0.139813H19.1377C19.1405 0.142873 19.1518 0.229764 19.1632 0.332043C19.2114 0.76627 19.2995 1.18487 19.4385 1.63765C19.5435 1.9788 19.5435 1.96021 19.4215 1.91987C19.132 1.83306 17.835 1.58806 16.8956 1.44541C16.7452 1.42369 16.6174 1.40199 16.6174 1.3989C16.6061 1.38651 17.2957 0.992621 17.5994 0.837602C17.9882 0.642182 19.0554 0.155301 19.1348 0.139813ZM16.3989 1.52913L16.5096 1.5694C17.1112 1.79272 18.6239 2.10905 19.4584 2.18347C19.552 2.19278 19.6315 2.2021 19.6343 2.2021C19.6371 2.20519 19.5577 2.25171 19.4555 2.30441C19.0525 2.5246 18.6098 2.79441 18.3032 3.0022C18.2125 3.06419 18.1301 3.11385 18.1188 3.11385C18.1074 3.11385 18.0478 3.10143 17.9854 3.09212L17.8719 3.07349L17.5881 2.76956C17.0886 2.23929 16.6969 1.82994 16.5465 1.67485L16.3989 1.52913ZM16.2854 1.62524L16.6856 2.17107C16.9041 2.47189 17.1254 2.76648 17.1737 2.83158C17.2219 2.89675 17.2617 2.94949 17.2589 2.95258C17.2475 2.96187 16.6799 2.8409 16.379 2.76651C16.0697 2.68896 15.942 2.65175 15.7518 2.58665L15.5957 2.53081V2.48736C15.5986 2.27957 15.8398 1.96947 16.2485 1.65319L16.2854 1.62524ZM19.6854 2.36954C19.6968 2.36954 19.7109 2.39744 19.745 2.48117C19.8415 2.71374 20.1424 3.34021 20.2161 3.46114C20.2389 3.50149 20.2785 3.50458 19.8784 3.43325C18.9163 3.26264 18.6069 3.20689 18.6069 3.20068C18.6069 3.19759 18.6353 3.17587 18.6722 3.15415C18.9702 2.97431 19.271 2.7448 19.5378 2.4998C19.6031 2.44087 19.6627 2.38505 19.6741 2.37573C19.6769 2.36954 19.6826 2.36645 19.6854 2.36954Z" fill="url(#paint1_linear_384_361)"/>
<path d="M15.1187 2.11816C15.1187 2.11816 15.0563 2.22675 15.1159 2.38802C15.1528 2.48722 15.2607 2.60815 15.3827 2.73222C15.3827 2.73222 16.6456 4.07812 16.7989 4.27042C17.497 5.15113 17.8007 6.01947 17.8291 7.21654C17.8462 7.98563 17.7127 8.66168 17.3807 9.44629C16.7904 10.8542 15.5444 12.4079 13.623 14.1322L13.9041 14.0298C14.0857 13.881 14.3326 13.7229 14.9116 13.3755C16.2483 12.5754 17.7525 11.8404 19.5973 11.0837C22.2537 9.99206 26.6215 8.71435 29.1077 8.29884L29.366 8.2554L29.3262 8.18717C29.0992 7.80261 28.9431 7.56384 28.7557 7.30955C28.2109 6.57146 27.5496 5.97296 26.7407 5.47676C25.6282 4.79763 24.1892 4.26733 22.3672 3.87348C22.0238 3.79901 21.2689 3.65638 20.6559 3.55404C19.356 3.33391 18.5159 3.18192 17.5907 3.00825C17.2587 2.9462 16.762 2.85319 16.4328 2.77568C16.2625 2.73533 15.9361 2.65161 15.6807 2.55548C15.4764 2.4686 15.1812 2.38177 15.1187 2.11816ZM15.851 2.89349C15.8538 2.89043 15.8992 2.90898 15.9588 2.9307C16.0667 2.97097 16.2057 3.01751 16.3704 3.06716C16.495 3.1046 16.6198 3.14077 16.745 3.17569C16.9153 3.22218 17.0572 3.26561 17.06 3.26561C17.0799 3.28733 17.3666 4.28894 17.4631 4.6735C17.4999 4.8193 17.5283 4.94331 17.5255 4.94331C17.5226 4.94646 17.4914 4.8937 17.4545 4.82238C17.1225 4.18353 16.5974 3.53539 15.99 3.01437C15.9106 2.95241 15.851 2.89658 15.851 2.89349ZM17.2473 3.31525C17.2615 3.31525 17.324 3.32456 17.4006 3.34315C17.8831 3.46099 18.7487 3.64086 19.3021 3.74321C19.3958 3.7587 19.4696 3.77735 19.4696 3.78351C19.4696 3.78974 19.4355 3.81141 19.3929 3.83625C19.2993 3.88895 18.9218 4.13392 18.7969 4.22697C18.4819 4.45646 18.1981 4.70455 17.9937 4.92782C17.9115 5.01777 17.8405 5.0922 17.8405 5.0922C17.8405 5.0922 17.8235 5.0395 17.8092 4.97433C17.7071 4.54326 17.4942 3.90441 17.3012 3.45476C17.27 3.38346 17.2445 3.31832 17.2445 3.31214C17.2445 3.31834 17.2445 3.31525 17.2473 3.31525ZM19.7051 3.82694C19.7221 3.83312 19.7505 3.93857 19.8073 4.17114C19.9123 4.62084 19.9606 5.12323 19.9435 5.5915C19.9378 5.72176 19.9322 5.84268 19.9265 5.85823L19.918 5.8892L19.7704 5.8365C19.4667 5.73107 18.9729 5.57287 18.55 5.44265C18.3088 5.37132 18.113 5.30619 18.113 5.3C18.113 5.28137 18.4649 4.89683 18.6153 4.7511C18.9019 4.47505 19.6796 3.81762 19.7051 3.82694ZM19.9009 3.85792C19.9095 3.84866 21.0759 4.06879 21.6066 4.18045C22.0012 4.26417 22.5744 4.39444 22.6085 4.40997C22.6255 4.41614 22.5659 4.45335 22.3757 4.54638C21.6265 4.91545 21.0702 5.24723 20.5168 5.65042C20.3721 5.75586 20.25 5.84268 20.2472 5.84268C20.2444 5.84268 20.2415 5.75277 20.2415 5.64422C20.2415 5.05501 20.1337 4.45958 19.935 3.95719C19.9151 3.90757 19.8981 3.86106 19.9009 3.85792ZM22.9178 4.5092C22.9264 4.51849 22.8894 4.76971 22.8554 4.91854C22.7532 5.38063 22.4779 6.06603 22.1402 6.71104C22.0806 6.82578 22.0267 6.91882 22.021 6.92191C22.0153 6.925 21.9387 6.87847 21.8507 6.82265C21.5215 6.61177 21.1469 6.41331 20.7382 6.22721C20.6247 6.17452 20.5253 6.13107 20.5225 6.12492C20.5026 6.10629 21.4165 5.44574 21.899 5.12942C22.2821 4.87514 22.9065 4.49677 22.9178 4.5092ZM23.1335 4.5464C23.1591 4.5464 23.6756 4.70147 23.9452 4.78831C24.6122 5.0054 25.3784 5.3124 25.8779 5.56049L26.0851 5.66287L25.9404 5.70005C24.72 6.00704 23.6756 6.36063 22.6681 6.80718C22.5858 6.84439 22.512 6.87541 22.5063 6.87541C22.5006 6.87541 22.529 6.80409 22.5659 6.71723C22.8696 6.01328 23.0654 5.27829 23.1136 4.65182C23.1165 4.59289 23.125 4.5464 23.1335 4.5464ZM17.9909 5.8365C17.9994 5.82718 18.3939 5.92954 18.6068 5.99461C18.9303 6.09389 19.6171 6.34505 19.6171 6.36369C19.6171 6.36677 19.5405 6.43811 19.4497 6.52497C19.0779 6.86299 18.7203 7.21958 18.2917 7.67237C18.164 7.80577 18.0562 7.9143 18.0505 7.9143C18.0448 7.9143 18.042 7.89565 18.0448 7.87085C18.1101 7.34983 18.0959 6.68 18.0051 6.00085C17.9966 5.91399 17.9881 5.83959 17.9909 5.8365ZM26.281 5.84583C26.2866 5.85199 26.0993 6.17452 25.9801 6.35746C25.8099 6.62416 25.5601 6.97776 24.9953 7.75304C24.6973 8.16236 24.3624 8.62447 24.2517 8.77952C24.1382 8.93457 24.0446 9.06479 24.0417 9.06479C24.0388 9.06479 24.002 9.009 23.9622 8.94079C23.6444 8.41977 23.264 7.96389 22.8128 7.55455C22.7276 7.477 22.634 7.39326 22.6028 7.36845C22.5716 7.34366 22.546 7.31884 22.546 7.31575C22.546 7.30647 23.0285 7.08004 23.3946 6.91881C24.036 6.63348 24.9101 6.29237 25.5657 6.07217C25.9092 5.95434 26.2753 5.83959 26.281 5.84583ZM26.4995 5.90781C26.5108 5.90473 26.579 5.94194 26.6613 5.99461C27.351 6.42568 28.0264 6.98082 28.56 7.55144C28.7104 7.71273 29.0822 8.13448 29.0765 8.13757C29.0765 8.13757 28.9459 8.14997 28.7927 8.16236C27.5978 8.26163 26.0682 8.53759 24.598 8.92523C24.4987 8.95001 24.4107 8.97173 24.405 8.97173C24.3994 8.97173 24.51 8.85081 24.6491 8.70507C25.5119 7.79643 25.9064 7.22271 26.3718 6.1993C26.4371 6.04738 26.4938 5.91713 26.4995 5.90781C26.4967 5.90781 26.4967 5.90781 26.4995 5.90781ZM20.1791 6.61492C20.2188 6.62417 20.5878 6.81341 20.8659 6.96533C21.1213 7.10483 21.5045 7.32817 21.5243 7.34674C21.5272 7.34983 21.3909 7.42737 21.2235 7.51732C20.6899 7.80883 20.233 8.0848 19.7562 8.40114C19.62 8.49109 19.5065 8.56555 19.5036 8.56555C19.4923 8.56555 19.4951 8.55308 19.5717 8.40114C19.8272 7.89259 20.0315 7.28475 20.1479 6.6924C20.1592 6.6459 20.1706 6.61492 20.1791 6.61492ZM19.8101 6.68931C19.8186 6.69864 19.7221 7.08005 19.6626 7.28784C19.5462 7.6817 19.3503 8.17477 19.1602 8.54692C19.1148 8.63371 19.0467 8.76087 19.0098 8.83219L18.9388 8.95623L18.7799 8.78881C18.5954 8.59342 18.445 8.47248 18.252 8.36391C18.1754 8.32054 18.1158 8.28328 18.1158 8.27712C18.1158 8.25231 18.6011 7.77163 18.9729 7.4243C19.2397 7.17309 19.8016 6.68002 19.8101 6.68931ZM22.0664 7.70342L22.2055 7.80262C22.5233 8.02905 22.8979 8.32983 23.1846 8.59342C23.3464 8.73915 23.6585 9.04621 23.721 9.12063L23.755 9.16099L23.5252 9.23229C22.2253 9.6261 21.2207 9.97654 20.0485 10.448C19.918 10.5007 19.8073 10.5441 19.7987 10.5441C19.7818 10.5441 19.7675 10.5596 20.0599 10.2649C20.8092 9.51141 21.4732 8.68024 21.9671 7.87084L22.0664 7.70342ZM21.4733 7.86467C21.4789 7.87085 21.0901 8.46936 20.8574 8.8074C20.5792 9.21057 20.0854 9.88661 19.7448 10.3269C19.603 10.5099 19.4809 10.6619 19.4752 10.665C19.4667 10.6681 19.4639 10.6216 19.4639 10.5503C19.4639 10.175 19.3759 9.77493 19.2226 9.43383C19.1574 9.29118 19.146 9.25706 19.1602 9.24157C19.2141 9.18883 20.04 8.67404 20.5622 8.36704C20.9141 8.16237 21.4647 7.85847 21.4733 7.86467ZM17.8859 8.82604C17.8944 8.82604 17.9597 8.86322 18.0335 8.90667C18.2151 9.01519 18.3769 9.13613 18.5216 9.26641C18.5273 9.27259 18.4535 9.33775 18.357 9.41523C18.0874 9.6261 17.6787 9.96416 17.4404 10.1719C17.1906 10.389 17.1821 10.3952 17.2104 10.3487C17.3978 10.0355 17.4914 9.85872 17.5908 9.63235C17.6787 9.4308 17.7667 9.19199 17.8291 8.9842C17.8518 8.89427 17.8802 8.82604 17.8859 8.82604ZM18.8424 9.64472C18.8565 9.64166 18.8736 9.66954 18.9502 9.79361C19.1119 10.0572 19.2368 10.4107 19.2681 10.696L19.2737 10.7581L18.8849 10.9225C18.1896 11.217 17.5482 11.5086 17.1139 11.7256C16.9919 11.7877 16.779 11.8993 16.64 11.9738C16.5009 12.0512 16.3874 12.1102 16.3874 12.1071C16.3874 12.104 16.4754 12.0327 16.5832 11.9458C17.4318 11.2729 18.1669 10.5348 18.7175 9.79671C18.7771 9.71916 18.831 9.64783 18.8366 9.64474L18.8424 9.64472ZM18.4025 9.76259C18.4138 9.77499 18.0903 10.175 17.8689 10.42C17.3212 11.031 16.7791 11.5086 16.1064 11.9738C16.0213 12.0327 15.9447 12.0854 15.9361 12.0916C15.9163 12.104 15.9418 12.073 16.237 11.7225C16.4243 11.5023 16.5662 11.3163 16.728 11.0868C16.8358 10.9349 16.8557 10.9132 17.0118 10.7922C17.429 10.4634 18.3911 9.75016 18.4025 9.76259Z" fill="url(#paint2_radial_384_361)"/>
<path d="M6.11242 22.6038C6.06007 22.6038 6.0077 22.6092 5.95581 22.6092C4.89834 22.6708 4.18513 23.1793 3.76812 24.1724C3.41147 25.0705 3.45041 26.2445 3.77212 27.1481C4.14623 28.0311 4.75075 28.4971 5.75977 28.6731C5.97327 28.7113 6.11643 28.8394 6.52991 29.3669L7.03869 30.0182H7.96145L7.34787 29.3424C7.0087 28.9718 6.73437 28.6491 6.73437 28.6207C6.73437 28.5924 6.86412 28.5303 7.02117 28.478C7.53892 28.3068 7.96887 27.8697 8.26964 27.1999C8.51305 26.662 8.54799 26.4957 8.58288 25.8264C8.67418 23.8344 7.71299 22.589 6.11238 22.6032L6.11242 22.6038ZM6.92144 27.8131C6.47253 28.0507 5.82068 28.0981 5.39519 27.9275C4.95525 27.751 4.52929 27.2517 4.33772 26.6865C4.12475 26.0685 4.15516 24.9283 4.39858 24.4149C4.79012 23.5973 5.3079 23.2213 6.06454 23.2213C7.1868 23.2213 7.82523 23.9724 7.90854 25.3839C7.97439 26.5623 7.61326 27.4463 6.92192 27.8126L6.92144 27.8131ZM22.8617 24.3053C22.4746 24.3053 22.1783 24.4765 21.9788 24.8138L21.8221 25.0809V24.3865H21.1523V28.5505H21.8217V27.2196C21.8217 26.0025 21.8356 25.8603 21.9913 25.5272C22.2058 25.0705 22.5748 24.8428 22.9315 24.9518L23.1709 25.0281V24.3064H22.8617V24.3053ZM18.9262 24.2672C18.795 24.2672 18.6558 24.2863 18.5173 24.3195C17.6209 24.5756 17.1156 25.5131 17.1465 26.4778C17.1465 27.2855 17.2902 27.6893 17.6469 28.1129C18.3776 28.768 19.0385 28.8203 19.9303 28.4688C20.0824 28.3979 20.248 28.3162 20.248 28.3162V27.6611L19.9303 27.8409C19.2085 28.1843 18.6649 28.1843 18.2294 27.7799C17.9516 27.4708 17.8294 27.1002 17.773 26.6773H20.474V26.1159C20.474 24.9713 19.8435 24.2486 18.9257 24.2672H18.9262ZM17.8339 26.093C17.8339 26.093 17.9337 25.379 18.3037 25.0989C18.4819 24.9615 18.6863 24.8951 18.8863 24.8951C19.0869 24.8951 19.2868 24.9659 19.452 25.1038C19.7912 25.3888 19.848 26.0876 19.848 26.0876H17.8339V26.093H17.8339ZM1.68468 25.342C0.958467 24.8613 0.636247 24.5146 0.675648 24.1058C0.788352 22.9749 2.06727 23.1313 2.77552 23.5592L2.78055 22.7984C2.78055 22.7984 2.38899 22.6131 1.82783 22.6032C0.966932 22.5891 0.410286 22.8975 0.149456 23.5254C-0.233648 24.4519 0.10557 25.1506 1.33161 25.9301C2.01991 26.3677 2.32415 26.7476 2.32415 27.1618C2.32415 28.0175 1.37996 28.3162 0.405847 27.7793C0.205371 27.6703 0.035762 27.5793 0.0267916 27.5793C-0.00814682 27.8218 0.00986291 28.4022 0.00986291 28.4022C0.00986291 28.4022 0.309151 28.5396 0.758014 28.6344C1.87126 28.8769 2.88433 28.3063 2.98009 27.3798C3.0634 26.5099 2.77554 26.0537 1.68472 25.3414L1.68468 25.342ZM28.7902 24.2574C28.6595 24.2574 28.5208 24.277 28.3762 24.3102C27.4809 24.5664 26.9766 25.5039 27.011 26.4686C27.011 27.2752 27.1542 27.6752 27.5108 28.0981C28.2415 28.7538 28.9024 28.8067 29.7988 28.4546C29.9504 28.3838 30.1155 28.3032 30.1155 28.3032V27.647L29.7983 27.8279C29.0751 28.1701 28.5313 28.1701 28.0974 27.7658C27.8181 27.4573 27.6969 27.091 27.6405 26.6631H30.337V26.1018C30.337 24.9627 29.7065 24.2394 28.7887 24.2585L28.7902 24.2574ZM27.6979 26.0832C27.6979 26.0832 27.7986 25.3703 28.1682 25.0847C28.3458 24.9468 28.5503 24.8803 28.7503 24.8803C28.9498 24.8803 29.1508 24.9512 29.316 25.0896C29.6551 25.3746 29.712 26.0783 29.712 26.0783H27.6984L27.6979 26.0832ZM15.4197 25.3512C14.6935 24.8716 14.3723 24.5239 14.4112 24.1151C14.5239 22.9836 15.8029 23.1406 16.5111 23.5685L16.5161 22.8076C16.5161 22.8076 16.1245 22.6223 15.5634 22.6136C14.7025 22.5994 14.1458 22.9079 13.8845 23.5357C13.502 24.4622 13.8456 25.161 15.0676 25.9404C15.755 26.3775 16.0592 26.7525 16.0592 27.1667C16.0592 28.0224 15.1155 28.326 14.1414 27.7842C13.9419 27.6752 13.7723 27.5852 13.7623 27.5852C13.7274 27.8277 13.7454 28.4082 13.7454 28.4082C13.7454 28.4082 14.0411 28.5407 14.4886 28.6404C15.6028 28.8835 16.6164 28.3134 16.7117 27.3868C16.7945 26.5213 16.5072 26.0651 15.4198 25.3523V25.3512H15.4197ZM32.7261 24.2955C32.3391 24.2955 32.0393 24.4672 31.8433 24.8046L31.6866 25.0705V24.3773H31.0168V28.5402H31.6861V27.2093C31.6861 25.9927 31.6996 25.8499 31.8558 25.5175C32.0702 25.0613 32.4393 24.833 32.7959 24.9425L33.0353 25.0188V24.2956L32.7261 24.2955ZM10.0927 25.3272V22.6751H9.4174V28.5494H12.2575V27.8557H10.0928V25.3272H10.0927ZM25.7107 26.154L25.1541 27.7368L24.6188 26.1453L24.0752 24.3816H23.3839C23.8318 25.7693 24.319 27.1809 24.8104 28.5494C25.0234 28.5549 25.2368 28.5494 25.4498 28.5494L26.2015 26.4871L26.9671 24.3822H26.3063C26.3063 24.3822 26.0144 25.2182 25.7102 26.1546L25.7107 26.154ZM11.6489 21.0744C11.7577 21.0744 11.8484 21.0363 11.9233 20.9545C11.9971 20.8738 12.036 20.779 12.036 20.6602C12.036 20.5414 11.9971 20.4422 11.9233 20.3659C11.8484 20.2896 11.7621 20.2514 11.6539 20.2514C11.5442 20.2514 11.4534 20.2896 11.3796 20.3702C11.3048 20.4509 11.2708 20.5501 11.2708 20.6646C11.2708 20.7845 11.3058 20.8836 11.3796 20.9589C11.4494 21.0352 11.5402 21.0733 11.6489 21.0733V21.0744ZM11.4095 20.3986C11.4744 20.3278 11.5532 20.295 11.6539 20.295C11.7487 20.295 11.8275 20.3278 11.8934 20.3986C11.9582 20.4695 11.9931 20.5556 11.9931 20.6602C11.9931 20.7648 11.9582 20.8553 11.8934 20.9262C11.8276 20.997 11.7487 21.0308 11.6539 21.0308C11.5577 21.0308 11.4793 20.9981 11.4145 20.9262C11.3497 20.8553 11.3148 20.7648 11.3148 20.6602C11.3148 20.5556 11.3447 20.4695 11.4095 20.3986ZM11.5706 20.6984H11.6145C11.6455 20.6984 11.6759 20.7311 11.7018 20.7932L11.7542 20.9218H11.8365L11.7717 20.779C11.7452 20.7218 11.7193 20.6885 11.6889 20.6792C11.7273 20.6694 11.7577 20.6553 11.7796 20.6269C11.8015 20.6024 11.8095 20.5691 11.8095 20.5315C11.8095 20.4879 11.7971 20.4553 11.7707 20.4312C11.7407 20.404 11.6928 20.3893 11.631 20.3893H11.4924V20.9218H11.5622V20.6983L11.5706 20.6984ZM11.5706 20.4509H11.6315C11.6754 20.4509 11.7063 20.4607 11.7233 20.4749C11.7397 20.4891 11.7442 20.5076 11.7442 20.5414C11.7442 20.603 11.7093 20.6319 11.6445 20.6319H11.5697V20.4509H11.5706ZM0.414748 20.6509C0.414748 20.4656 0.40978 20.3278 0.405778 20.2465H0.40978C0.427215 20.3424 0.448675 20.4139 0.466132 20.4613L1.11453 22.044H1.22328L1.87167 20.4471C1.88918 20.4036 1.90663 20.3381 1.92807 20.2471H1.93304C1.92009 20.4052 1.9156 20.5425 1.9156 20.652V22.0489H2.13752V19.9724H1.85921L1.26318 21.4167C1.24122 21.4739 1.21079 21.5595 1.17189 21.6729H1.16288C1.14993 21.6167 1.1195 21.5311 1.07612 21.4265L0.493503 19.9674H0.197757V22.044H0.411229V20.652L0.414748 20.6509ZM2.62387 20.6548H2.81545V21.9481H2.62387V20.6548ZM2.71965 20.1806C2.75958 20.1806 2.79348 20.1658 2.8194 20.137C2.84585 20.1086 2.86334 20.0716 2.86334 20.028C2.86334 19.9855 2.85034 19.9473 2.81993 19.919C2.793 19.8901 2.75857 19.8754 2.71917 19.8754C2.68029 19.8754 2.64538 19.8901 2.61939 19.919C2.59303 19.9473 2.57552 19.9855 2.57552 20.028C2.57552 20.0754 2.589 20.1086 2.61939 20.137C2.64938 20.1658 2.68027 20.1806 2.71917 20.1806H2.71965ZM4.18113 21.9765V21.7486C4.07636 21.8342 3.96363 21.8768 3.84692 21.8768C3.70731 21.8768 3.59403 21.8244 3.51123 21.7242C3.42895 21.625 3.38507 21.487 3.38507 21.3154C3.38507 21.1355 3.42895 20.9927 3.51971 20.8837C3.607 20.779 3.72026 20.7267 3.85893 20.7267C3.97214 20.7267 4.08082 20.7649 4.18115 20.8412V20.5987C4.08988 20.5464 3.98564 20.5224 3.8679 20.5224C3.6504 20.5224 3.48086 20.5987 3.35418 20.7459C3.22845 20.893 3.16361 21.0931 3.16361 21.3345C3.16361 21.5492 3.21996 21.7297 3.33722 21.8676C3.4594 22.0093 3.61558 22.0812 3.80709 22.0812C3.95517 22.0767 4.07636 22.0429 4.18113 21.9765ZM4.72926 21.287C4.72926 21.1164 4.76418 20.9785 4.82902 20.8836C4.8899 20.7981 4.96369 20.7551 5.05098 20.7551C5.12481 20.7551 5.17716 20.7698 5.21555 20.803V20.5556C5.18565 20.5414 5.14224 20.5365 5.08589 20.5365C5.00757 20.5365 4.93779 20.5653 4.87642 20.6183C4.81158 20.6743 4.75972 20.76 4.72929 20.869H4.72432V20.5654H4.50735V22.0478H4.7248V21.287H4.72926ZM5.97773 22.0773C6.18225 22.0773 6.34685 22.0053 6.46903 21.8626C6.59071 21.7208 6.65157 21.5301 6.65157 21.2924C6.65157 21.0499 6.59574 20.8646 6.482 20.7266C6.3693 20.5888 6.21264 20.5223 6.00811 20.5223C5.80359 20.5223 5.639 20.5888 5.51681 20.7174C5.38615 20.8592 5.3173 21.0592 5.3173 21.3159C5.3173 21.5393 5.37317 21.7247 5.49092 21.8626C5.61259 22.0053 5.77371 22.0767 5.97773 22.0767V22.0773ZM5.66848 20.8695C5.75129 20.7741 5.86006 20.7267 5.99468 20.7267C6.13439 20.7267 6.23911 20.7741 6.31693 20.8695C6.39522 20.9692 6.43416 21.1115 6.43416 21.3017C6.43416 21.4826 6.39922 21.6249 6.32539 21.7203C6.2516 21.82 6.14285 21.8729 5.99917 21.8729C5.85953 21.8729 5.75129 21.82 5.66848 21.7203C5.58621 21.62 5.54678 21.4826 5.54678 21.3017C5.53832 21.1219 5.58172 20.9747 5.66848 20.8695ZM7.6038 21.9481C7.68658 21.8675 7.73052 21.7683 7.73052 21.6439C7.73052 21.5349 7.69555 21.4445 7.63074 21.3731C7.57784 21.3159 7.49609 21.2641 7.37787 21.2118C7.27307 21.1639 7.20826 21.1213 7.17332 21.088C7.13843 21.0499 7.11697 21.0025 7.11697 20.9354C7.11697 20.8739 7.13893 20.8264 7.18185 20.7883C7.22574 20.7502 7.28161 20.7317 7.35643 20.7317C7.47364 20.7317 7.57388 20.7654 7.66563 20.8368V20.5992C7.57786 20.5513 7.48259 20.5284 7.37384 20.5284C7.2342 20.5284 7.11648 20.5704 7.02965 20.6515C6.93836 20.7322 6.89501 20.8369 6.89501 20.96C6.89501 21.069 6.92491 21.1595 6.98174 21.226C7.02963 21.2827 7.11149 21.3405 7.22516 21.3922C7.33393 21.4445 7.40774 21.4919 7.44712 21.53C7.48602 21.5682 7.50347 21.6156 7.50347 21.6718C7.50347 21.8102 7.41671 21.8817 7.24711 21.8817C7.11641 21.8817 6.99925 21.8348 6.89443 21.74V21.996C6.98922 22.0582 7.10296 22.0865 7.22864 22.0865C7.38976 22.0773 7.51592 22.0342 7.60272 21.9487L7.6038 21.9481ZM8.63928 20.5223C8.43474 20.5223 8.27016 20.5888 8.14796 20.7174C8.01828 20.8592 7.94845 21.0592 7.94845 21.3159C7.94845 21.5394 8.00485 21.7247 8.12204 21.8626C8.24424 22.0054 8.40483 22.0768 8.60936 22.0768C8.81883 22.0768 8.97848 22.0049 9.10066 21.862C9.22286 21.7203 9.2837 21.5296 9.2837 21.2919C9.2837 21.0494 9.22684 20.8641 9.11409 20.7262C8.99644 20.5883 8.83976 20.5218 8.64025 20.5218L8.63928 20.5223ZM9.06123 21.3017C9.06123 21.4826 9.02632 21.6249 8.95251 21.7203C8.87868 21.8201 8.76993 21.8729 8.62626 21.8729C8.48656 21.8729 8.37836 21.82 8.29553 21.7203C8.21326 21.62 8.17386 21.4826 8.17386 21.3017C8.17386 21.111 8.21728 20.9638 8.30457 20.8646C8.38682 20.7698 8.49562 20.7218 8.63077 20.7218C8.76542 20.7218 8.87369 20.7697 8.95196 20.8646C9.02181 20.9692 9.06073 21.1115 9.06073 21.3017H9.06123ZM9.64884 22.0435H9.86581V20.76H10.1835V20.5605H9.86578V20.3316C9.86578 20.1234 9.93957 20.0188 10.0922 20.0188C10.1436 20.0188 10.196 20.0329 10.2349 20.0569V19.8428C10.196 19.8237 10.1436 19.8193 10.0782 19.8193C9.96103 19.8193 9.86528 19.8575 9.78694 19.9381C9.69565 20.033 9.6473 20.1561 9.6473 20.323V20.5661H9.4178V20.7655H9.6473V22.0442L9.64884 22.0435ZM10.5401 21.6391C10.5401 21.9291 10.6574 22.0767 10.8968 22.0767C10.9836 22.0767 11.0489 22.0615 11.1013 22.0277V21.8239C11.0614 21.8566 11.014 21.8719 10.9616 21.8719C10.8879 21.8719 10.836 21.8527 10.8055 21.8097C10.7746 21.7672 10.7571 21.6952 10.7571 21.596V20.7594H11.1013V20.5599H10.7571V20.1229C10.6823 20.1512 10.609 20.1752 10.5396 20.1991V20.5599H10.3052V20.7594H10.5396V21.6385L10.5401 21.6391ZM33.8833 24.3718C33.8095 24.2955 33.7222 24.2574 33.614 24.2574C33.5043 24.2574 33.4134 24.2955 33.3396 24.3773C33.2658 24.4574 33.2309 24.5571 33.2309 24.6716C33.2309 24.7904 33.2658 24.8896 33.3391 24.9659C33.4129 25.0422 33.5037 25.0804 33.6134 25.0804C33.7217 25.0804 33.8129 25.0422 33.8878 24.9615C33.9611 24.8798 34 24.7855 34 24.6672C33.996 24.5473 33.9566 24.4481 33.8828 24.3718L33.8833 24.3718ZM33.8484 24.9332C33.7836 25.004 33.7048 25.0367 33.609 25.0367C33.5142 25.0367 33.4354 25.004 33.3696 24.9332C33.3048 24.8613 33.2698 24.7713 33.2698 24.6661C33.2698 24.5625 33.2997 24.4765 33.3656 24.4045C33.4304 24.3337 33.5088 24.301 33.609 24.301C33.7038 24.301 33.7826 24.3337 33.8484 24.4045C33.9132 24.4765 33.9481 24.5625 33.9481 24.6661C33.9481 24.7763 33.9182 24.8613 33.8484 24.9332ZM33.6529 24.6906C33.6918 24.6808 33.7227 24.6618 33.7442 24.6383C33.7661 24.6138 33.7741 24.5805 33.7741 24.5425C33.7741 24.4999 33.7616 24.4661 33.7352 24.4427C33.7053 24.4154 33.6569 24.4007 33.5956 24.4007H33.4569V24.9326H33.5268V24.7092H33.5701C33.6001 24.7092 33.63 24.7418 33.6569 24.804L33.7088 24.9321H33.7916L33.7268 24.7892C33.7043 24.7271 33.6784 24.6987 33.652 24.6895L33.6529 24.6906ZM33.605 24.6427H33.5302V24.4629H33.5915C33.6349 24.4629 33.6654 24.4716 33.6828 24.4863C33.7003 24.5005 33.7043 24.519 33.7043 24.5528C33.7043 24.6144 33.6694 24.6428 33.6045 24.6428L33.605 24.6427ZM21.4701 20.4989H21.5309V19.9664H21.692V19.8999H21.309V19.9664H21.4701V20.4989H21.4701ZM21.8391 20.0989C21.8391 20.047 21.8391 20.0045 21.8357 19.9806C21.8397 20.0089 21.8486 20.028 21.8526 20.0422L22.0397 20.4989H22.0696L22.2571 20.0378C22.2622 20.0236 22.2662 20.0051 22.2746 19.9806C22.2706 20.028 22.2706 20.0661 22.2706 20.095V20.4984H22.3355V19.8999H22.2571L22.0876 20.313C22.0836 20.3278 22.0701 20.3566 22.0616 20.3894H22.0566C22.0531 20.3703 22.0442 20.3512 22.0317 20.3186L21.8621 19.9H21.7743V20.4995H21.8357V20.0994L21.8391 20.0989Z" fill="white"/>
</g>
<defs>
<linearGradient id="paint0_linear_384_361" x1="15.0607" y1="18.4425" x2="16.4781" y2="17.6761" gradientUnits="userSpaceOnUse">
<stop stop-color="#909CA9"/>
<stop offset="1" stop-color="#EDEDEE"/>
</linearGradient>
<linearGradient id="paint1_linear_384_361" x1="15.092" y1="1.91534" x2="16.1845" y2="1.91534" gradientUnits="userSpaceOnUse">
<stop stop-color="#939FAB"/>
<stop offset="1" stop-color="#DCDEE1"/>
</linearGradient>
<radialGradient id="paint2_radial_384_361" cx="0" cy="0" r="1" gradientUnits="userSpaceOnUse" gradientTransform="translate(20.6044 7.39003) rotate(-170.679) scale(1.41151 3.07231)">
<stop stop-color="#EE352C"/>
<stop offset="1" stop-color="#A91D22"/>
</radialGradient>
<clipPath id="clip0_384_361">
<rect width="34" height="30" fill="white"/>
</clipPath>
</defs>
</svg>
