<svg width="103" height="64" viewBox="0 0 103 64" fill="none" xmlns="http://www.w3.org/2000/svg">
<g clip-path="url(#clip0_2316_3326)">
<path d="M51.5033 0.494141C38.0323 0.494141 29.6161 7.49312 26.2458 21.4968C31.2957 14.497 37.191 11.8722 43.9244 13.6223C47.7691 14.6185 50.5167 17.5165 53.5594 20.728C58.5115 25.9522 64.2433 32.0002 76.7608 32.0002C90.2309 32.0002 98.648 25.0004 102.018 10.9934C96.9676 17.9973 91.0731 20.6221 84.3388 18.872C80.4949 17.8751 77.7506 14.9778 74.7039 11.7663C69.755 6.54214 64.0247 0.494141 51.5033 0.494141ZM26.2458 32.0002C12.7756 32.0002 4.35858 39 0.988281 53.007C6.0382 46.0031 11.9327 43.3782 18.667 45.1284C22.5116 46.1253 25.2592 49.0226 28.3019 52.234C33.2539 57.4582 38.9858 63.5062 51.5033 63.5062C64.9734 63.5062 73.3905 56.5073 76.7608 42.5036C71.7101 49.5034 65.8156 52.1282 59.0813 50.378C55.2374 49.3819 52.4931 46.4839 49.4464 43.2724C44.4975 38.0482 38.7672 32.0002 26.2458 32.0002Z" fill="#38BDF8"/>
</g>
<defs>
<clipPath id="clip0_2316_3326">
<rect width="101.03" height="64" fill="white" transform="translate(0.984985)"/>
</clipPath>
</defs>
</svg>
