<svg width="29" height="29" viewBox="0 0 29 29" fill="none" xmlns="http://www.w3.org/2000/svg">
<g clip-path="url(#clip0_228_157)">
<path d="M24.65 0H4.35C1.94756 0 0 1.94756 0 4.35V24.65C0 27.0524 1.94756 29 4.35 29H24.65C27.0524 29 29 27.0524 29 24.65V4.35C29 1.94756 27.0524 0 24.65 0Z" fill="#3178C6"/>
<path d="M13.1973 16.0864H16.8223V13.7641H6.68359V16.0864H10.3086V26.4516H13.1973V16.0864ZM17.9551 25.8852C18.4139 26.1231 18.9746 26.2987 19.5977 26.4177C20.2207 26.5366 20.9004 26.5932 21.5801 26.5932C22.2598 26.5932 22.8828 26.5309 23.5059 26.4007C24.1289 26.2704 24.6387 26.0552 25.0918 25.7776C25.5506 25.4774 25.9414 25.0979 26.168 24.5882C26.3945 24.0784 26.5701 23.512 26.5701 22.7757C26.5701 22.2602 26.4908 21.8128 26.3379 21.4163C26.185 21.0198 25.9641 20.68 25.6582 20.3968C25.3693 20.0966 25.0352 19.8304 24.6387 19.6038C24.2422 19.3772 23.7891 19.1393 23.2793 18.9241C22.9055 18.7712 22.5996 18.6239 22.2598 18.4766C21.9652 18.3294 21.7104 18.1821 21.5234 18.0348C21.3139 17.8819 21.1553 17.7233 21.042 17.5591C20.9287 17.3891 20.8721 17.2022 20.8721 16.9927C20.8721 16.8001 20.9225 16.6245 21.025 16.4659C21.1275 16.3073 21.2686 16.177 21.4498 16.0638C21.6311 15.9505 21.8576 15.8655 22.1295 15.8032C22.3957 15.7409 22.6902 15.7126 23.0357 15.7126C23.2736 15.7126 23.5229 15.7301 23.7721 15.7658C24.0326 15.8015 24.2988 15.8564 24.565 15.9301C24.8313 16.0037 25.0918 16.0943 25.358 16.2076C25.6072 16.3209 25.8395 16.4512 26.0377 16.5984V13.9363C25.6072 13.7721 25.1314 13.6475 24.6217 13.5682C24.1119 13.4889 23.5455 13.4492 22.8658 13.4492C22.1861 13.4492 21.5631 13.5229 20.94 13.6645C20.317 13.8061 19.8072 14.0326 19.3541 14.3441C18.8953 14.65 18.5611 15.0238 18.2779 15.5336C18.0117 16.0094 17.8814 16.5531 17.8814 17.2328C17.8814 18.0824 18.125 18.8187 18.6178 19.3852C19.1049 20.0082 19.8639 20.4613 20.8268 20.9145C21.2176 21.073 21.5631 21.2316 21.9029 21.3846C22.2428 21.5375 22.526 21.6961 22.7525 21.8604C22.9961 22.0246 23.1887 22.2059 23.3189 22.3984C23.4605 22.591 23.5342 22.8176 23.5342 23.0781C23.5342 23.2594 23.49 23.4293 23.4039 23.5879C23.3178 23.7465 23.183 23.8824 23.0018 23.9957C22.8205 24.109 22.5996 24.1996 22.3221 24.2676C22.0559 24.3299 21.7557 24.3639 21.3592 24.3639C20.7361 24.3639 20.1131 24.2563 19.5467 24.041C18.9236 23.8258 18.3572 23.5029 17.9551 23.1665V25.8852Z" fill="white"/>
</g>
<defs>
<clipPath id="clip0_228_157">
<rect width="29" height="29" fill="white"/>
</clipPath>
</defs>
</svg>
