<svg width="39" height="39" viewBox="0 0 39 39" fill="none" xmlns="http://www.w3.org/2000/svg">
<circle cx="19.5" cy="19.5" r="19.5" fill="url(#paint0_linear_2318_728)"/>
<g clip-path="url(#clip0_2318_728)">
<path d="M31.0714 10H7.92857C7.41708 10 6.92654 10.2002 6.56487 10.5565C6.20319 10.9128 6 11.3961 6 11.9V27.1C6 27.6039 6.20319 28.0872 6.56487 28.4435C6.92654 28.7998 7.41708 29 7.92857 29H31.0714C31.5829 29 32.0735 28.7998 32.4351 28.4435C32.7968 28.0872 33 27.6039 33 27.1V11.9C33 11.3961 32.7968 10.9128 32.4351 10.5565C32.0735 10.2002 31.5829 10 31.0714 10ZM28.95 11.9L19.5 18.341L10.05 11.9H28.95ZM7.92857 27.1V12.7645L18.9504 20.279C19.1118 20.3893 19.3035 20.4484 19.5 20.4484C19.6965 20.4484 19.8882 20.3893 20.0496 20.279L31.0714 12.7645V27.1H7.92857Z" fill="#45B3C2"/>
</g>
<defs>
<linearGradient id="paint0_linear_2318_728" x1="19.5" y1="0" x2="19.5" y2="39" gradientUnits="userSpaceOnUse">
<stop stop-color="#00022B"/>
<stop offset="1" stop-color="#0D2938"/>
</linearGradient>
<clipPath id="clip0_2318_728">
<rect width="27" height="19" fill="white" transform="translate(6 10)"/>
</clipPath>
</defs>
</svg>
