<svg width="39" height="39" viewBox="0 0 39 39" fill="none" xmlns="http://www.w3.org/2000/svg">
<circle cx="19.5" cy="19.5" r="19.5" fill="url(#paint0_linear_2356_512)"/>
<path d="M17 30.211C12.7138 31.6572 9.1425 30.211 7 25.751" stroke="#45B3C2" stroke-width="1.5" stroke-linecap="round" stroke-linejoin="round"/>
<path d="M17 32.0006V27.9481C17 27.2006 17.23 26.5506 17.6 25.9631C17.855 25.5606 17.68 24.9881 17.2213 24.8631C13.4175 23.8156 10.75 22.1344 10.75 16.5569C10.75 15.1069 11.225 13.7444 12.06 12.5569C12.2675 12.2619 12.3725 12.1144 12.3975 11.9819C12.4225 11.8469 12.3787 11.6731 12.2912 11.3231C11.9375 9.90314 11.9613 8.39439 12.4913 7.03564C12.4913 7.03564 13.5875 6.67689 16.0838 8.23564C16.6538 8.59189 16.9388 8.77064 17.19 8.81064C17.4413 8.85064 17.7762 8.76689 18.4462 8.59939C19.4042 8.36189 20.3881 8.24473 21.375 8.25064C22.3619 8.24643 23.3456 8.36398 24.3038 8.60064C24.9738 8.76814 25.31 8.85064 25.5613 8.81189C25.8113 8.77189 26.0962 8.59314 26.6662 8.23689C29.1625 6.67814 30.2588 7.03689 30.2588 7.03689C30.7888 8.39564 30.8125 9.90439 30.4588 11.3244C30.3713 11.6744 30.3288 11.8494 30.3538 11.9819C30.3788 12.1144 30.4825 12.2631 30.69 12.5581C31.525 13.7456 32 15.1081 32 16.5581C32 22.1356 29.3325 23.8169 25.5287 24.8619C25.07 24.9881 24.895 25.5606 25.15 25.9619C25.52 26.5494 25.75 27.1994 25.75 27.9481V32.0006" stroke="#45B3C2" stroke-width="1.5" stroke-linecap="round" stroke-linejoin="round"/>
<defs>
<linearGradient id="paint0_linear_2356_512" x1="19.5" y1="0" x2="19.5" y2="39" gradientUnits="userSpaceOnUse">
<stop stop-color="#00022B"/>
<stop offset="1" stop-color="#0D2938"/>
</linearGradient>
</defs>
</svg>
