<svg width="39" height="39" viewBox="0 0 39 39" fill="none" xmlns="http://www.w3.org/2000/svg">
<circle cx="19.5" cy="19.5" r="19.5" fill="url(#paint0_linear_2318_733)"/>
<g clip-path="url(#clip0_2318_733)">
<path d="M9.98193 12.392V26.6082C9.98193 27.9501 11.0379 29.006 12.3798 29.006H26.596C27.2528 29.006 27.8803 28.6918 28.2804 28.2926C28.7088 27.8642 28.9938 27.3216 28.9938 26.6082V12.392C28.9938 11.0501 27.9378 9.99414 26.596 9.99414H12.3798C11.6664 9.99414 11.1238 10.2801 10.6953 10.7076C10.2953 11.1077 9.98193 11.7352 9.98193 12.392ZM12.5515 14.2755C12.5515 13.3621 13.2941 12.5628 14.2076 12.5628C15.1494 12.5628 15.9203 13.3621 15.9203 14.2755C15.9203 15.2173 15.1494 15.96 14.2076 15.96C13.2941 15.96 12.5515 15.2173 12.5515 14.2755ZM17.1471 26.008V17.3018C17.1471 17.1018 17.3472 16.931 17.4897 16.931H19.9158C20.2584 16.931 20.2584 17.3311 20.2584 17.5877C20.9435 16.9027 21.8286 16.7309 22.7421 16.7309C24.9691 16.7309 26.3959 17.7869 26.3959 20.1281V26.0089C26.3959 26.209 26.2242 26.3798 26.0534 26.3798H23.5414C23.3413 26.3798 23.1988 26.1798 23.1988 26.0089V20.699C23.1988 19.8139 22.9421 19.3288 21.9428 19.3288C20.6868 19.3288 20.3726 20.1564 20.3726 21.2699V26.0089C20.3726 26.209 20.1725 26.3798 19.9725 26.3798H17.4888C17.3463 26.3798 17.1462 26.1798 17.1462 26.0089L17.1471 26.008ZM12.6081 26.008V17.3018C12.6081 17.1018 12.8082 16.931 12.9507 16.931H15.4344C15.6628 16.931 15.8053 17.0735 15.8053 17.3018V26.008C15.8053 26.2081 15.6335 26.3789 15.4344 26.3789H12.9507C12.779 26.3789 12.6081 26.1789 12.6081 26.008Z" fill="#45B3C2"/>
</g>
<defs>
<linearGradient id="paint0_linear_2318_733" x1="19.5" y1="0" x2="19.5" y2="39" gradientUnits="userSpaceOnUse">
<stop stop-color="#00022B"/>
<stop offset="1" stop-color="#0D2938"/>
</linearGradient>
<clipPath id="clip0_2318_733">
<rect width="19" height="19" fill="white" transform="translate(10 10)"/>
</clipPath>
</defs>
</svg>
